<?xml version="1.0" encoding="UTF-8"?><svg xmlns="http://www.w3.org/2000/svg" xmlns:xlink="http://www.w3.org/1999/xlink" height="483.0" overflow="hidden" preserveAspectRatio="xMidYMid meet" version="1.0" viewBox="0.0 0.0 298.0 483.0" width="298.0" zoomAndPan="magnify"><defs><clipPath id="a"><path d="M2525 210H2823V693H2525z"/></clipPath></defs><g clip-path="url(#a)" transform="translate(-2525 -210)"><g id="change1_1"><path d="M2706.85 440.743C2706.85 440.743 2728.49 421.77 2771.75 459.716 2771.75 459.716 2774.42 462.388 2763.74 481.361 2752.79 500.333 2747.45 505.678 2744.78 532.935 2742.11 559.924 2744.78 565.536 2744.78 565.536 2744.78 565.536 2812.35 606.153 2820.63 636.082 2828.64 666.011 2817.96 693 2763.74 693 2709.53 693 2563.44 693 2563.44 693 2563.44 693 2511.89 690.328 2528.18 638.754 2544.47 587.18 2609.37 581.836 2609.37 581.836L2585.07 549.235 2606.7 476.016 2706.85 440.743Z" fill="#E37828" fill-rule="evenodd"/></g><g id="change1_2"><path d="M2770.52 467C2770.52 467 2789.47 514.976 2794.88 531.235 2800.3 547.493 2794.88 617.591 2783.78 614.926 2772.68 612.261 2764.56 598.667 2742.64 563.485 2742.91 563.485 2726.94 513.643 2770.52 467Z" fill="#E37828" fill-rule="evenodd"/></g><g id="change2_1"><path d="M2594 537.059C2594 537.059 2702.63 523.426 2754 537.059L2754 594 2596.68 594 2594 537.059Z" fill="#983E0A" fill-opacity=".6" fill-rule="evenodd"/></g><g id="change2_2"><path d="M2643.07 550.374C2643.07 550.374 2621.52 517.772 2626.84 512.427 2632.17 507.083 2691.5 493.454 2713.05 509.755 2713.05 509.755 2715.71 523.384 2699.48 547.701 2699.48 547.701 2731.94 618.25 2726.35 623.594 2721.03 628.939 2631.9 645.24 2629.24 628.939 2626.58 612.638 2643.07 550.374 2643.07 550.374Z" fill="#983E0A" fill-rule="evenodd"/></g><g id="change3_1"><path d="M2629.71 439C2629.71 439 2591.7 455.263 2575.37 503.786 2559.04 552.308 2561.72 576.836 2567.34 582.168 2572.7 587.5 2587.69 598.697 2600 571.237 2600 571.237 2609.64 560.839 2612.31 552.841 2614.99 544.843 2616.33 563.239 2597.32 549.908L2610.97 493.121C2610.97 493.121 2703.32 449.931 2706 439L2629.71 439Z" fill="#FFDABB" fill-rule="evenodd"/></g><g id="change1_3"><path d="M2637.79 556.959C2637.79 556.959 2672.98 540.967 2708.17 551.716 2708.17 551.716 2710.83 562.464 2705.5 562.464 2705.5 562.464 2713.5 570.329 2708.17 573.213 2708.17 573.213 2672.98 573.213 2664.98 575.835 2656.99 578.457 2651.39 575.835 2643.39 575.835 2635.39 575.835 2635.39 567.97 2640.72 567.97 2640.72 567.446 2632.46 564.824 2637.79 556.959Z" fill="#E37828" fill-opacity=".6" fill-rule="evenodd"/></g><g id="change3_2"><path d="M2579.12 352.582C2579.12 352.582 2557.9 344.168 2553.54 366.153 2549.19 388.138 2572.04 402.523 2584.01 393.023L2590 382.166 2579.12 352.582Z" fill="#FFDABB" fill-rule="evenodd"/></g><g id="change3_3"><path d="M2782.59 352.582C2782.59 352.582 2803.24 344.168 2807.47 366.153 2811.71 388.138 2789.47 402.523 2777.82 393.023L2772 382.166 2782.59 352.582Z" fill="#FFDABB" fill-rule="evenodd"/></g><g id="change3_4"><path d="M2776.23 258.752C2744.95 216.127 2680 210 2680 210 2680 210 2615.05 216.127 2583.77 258.752 2566.13 282.729 2555.98 324.554 2580.83 385.561 2580.83 385.561 2542.88 446.568 2680 444.969 2817.12 446.568 2779.17 385.561 2779.17 385.561 2804.02 324.554 2793.87 282.995 2776.23 258.752Z" fill="#FFDABB" fill-rule="evenodd"/></g><g id="change4_1"><path d="M2645 314.926C2645 314.926 2645 323 2641.84 323 2638.69 323 2606.09 318.051 2601.09 318.051 2596.1 318.051 2596.36 306.851 2645 314.926Z" fill="#A5A5A5" fill-rule="evenodd"/></g><g id="change4_2"><path d="M2713 314.896C2713 314.896 2713 323 2716.15 323 2719.31 323 2751.88 318.033 2756.87 318.033 2761.87 318.295 2761.87 306.793 2713 314.896Z" fill="#A5A5A5" fill-rule="evenodd"/></g><path d="M2663 414C2663 414 2678.14 425.251 2693 414" fill="none" stroke="#534741" stroke-linecap="round" stroke-linejoin="round" stroke-miterlimit="10" stroke-width="5.729"/><g id="change4_3"><path d="M2679.16 262.992C2642.79 262.992 2616.32 236.576 2593.06 262.992 2569.79 289.408 2584.77 322.495 2584.77 322.495 2569.79 339.038 2580.76 386 2580.76 386 2555.89 324.896 2566.32 272.331 2583.7 248.317 2614.98 205.624 2679.96 210.16 2679.96 210.16 2679.96 210.16 2744.93 205.357 2776.22 248.317 2793.87 272.331 2804.03 325.163 2779.16 386 2779.16 386 2786.65 339.038 2773.28 322.495 2773.28 322.495 2790.66 285.406 2768.2 262.992 2738.78 233.108 2715.52 262.992 2679.16 262.992Z" fill="#A5A5A5" fill-rule="evenodd"/></g><path d="M2607.5 361.5C2607.5 361.5 2619.21 370.5 2640.5 361.5" fill="none" stroke="#534741" stroke-linecap="round" stroke-linejoin="round" stroke-miterlimit="10" stroke-width="11.458"/><path d="M2746.5 361.5C2746.5 361.5 2734.79 370.5 2713.5 361.5" fill="none" stroke="#534741" stroke-linecap="round" stroke-linejoin="round" stroke-miterlimit="10" stroke-width="11.458"/><g id="change3_5"><path d="M2580.61 546.476C2580.61 546.476 2591.25 543.005 2612.8 535.796 2634.35 528.586 2652.17 525.115 2652.17 517.906 2652.17 510.696 2659.36 460.497 2670 467.706L2670 532.324C2670 532.324 2666.54 546.743 2659.36 546.743 2659.36 546.743 2596.57 590 2580.61 590 2566.24 590 2562.78 557.691 2566.24 550.482 2569.97 543.005 2580.61 546.476 2580.61 546.476Z" fill="#FFDABB" fill-rule="evenodd"/></g><g id="change3_6"><path d="M2760.39 546.476C2760.39 546.476 2749.75 543.005 2728.2 535.796 2706.65 528.586 2688.83 525.115 2688.83 517.906 2688.83 510.696 2681.64 460.497 2671 467.706L2671 532.324C2671 532.324 2674.46 546.743 2681.64 546.743 2681.64 546.743 2744.43 590 2760.39 590 2774.76 590 2778.22 557.691 2774.76 550.482 2771.03 543.005 2760.39 546.476 2760.39 546.476Z" fill="#FFDABB" fill-rule="evenodd"/></g></g></svg>