<?xml version="1.0" encoding="UTF-8"?><svg xmlns="http://www.w3.org/2000/svg" xmlns:xlink="http://www.w3.org/1999/xlink" height="814.0" overflow="hidden" preserveAspectRatio="xMidYMid meet" version="1.0" viewBox="0.0 0.0 383.0 814.0" width="383.0" zoomAndPan="magnify"><defs><clipPath id="a"><path d="M1733 971H2116V1785H1733z"/></clipPath></defs><g clip-path="url(#a)" transform="translate(-1733 -971)"><g id="change1_1"><path d="M1770.86 1420.53 1803.48 1481 1844 1420.53 1808.68 1393 1764 1393Z" fill="#FFDABB" fill-rule="evenodd"/></g><g id="change1_2"><path d="M2009.66 1342.8C2009.66 1342.8 2050.76 1296.99 2050.76 1283.33 2050.76 1283.33 2046.14 1265.05 2059.98 1255.81 2059.98 1255.81 2069.21 1210 2078.22 1210 2087.24 1210 2087.45 1223.66 2082.84 1241.94 2082.84 1241.94 2092.06 1232.69 2096.47 1251.18 2096.47 1251.18 2105.69 1246.56 2110.1 1264.84 2110.1 1264.84 2119.32 1264.84 2114.71 1278.5 2110.1 1292.16 2098.77 1289.85 2098.77 1289.85 2098.77 1289.85 2101.08 1305.82 2078.22 1305.82 2078.22 1305.82 2055.37 1406.47 2028.11 1401.85 2000.64 1397.22 1978 1351.63 1978 1351.63L2009.66 1342.8Z" fill="#FFDABB" fill-rule="evenodd"/></g><g id="change1_3"><path d="M2096.48 1251C2096.48 1251 2101.09 1264.72 2082.85 1274 2082.85 1274 2082.85 1246.36 2060 1255.64" fill="#FFDABB" fill-rule="evenodd"/></g><g id="change1_4"><path d="M2091.58 1282C2091.58 1282 2087.49 1287.51 2101 1292" fill="#FFDABB" fill-rule="evenodd"/></g><g id="change1_5"><path d="M2069 1292C2069 1292 2078.2 1287.47 2069 1274.07 2069 1274.07 2075.9 1285.2 2082.6 1274.07 2096.19 1296.53 2110 1265 2110 1265" fill="#FFDABB" fill-rule="evenodd"/></g><g id="change1_6"><path d="M2037 1358.01C2037 1358.01 1985.16 1249.33 1953.06 1244.74 1920.95 1240.15 1921.16 1222 1921.16 1222L1871 1222 1905.63 1382 2037 1358.01Z" fill="#FFDABB" fill-rule="evenodd"/></g><g id="change2_1"><path d="M1961.1 1769C1961.1 1769 1966.34 1777.85 1959.42 1781.3 1952.5 1784.75 1902.56 1788.86 1904.03 1777.85 1905.71 1765.33 1910.96 1770.73 1910.96 1770.73L1961.1 1769Z" fill="#534741" fill-rule="evenodd"/></g><g id="change2_2"><path d="M1829.9 1769C1829.9 1769 1824.66 1777.85 1831.58 1781.3 1838.51 1784.75 1888.44 1788.86 1886.97 1777.85 1885.29 1765.33 1880.04 1770.73 1880.04 1770.73L1829.9 1769Z" fill="#534741" fill-rule="evenodd"/></g><g id="change1_7"><path d="M1840.59 1679C1840.59 1679 1844.6 1731.04 1844.6 1735.01 1844.6 1735.01 1820.31 1771.16 1832.35 1775.13 1844.6 1779.1 1886.84 1779.94 1884.94 1771.16 1880.93 1751.1 1872.69 1735.01 1872.69 1735.01L1876.7 1679 1840.59 1679Z" fill="#FFDABB" fill-rule="evenodd"/></g><g id="change1_8"><path d="M1949.62 1679C1949.62 1679 1945.68 1731.04 1945.68 1735.01 1945.68 1735.01 1969.53 1771.16 1957.71 1775.13 1945.68 1779.1 1904.19 1779.94 1906.06 1771.16 1910 1751.1 1918.09 1735.01 1918.09 1735.01L1914.15 1679 1949.62 1679Z" fill="#FFDABB" fill-rule="evenodd"/></g><g id="change3_1"><path d="M1860.55 1225C1860.55 1225 1812.61 1233.59 1788.54 1243.87 1764.47 1254.14 1736.84 1295.64 1733.28 1354.54 1729.72 1413.44 1760.91 1433.99 1760.91 1433.99 1760.91 1433.99 1769.49 1418.47 1773.05 1414.91 1776.4 1411.56 1804.03 1394.16 1807.59 1401.08 1810.94 1407.99 1790.43 1470.25 1790.43 1667.08 1790.43 1667.08 1885.25 1727.65 1997.44 1667.08 1997.44 1667.08 2007.7 1538.58 1997.44 1455.99L1980.28 1304.23 1860.55 1225Z" fill="#E37828" fill-rule="evenodd"/></g><path d="M1946.79 1392.47C1946.79 1392.47 1908.99 1275.11 1860.74 1227 1860.74 1227 1799.76 1230.97 1777 1251.48 1777 1251.48 1837.56 1353.77 1847.38 1402.51 1847.38 1402.51 1822.94 1547.9 1843.41 1565.06 1864.09 1582.21 1943.65 1577.4 1952.42 1571.96 1964.12 1565.06 1970.8 1437.45 1946.79 1392.47Z" fill="none" stroke="#983E0A" stroke-miterlimit="8" stroke-opacity=".702" stroke-width="5.729"/><g id="change4_1"><path d="M1992.06 1390.83C1992.06 1390.83 1867.59 1375.47 1808.3 1390.83L1798 1455 1999 1451.63 1992.06 1390.83Z" fill="#983E0A" fill-opacity=".6" fill-rule="evenodd"/></g><g id="change4_2"><path d="M1933.83 1406.17C1933.83 1406.17 1958.09 1369.82 1952.03 1363.76 1945.96 1357.7 1879.01 1342.45 1854.75 1360.63 1854.75 1360.63 1851.61 1375.88 1870.02 1403.04 1870.02 1403.04 1833.62 1482.01 1839.68 1488.07 1845.75 1494.13 1945.96 1512.31 1949.1 1494.13 1952.03 1475.95 1933.83 1406.17 1933.83 1406.17Z" fill="#983E0A" fill-rule="evenodd"/></g><g id="change3_2"><path d="M1933.21 1403.56C1933.21 1403.56 1899.49 1384.79 1865.76 1397.3 1865.76 1397.3 1863.09 1409.81 1868.44 1409.81 1868.44 1409.81 1860.59 1419.31 1865.76 1422.33 1865.76 1422.33 1899.49 1422.33 1907.16 1425.56 1915.01 1428.8 1920.18 1425.56 1927.86 1425.56 1935.71 1425.56 1935.71 1416.07 1930.53 1416.07 1930.71 1416.07 1938.38 1413.05 1933.21 1403.56Z" fill="#E37828" fill-opacity=".6" fill-rule="evenodd"/></g><path d="M1883 1759.81C1883 1759.81 1866.87 1765.69 1864.77 1774 1864.77 1774 1854.51 1756.97 1830 1759.2" fill="none" stroke="#534741" stroke-linecap="round" stroke-linejoin="round" stroke-miterlimit="10" stroke-width="5.729"/><path d="M1907 1759.81C1907 1759.81 1923.13 1765.69 1925.23 1774 1925.23 1774 1935.49 1756.97 1960 1759.2" fill="none" stroke="#534741" stroke-linecap="round" stroke-linejoin="round" stroke-miterlimit="10" stroke-width="5.729"/><g id="change1_9"><path d="M2006.2 1131.75C2006.2 1131.75 2029.56 1122.45 2034.4 1146.74 2039.24 1171.02 2013.78 1187.28 2000.73 1176.72L1994 1164.48 2006.2 1131.75Z" fill="#FFDABB" fill-rule="evenodd"/></g><g id="change1_10"><path d="M1777.8 1131.75C1777.8 1131.75 1754.44 1122.45 1749.6 1146.74 1744.76 1171.02 1770.22 1187.28 1783.27 1176.72L1790 1164.48 1777.8 1131.75Z" fill="#FFDABB" fill-rule="evenodd"/></g><g id="change1_11"><path d="M1784.88 1026.76C1819.78 978.897 1892.5 972 1892.5 972 1892.5 972 1965.22 978.897 2000.12 1026.76 2019.76 1053.72 2031.25 1100.74 2003.46 1169.29 2003.46 1169.29 2046.09 1237.84 1892.5 1235.96 1738.91 1237.84 1781.54 1169.29 1781.54 1169.29 1753.75 1100.53 1765.24 1053.72 1784.88 1026.76Z" fill="#FFDABB" fill-rule="evenodd"/></g><g id="change5_1"><path d="M1932 1089.43C1932 1089.43 1932 1099 1935.74 1099 1939.47 1099 1976.22 1093.13 1981.62 1093.13 1987.22 1093.35 1987.22 1079.87 1932 1089.43Z" fill="#A5A5A5" fill-rule="evenodd"/></g><g id="change5_2"><path d="M1856 1089.43C1856 1089.43 1856 1099 1852.26 1099 1848.53 1099 1811.78 1093.13 1806.38 1093.13 1800.78 1093.35 1800.78 1079.87 1856 1089.43Z" fill="#A5A5A5" fill-rule="evenodd"/></g><path d="M1911 1201C1911 1201 1894.4 1212.25 1878 1201" fill="none" stroke="#534741" stroke-linecap="round" stroke-linejoin="round" stroke-miterlimit="10" stroke-width="5.729"/><g id="change5_3"><path d="M1893.84 1030.69C1934.75 1030.69 1964.54 1000.93 1990.55 1030.69 2016.56 1060.44 1999.78 1097.54 1999.78 1097.54 2016.56 1116.19 2004.4 1169 2004.4 1169 2032.3 1100.26 2020.76 1041.16 2001.04 1013.92 1966.01 965.929 1893 971.168 1893 971.168 1893 971.168 1819.99 965.929 1784.96 1013.92 1765.24 1040.95 1753.7 1100.26 1781.6 1169 1781.6 1169 1773.21 1116.19 1788.11 1097.54 1788.11 1097.54 1768.6 1055.83 1793.77 1030.69 1826.92 997.364 1852.93 1030.69 1893.84 1030.69Z" fill="#A5A5A5" fill-rule="evenodd"/></g><g id="change2_3"><path d="M1838 1138C1838 1146.28 1834.19 1153 1829.5 1153 1824.81 1153 1821 1146.28 1821 1138 1821 1129.72 1824.81 1123 1829.5 1123 1834.19 1123 1838 1129.72 1838 1138Z" fill="#534741" fill-rule="evenodd"/></g><g id="change2_4"><path d="M1965 1138C1965 1146.28 1961.19 1153 1956.5 1153 1951.81 1153 1948 1146.28 1948 1138 1948 1129.72 1951.81 1123 1956.5 1123 1961.19 1123 1965 1129.72 1965 1138Z" fill="#534741" fill-rule="evenodd"/></g></g></svg>