<?xml version="1.0" encoding="UTF-8"?><svg xmlns="http://www.w3.org/2000/svg" xmlns:xlink="http://www.w3.org/1999/xlink" height="145.0" overflow="hidden" preserveAspectRatio="xMidYMid meet" version="1.0" viewBox="0.0 0.0 452.0 145.0" width="452.0" zoomAndPan="magnify"><defs><clipPath id="a"><path d="M743 1265H1195V1410H743z"/></clipPath></defs><g clip-path="url(#a)" id="change1_1" transform="translate(-743 -1265)"><path d="M801.84 1271.63C801.84 1271.63 863.355 1258.28 922.195 1282.31 981.035 1306.33 989.059 1276.97 1047.9 1268.96 1106.74 1260.95 1088.02 1266.29 1112.09 1274.3 1136.16 1282.31 1146.86 1335.69 1170.93 1370.38 1195 1405.08 1195 1405.08 1195 1405.08 1195 1405.08 1173.6 1389.06 1112.09 1405.08 1050.57 1421.09 927.544 1391.73 858.006 1405.08 813.073 1413.62 743 1394.4 743 1394.4L801.84 1271.63Z" fill="#A87D55" fill-rule="evenodd"/></g></svg>