<?xml version="1.0" encoding="UTF-8"?><svg xmlns="http://www.w3.org/2000/svg" xmlns:xlink="http://www.w3.org/1999/xlink" height="75.9" preserveAspectRatio="xMidYMid meet" version="1.0" viewBox="0.0 -0.1 88.2 75.9" width="88.2" zoomAndPan="magnify"><defs><clipPath id="a"><path d="M 85 74 L 88.160156 74 L 88.160156 75.78125 L 85 75.78125 Z M 85 74"/></clipPath><clipPath id="b"><path d="M 0 74 L 84 74 L 84 75.78125 L 0 75.78125 Z M 0 74"/></clipPath><clipPath id="c"><path d="M 14 71 L 74 71 L 74 75.78125 L 14 75.78125 Z M 14 71"/></clipPath><clipPath id="d"><path d="M 13 70 L 75 70 L 75 75.78125 L 13 75.78125 Z M 13 70"/></clipPath><clipPath id="e"><path d="M 6 57 L 8 57 L 8 75.78125 L 6 75.78125 Z M 6 57"/></clipPath><clipPath id="f"><path d="M 80 57 L 82 57 L 82 75.78125 L 80 75.78125 Z M 80 57"/></clipPath></defs><g><g clip-path="url(#a)"><path d="M 87.609375 75.707031 L 85.742188 75.707031 C 85.394531 75.660156 85.152344 75.34375 85.195312 75 C 85.230469 74.714844 85.457031 74.492188 85.742188 74.457031 L 87.609375 74.457031 C 87.957031 74.5 88.199219 74.8125 88.15625 75.160156 C 88.121094 75.445312 87.898438 75.667969 87.609375 75.707031" fill="#3d1e04"/></g><g clip-path="url(#b)"><path d="M 82.609375 75.773438 L 0.550781 75.773438 C 0.207031 75.730469 -0.0390625 75.414062 0.00390625 75.070312 C 0.0429688 74.785156 0.265625 74.558594 0.550781 74.523438 L 82.609375 74.523438 C 82.957031 74.480469 83.273438 74.726562 83.316406 75.070312 C 83.359375 75.414062 83.113281 75.730469 82.769531 75.773438 L 82.609375 75.773438" fill="#3d1e04"/></g><g clip-path="url(#c)"><path d="M 17.851562 71.515625 L 70.3125 71.515625 C 72.320312 71.515625 73.953125 73.144531 73.953125 75.15625 L 14.210938 75.15625 C 14.210938 73.144531 15.839844 71.515625 17.851562 71.515625" fill="#ae7c5b"/></g><g><path d="M 15.308594 74.523438 L 14.902344 74.523438 C 15.191406 73.132812 16.417969 72.132812 17.839844 72.132812 C 17.84375 72.132812 17.847656 72.132812 17.851562 72.136719 L 70.261719 72.136719 C 70.28125 72.132812 70.300781 72.132812 70.324219 72.132812 C 71.265625 72.132812 72.121094 72.570312 72.675781 73.273438 C 72.132812 72.964844 71.511719 72.792969 70.871094 72.792969 L 18.410156 72.792969 C 17.128906 72.792969 15.964844 73.464844 15.308594 74.523438" fill="#d7bead"/></g><g><path d="M 18.0625 55.625 L 70.089844 55.625 C 71.097656 55.625 71.910156 56.4375 71.910156 57.445312 C 71.910156 58.449219 71.097656 59.265625 70.089844 59.265625 L 18.0625 59.265625 C 17.054688 59.265625 16.242188 58.449219 16.242188 57.445312 C 16.242188 56.4375 17.054688 55.625 18.0625 55.625" fill="#ae7c5b"/></g><g><path d="M 17.453125 57.714844 C 17.21875 57.714844 16.992188 57.667969 16.777344 57.582031 C 16.769531 57.503906 16.769531 57.421875 16.777344 57.339844 C 16.832031 56.71875 17.355469 56.25 17.96875 56.25 C 18.007812 56.25 18.042969 56.25 18.082031 56.253906 L 67.261719 56.253906 C 67.269531 56.253906 67.28125 56.253906 67.292969 56.253906 C 67.300781 56.253906 67.3125 56.253906 67.324219 56.253906 L 70.300781 56.253906 C 70.628906 56.285156 70.914062 56.445312 71.113281 56.683594 C 71.078125 56.753906 71.039062 56.820312 71 56.886719 L 19.050781 56.886719 C 18.414062 56.886719 17.859375 57.21875 17.539062 57.714844 L 17.472656 57.714844 C 17.464844 57.714844 17.457031 57.714844 17.453125 57.714844" fill="#d7bead"/></g><g><path d="M 70.191406 58.648438 C 70.15625 58.648438 70.117188 58.648438 70.082031 58.644531 L 17.863281 58.644531 C 17.640625 58.625 17.4375 58.546875 17.269531 58.425781 C 17.308594 58.164062 17.402344 57.925781 17.539062 57.714844 L 69.46875 57.714844 C 70.109375 57.714844 70.675781 57.382812 71 56.886719 L 71.082031 56.886719 C 71.085938 56.882812 71.09375 56.882812 71.101562 56.882812 C 71.152344 56.882812 71.203125 56.886719 71.253906 56.890625 C 71.355469 57.089844 71.40625 57.320312 71.386719 57.558594 C 71.328125 58.183594 70.804688 58.648438 70.191406 58.648438" fill="#8b6349"/></g><g><path d="M 17.269531 58.425781 C 17 58.226562 16.816406 57.921875 16.777344 57.582031 C 16.992188 57.667969 17.21875 57.714844 17.453125 57.714844 C 17.457031 57.714844 17.464844 57.714844 17.472656 57.714844 L 17.539062 57.714844 C 17.402344 57.925781 17.308594 58.164062 17.269531 58.425781 M 71.253906 56.890625 C 71.203125 56.886719 71.152344 56.882812 71.101562 56.882812 C 71.09375 56.882812 71.085938 56.882812 71.082031 56.886719 L 71 56.886719 C 71.039062 56.820312 71.078125 56.753906 71.113281 56.683594 C 71.164062 56.746094 71.214844 56.816406 71.253906 56.890625" fill="#ac988a"/></g><g><path d="M 66.632812 62.90625 L 21.53125 62.90625 L 18.890625 67.863281 L 69.273438 67.863281 L 66.632812 62.90625" fill="#ae7c5b"/></g><g><path d="M 69.273438 67.863281 L 20.910156 67.863281 C 21.207031 67.316406 21.570312 66.820312 21.988281 66.386719 L 66.78125 66.386719 L 65.691406 64.335938 L 67.390625 64.335938 L 66.632812 62.90625 L 65.320312 62.90625 L 66.632812 62.90625 L 69.273438 67.863281 M 18.910156 67.863281 L 18.890625 67.863281 L 19.679688 66.386719 L 19.695312 66.386719 L 18.910156 67.863281" fill="#8b6349"/></g><g><path d="M 21.988281 66.386719 L 19.695312 66.386719 L 21.53125 62.90625 L 64.929688 62.90625 L 65.691406 64.335938 L 26.8125 64.335938 C 26.808594 64.335938 26.808594 64.335938 26.808594 64.335938 C 24.964844 64.335938 23.230469 65.09375 21.988281 66.386719" fill="#d7bead"/></g><g><path d="M 20.910156 67.863281 L 18.910156 67.863281 L 19.695312 66.386719 L 21.988281 66.386719 C 21.570312 66.820312 21.207031 67.316406 20.910156 67.863281 M 67.390625 64.335938 L 65.691406 64.335938 L 64.929688 62.90625 L 66.632812 62.90625 L 67.390625 64.335938" fill="#c5b1a4"/></g><g clip-path="url(#d)"><path d="M 14.953125 74.523438 L 73.261719 74.523438 C 72.96875 73.109375 71.707031 72.105469 70.261719 72.136719 L 17.851562 72.136719 C 16.425781 72.128906 15.191406 73.128906 14.902344 74.523438 L 14.953125 74.523438 M 73.953125 75.773438 L 14.210938 75.773438 C 13.867188 75.773438 13.585938 75.5 13.582031 75.15625 C 13.585938 72.796875 15.496094 70.890625 17.851562 70.886719 L 70.3125 70.886719 C 72.667969 70.890625 74.574219 72.796875 74.582031 75.15625 C 74.574219 75.5 74.292969 75.773438 73.953125 75.773438" fill="#3d1e04"/></g><g><path d="M 19.203125 59.265625 L 68.960938 59.265625 C 68.960938 61.273438 67.332031 62.90625 65.320312 62.90625 L 22.839844 62.90625 C 20.832031 62.90625 19.203125 61.273438 19.203125 59.265625" fill="#dfad8c"/></g><g><path d="M 65.320312 62.90625 L 22.839844 62.90625 C 21.042969 62.90625 19.554688 61.605469 19.253906 59.894531 L 19.308594 59.894531 C 19.351562 60.066406 19.40625 60.238281 19.472656 60.40625 L 20.246094 60.40625 C 20.921875 61.082031 21.847656 61.484375 22.839844 61.484375 L 65.320312 61.484375 C 66.3125 61.484375 67.242188 61.082031 67.914062 60.40625 L 68.691406 60.40625 C 68.757812 60.238281 68.8125 60.066406 68.855469 59.894531 L 68.90625 59.894531 C 68.609375 61.605469 67.117188 62.90625 65.320312 62.90625" fill="#b28a70"/></g><g><path d="M 67.914062 60.40625 L 20.246094 60.40625 C 20.09375 60.25 19.953125 60.078125 19.824219 59.894531 L 68.335938 59.894531 C 68.210938 60.078125 68.070312 60.25 67.914062 60.40625" fill="#efd6c6"/></g><g><path d="M 68.691406 60.40625 L 67.914062 60.40625 C 68.070312 60.25 68.210938 60.078125 68.335938 59.894531 L 68.855469 59.894531 C 68.8125 60.066406 68.757812 60.238281 68.691406 60.40625 M 20.246094 60.40625 L 19.472656 60.40625 C 19.40625 60.238281 19.351562 60.066406 19.308594 59.894531 L 19.824219 59.894531 C 19.953125 60.078125 20.09375 60.25 20.246094 60.40625" fill="#d9c5b8"/></g><g><path d="M 18.890625 67.863281 L 69.28125 67.863281 C 70.011719 67.863281 70.601562 68.457031 70.601562 69.183594 L 70.601562 70.183594 C 70.601562 70.914062 70.011719 71.503906 69.28125 71.503906 L 18.890625 71.503906 C 18.160156 71.503906 17.570312 70.914062 17.570312 70.183594 L 17.570312 69.183594 C 17.570312 68.457031 18.160156 67.863281 18.890625 67.863281" fill="#dfad8c"/></g><g><path d="M 70.445312 70.886719 C 70.429688 70.886719 70.414062 70.886719 70.398438 70.886719 C 70.496094 70.730469 70.5625 70.554688 70.589844 70.363281 C 70.578125 70.550781 70.527344 70.730469 70.445312 70.886719 M 17.734375 70.886719 C 17.675781 70.773438 17.636719 70.652344 17.613281 70.523438 C 17.644531 70.652344 17.699219 70.773438 17.765625 70.886719 C 17.757812 70.886719 17.746094 70.886719 17.734375 70.886719" fill="#ccc"/></g><g><path d="M 69.273438 71.605469 L 18.910156 71.605469 C 18.398438 71.605469 17.953125 71.3125 17.734375 70.886719 C 17.746094 70.886719 17.757812 70.886719 17.765625 70.886719 C 17.996094 71.257812 18.402344 71.507812 18.871094 71.515625 L 18.871094 71.503906 C 18.878906 71.503906 18.882812 71.503906 18.890625 71.503906 L 69.28125 71.503906 C 69.753906 71.503906 70.164062 71.257812 70.398438 70.886719 C 70.414062 70.886719 70.429688 70.886719 70.445312 70.886719 C 70.226562 71.3125 69.78125 71.605469 69.273438 71.605469" fill="#311803"/></g><g><path d="M 70.59375 69.039062 C 70.589844 69.03125 70.589844 69.019531 70.589844 69.011719 C 70.589844 69.007812 70.589844 69.007812 70.589844 69.003906 C 70.589844 69.015625 70.59375 69.027344 70.59375 69.039062" fill="#ccc"/></g><g><path d="M 69.28125 71.503906 L 18.890625 71.503906 C 18.882812 71.503906 18.878906 71.503906 18.871094 71.503906 L 18.871094 70.496094 C 18.871094 70.320312 18.90625 70.15625 18.964844 70.003906 L 69.273438 70.003906 C 69.285156 70.003906 69.296875 70.003906 69.3125 70.003906 C 69.855469 70.003906 70.339844 69.671875 70.535156 69.175781 L 70.589844 69.175781 C 70.589844 69.128906 70.585938 69.082031 70.582031 69.035156 C 70.585938 69.027344 70.585938 69.019531 70.589844 69.011719 C 70.589844 69.019531 70.589844 69.03125 70.59375 69.039062 C 70.597656 69.121094 70.59375 69.203125 70.589844 69.285156 L 70.589844 70.285156 C 70.589844 70.3125 70.589844 70.335938 70.589844 70.363281 C 70.5625 70.554688 70.496094 70.730469 70.398438 70.886719 C 70.164062 71.257812 69.753906 71.503906 69.28125 71.503906" fill="#b28a70"/></g><g><path d="M 17.613281 70.523438 C 17.585938 70.417969 17.570312 70.308594 17.570312 70.195312 L 17.570312 70.183594 C 17.570312 70.289062 17.582031 70.390625 17.605469 70.488281 C 17.609375 70.5 17.609375 70.511719 17.613281 70.523438" fill="#fff"/></g><g><path d="M 17.605469 70.488281 C 17.582031 70.390625 17.570312 70.289062 17.570312 70.183594 L 17.570312 69.195312 C 17.570312 68.464844 18.160156 67.871094 18.890625 67.863281 L 69.273438 67.863281 C 69.949219 67.863281 70.507812 68.375 70.582031 69.035156 C 70.570312 69.082031 70.554688 69.128906 70.535156 69.175781 L 20.191406 69.175781 C 19.636719 69.175781 19.160156 69.519531 18.964844 70.003906 L 18.890625 70.003906 C 18.886719 70.003906 18.878906 70.003906 18.871094 70.003906 C 18.265625 70.003906 17.738281 69.59375 17.589844 69.003906 C 17.585938 69.097656 17.585938 69.191406 17.589844 69.285156 L 17.589844 70.285156 C 17.589844 70.355469 17.597656 70.421875 17.605469 70.488281" fill="#efd6c6"/></g><g><path d="M 17.765625 70.886719 C 17.699219 70.773438 17.644531 70.652344 17.613281 70.523438 C 17.609375 70.511719 17.609375 70.5 17.605469 70.488281 C 17.640625 70.632812 17.695312 70.765625 17.773438 70.886719 C 17.769531 70.886719 17.769531 70.886719 17.765625 70.886719" fill="#e6e6e6"/></g><g><path d="M 18.871094 71.515625 C 18.402344 71.507812 17.996094 71.257812 17.765625 70.886719 C 17.769531 70.886719 17.769531 70.886719 17.773438 70.886719 C 18.003906 71.253906 18.40625 71.496094 18.871094 71.503906 L 18.871094 71.515625" fill="#988c81"/></g><g><path d="M 18.871094 71.503906 C 18.40625 71.496094 18.003906 71.253906 17.773438 70.886719 C 17.695312 70.765625 17.640625 70.632812 17.605469 70.488281 C 17.597656 70.421875 17.589844 70.355469 17.589844 70.285156 L 17.589844 69.285156 C 17.585938 69.191406 17.585938 69.097656 17.589844 69.003906 C 17.738281 69.59375 18.265625 70.003906 18.871094 70.003906 C 18.878906 70.003906 18.886719 70.003906 18.890625 70.003906 L 18.964844 70.003906 C 18.90625 70.15625 18.871094 70.320312 18.871094 70.496094 L 18.871094 71.503906 M 70.589844 69.175781 L 70.535156 69.175781 C 70.554688 69.128906 70.570312 69.082031 70.582031 69.035156 C 70.585938 69.082031 70.589844 69.128906 70.589844 69.175781" fill="#d9c5b8"/></g><g><path d="M 19.890625 59.894531 C 20.183594 61.308594 21.445312 62.316406 22.890625 62.285156 L 65.320312 62.285156 C 66.765625 62.316406 68.027344 61.308594 68.320312 59.894531 Z M 65.320312 63.535156 L 22.839844 63.535156 C 20.484375 63.527344 18.578125 61.621094 18.570312 59.265625 C 18.578125 58.921875 18.855469 58.644531 19.203125 58.644531 L 68.960938 58.644531 C 69.304688 58.644531 69.585938 58.921875 69.589844 59.265625 C 69.585938 61.621094 67.675781 63.527344 65.320312 63.535156" fill="#3d1e04"/></g><g><path d="M 18.890625 68.496094 C 18.503906 68.496094 18.191406 68.808594 18.191406 69.195312 L 18.191406 70.195312 C 18.191406 70.578125 18.5 70.886719 18.882812 70.886719 L 69.273438 70.886719 C 69.652344 70.890625 69.964844 70.585938 69.96875 70.207031 L 69.96875 69.195312 C 69.96875 68.808594 69.65625 68.496094 69.273438 68.496094 Z M 69.273438 72.136719 L 18.890625 72.136719 C 17.820312 72.140625 16.945312 71.277344 16.941406 70.207031 L 16.941406 69.195312 C 16.941406 68.109375 17.804688 67.222656 18.890625 67.195312 L 69.273438 67.195312 C 70.375 67.195312 71.273438 68.089844 71.273438 69.195312 L 71.273438 70.195312 C 71.273438 71.265625 70.402344 72.136719 69.332031 72.136719 L 69.273438 72.136719" fill="#3d1e04"/></g><g><path d="M 18.082031 56.253906 C 17.421875 56.195312 16.835938 56.679688 16.777344 57.339844 C 16.714844 58 17.203125 58.582031 17.863281 58.644531 L 70.082031 58.644531 C 70.742188 58.707031 71.324219 58.21875 71.386719 57.558594 C 71.445312 56.898438 70.960938 56.316406 70.300781 56.253906 L 18.082031 56.253906 M 70.082031 59.894531 L 18.082031 59.894531 C 16.730469 59.980469 15.566406 58.957031 15.480469 57.605469 C 15.394531 56.257812 16.417969 55.089844 17.769531 55.003906 C 17.871094 54.996094 17.976562 54.996094 18.082031 55.003906 L 70.082031 55.003906 C 71.429688 54.917969 72.59375 55.945312 72.683594 57.292969 C 72.769531 58.644531 71.742188 59.808594 70.394531 59.894531 C 70.289062 59.902344 70.183594 59.902344 70.082031 59.894531" fill="#3d1e04"/></g><g><path d="M 19.929688 67.246094 L 68.230469 67.246094 L 66.230469 63.535156 L 21.902344 63.535156 Z M 69.273438 68.496094 L 18.890625 68.496094 C 18.671875 68.492188 18.46875 68.382812 18.351562 68.195312 C 18.246094 68 18.246094 67.769531 18.351562 67.574219 L 21 62.574219 C 21.109375 62.371094 21.320312 62.242188 21.550781 62.246094 L 66.652344 62.246094 C 66.882812 62.242188 67.09375 62.371094 67.203125 62.574219 L 69.851562 67.574219 C 69.957031 67.769531 69.957031 68 69.851562 68.195312 C 69.726562 68.394531 69.503906 68.507812 69.273438 68.496094" fill="#3d1e04"/></g><g><path d="M 67.261719 55.625 L 20.902344 55.625 C 21.429688 54.746094 21.902344 53.925781 22.339844 53.15625 C 23.394531 51.335938 24.308594 49.445312 25.082031 47.496094 C 25.542969 46.328125 25.878906 45.113281 26.082031 43.875 C 26.5625 40.875 26.140625 38.003906 26.152344 32.726562 C 26.152344 31.664062 26.152344 30.496094 26.222656 29.214844 C 26.242188 28.710938 26.296875 28.210938 26.390625 27.714844 C 27.304688 23.066406 31.382812 19.710938 36.121094 19.714844 L 52.011719 19.714844 C 56.753906 19.703125 60.835938 23.058594 61.742188 27.714844 C 61.832031 28.210938 61.890625 28.710938 61.910156 29.214844 C 61.910156 30.496094 61.980469 31.65625 61.980469 32.726562 C 61.980469 38.003906 61.570312 40.855469 62.050781 43.875 C 62.253906 45.113281 62.589844 46.328125 63.050781 47.496094 C 64.226562 50.316406 65.632812 53.035156 67.261719 55.625" fill="#dfad8c"/></g><g><path d="M 43.648438 33.296875 C 43.628906 33.296875 43.609375 33.296875 43.589844 33.292969 C 43.585938 33.296875 43.582031 33.296875 43.582031 33.296875 C 43.417969 33.296875 43.265625 33.230469 43.152344 33.113281 L 40.332031 30.292969 C 40.085938 30.054688 40.078125 29.664062 40.316406 29.417969 L 40.332031 29.40625 L 43.152344 26.585938 C 43.273438 26.464844 43.433594 26.40625 43.589844 26.40625 C 43.75 26.40625 43.910156 26.464844 44.03125 26.585938 L 46.859375 29.40625 C 47.003906 29.550781 47.0625 29.75 47.035156 29.941406 L 44.082031 26.984375 L 40.726562 30.335938 L 43.6875 33.296875 C 43.675781 33.296875 43.664062 33.296875 43.648438 33.296875" fill="#efd6c6"/></g><g><path d="M 35.121094 33.296875 C 34.957031 33.296875 34.796875 33.230469 34.679688 33.113281 L 31.859375 30.292969 C 31.742188 30.175781 31.679688 30.011719 31.679688 29.84375 C 31.679688 29.679688 31.746094 29.523438 31.859375 29.40625 L 34.679688 26.585938 C 34.796875 26.46875 34.957031 26.40625 35.121094 26.40625 C 35.125 26.40625 35.128906 26.40625 35.128906 26.40625 C 35.132812 26.40625 35.132812 26.40625 35.132812 26.40625 C 35.296875 26.40625 35.453125 26.46875 35.570312 26.585938 L 38.390625 29.40625 C 38.507812 29.523438 38.570312 29.679688 38.570312 29.84375 C 38.570312 29.875 38.570312 29.902344 38.566406 29.929688 L 35.609375 26.984375 L 34.800781 27.792969 L 34.800781 27.796875 L 32.257812 30.335938 L 35.210938 33.289062 C 35.183594 33.292969 35.160156 33.292969 35.132812 33.292969 C 35.132812 33.292969 35.132812 33.292969 35.128906 33.292969 C 35.128906 33.296875 35.125 33.296875 35.121094 33.296875" fill="#efd6c6"/></g><g><path d="M 52.070312 33.296875 C 51.90625 33.296875 51.75 33.230469 51.632812 33.113281 L 48.8125 30.292969 C 48.691406 30.175781 48.628906 30.011719 48.632812 29.84375 C 48.628906 29.679688 48.695312 29.523438 48.8125 29.40625 L 51.632812 26.585938 C 51.75 26.46875 51.90625 26.40625 52.070312 26.40625 C 52.074219 26.40625 52.078125 26.40625 52.082031 26.40625 C 52.082031 26.40625 52.082031 26.40625 52.085938 26.40625 C 52.246094 26.40625 52.40625 26.46875 52.523438 26.585938 L 55.085938 29.148438 C 55.066406 29.25 55.042969 29.351562 55.023438 29.449219 L 52.558594 26.984375 L 52.554688 26.988281 L 52.550781 26.984375 L 51.730469 27.792969 L 51.738281 27.800781 L 49.207031 30.335938 L 51.738281 32.867188 L 51.730469 32.875 L 52.148438 33.292969 C 52.128906 33.292969 52.105469 33.292969 52.085938 33.292969 C 52.082031 33.292969 52.082031 33.292969 52.082031 33.292969 C 52.078125 33.296875 52.074219 33.296875 52.070312 33.296875" fill="#efd6c6"/></g><g><path d="M 42.230469 48.039062 L 40.332031 46.136719 C 40.089844 45.902344 40.082031 45.515625 40.3125 45.273438 L 43.152344 42.433594 C 43.269531 42.308594 43.429688 42.242188 43.589844 42.242188 C 43.738281 42.242188 43.882812 42.296875 44 42.402344 L 44.03125 42.433594 L 46.484375 44.878906 C 46.421875 44.9375 46.359375 44.992188 46.296875 45.046875 L 44.082031 42.832031 L 40.730469 46.183594 L 42.453125 47.90625 C 42.378906 47.949219 42.304688 47.996094 42.230469 48.039062" fill="#efd6c6"/></g><g><path d="M 35.089844 49.144531 C 34.941406 49.144531 34.796875 49.097656 34.679688 49.003906 L 31.859375 46.175781 C 31.621094 45.929688 31.621094 45.539062 31.859375 45.292969 L 34.679688 42.476562 C 34.800781 42.347656 34.964844 42.285156 35.125 42.285156 C 35.28125 42.285156 35.4375 42.34375 35.558594 42.460938 L 35.570312 42.476562 L 38.390625 45.292969 C 38.523438 45.429688 38.582031 45.609375 38.570312 45.78125 L 36.886719 44.105469 L 35.613281 42.832031 L 32.261719 46.183594 L 35.078125 49 L 35.21875 49.144531 C 35.199219 49.144531 35.179688 49.144531 35.160156 49.144531 C 35.152344 49.144531 35.140625 49.144531 35.128906 49.144531 C 35.117188 49.144531 35.105469 49.144531 35.089844 49.144531" fill="#efd6c6"/></g><g><path d="M 24.546875 47.265625 C 24.429688 47.101562 24.398438 46.886719 24.472656 46.695312 C 24.871094 45.644531 25.164062 44.5625 25.351562 43.457031 C 25.378906 43.332031 25.441406 43.214844 25.53125 43.125 L 25.617188 43.039062 C 25.589844 43.296875 25.5625 43.550781 25.53125 43.804688 C 25.320312 44.988281 24.992188 46.148438 24.546875 47.265625" fill="#fff"/></g><g><path d="M 30.105469 45.789062 L 27.984375 43.667969 C 27.988281 43.554688 27.992188 43.441406 27.996094 43.328125 L 29.921875 45.253906 C 30.074219 45.394531 30.136719 45.597656 30.105469 45.789062" fill="#efd6c6"/></g><g><path d="M 39.371094 41.214844 C 39.207031 41.214844 39.046875 41.148438 38.929688 41.035156 L 36.082031 38.214844 C 35.964844 38.09375 35.898438 37.933594 35.902344 37.765625 C 35.902344 37.601562 35.964844 37.441406 36.082031 37.324219 L 38.902344 34.503906 C 39.019531 34.390625 39.175781 34.324219 39.34375 34.324219 C 39.34375 34.324219 39.347656 34.324219 39.351562 34.324219 C 39.515625 34.324219 39.675781 34.390625 39.789062 34.503906 L 42.609375 37.324219 C 42.726562 37.441406 42.792969 37.601562 42.789062 37.765625 C 42.789062 37.785156 42.789062 37.804688 42.789062 37.824219 L 39.867188 34.902344 L 39.859375 34.90625 L 39.050781 35.714844 L 36.515625 38.253906 L 39.054688 40.792969 L 39.050781 40.792969 L 39.457031 41.207031 C 39.433594 41.210938 39.40625 41.214844 39.382812 41.214844 C 39.378906 41.214844 39.375 41.214844 39.371094 41.214844" fill="#efd6c6"/></g><g><path d="M 30.898438 41.214844 C 30.738281 41.214844 30.585938 41.148438 30.472656 41.035156 L 27.894531 38.457031 C 27.882812 38.03125 27.871094 37.582031 27.859375 37.113281 L 30.472656 34.503906 C 30.59375 34.386719 30.753906 34.324219 30.910156 34.324219 C 31.070312 34.324219 31.226562 34.386719 31.351562 34.503906 L 34.171875 37.324219 C 34.320312 37.46875 34.378906 37.667969 34.351562 37.855469 L 31.402344 34.90625 L 30.589844 35.714844 L 30.59375 35.71875 L 28.050781 38.261719 L 30.957031 41.164062 L 30.996094 41.207031 C 30.96875 41.210938 30.941406 41.214844 30.910156 41.214844 C 30.90625 41.214844 30.902344 41.214844 30.898438 41.214844" fill="#efd6c6"/></g><g><path d="M 47.828125 41.214844 C 47.667969 41.214844 47.515625 41.148438 47.402344 41.035156 L 44.582031 38.214844 C 44.335938 37.976562 44.328125 37.582031 44.566406 37.339844 L 47.402344 34.503906 C 47.523438 34.386719 47.683594 34.324219 47.839844 34.324219 C 48 34.324219 48.160156 34.386719 48.28125 34.503906 L 51.082031 37.324219 C 51.214844 37.464844 51.277344 37.652344 51.257812 37.832031 L 48.335938 34.90625 L 48.332031 34.90625 L 47.523438 35.714844 L 47.523438 35.71875 L 44.980469 38.257812 L 47.753906 41.03125 L 47.925781 41.207031 C 47.898438 41.210938 47.871094 41.214844 47.839844 41.214844 C 47.835938 41.214844 47.832031 41.214844 47.828125 41.214844" fill="#efd6c6"/></g><g><path d="M 66.160156 55.003906 L 24.210938 55.003906 C 24.5625 54.375 24.898438 53.742188 25.21875 53.097656 C 29.007812 52.855469 35.921875 51.871094 42.230469 48.039062 L 43.152344 48.964844 C 43.269531 49.078125 43.425781 49.144531 43.589844 49.144531 C 43.617188 49.148438 43.644531 49.148438 43.671875 49.148438 C 43.679688 49.148438 43.6875 49.148438 43.695312 49.148438 L 44.082031 49.535156 L 47.433594 46.183594 L 47.035156 45.785156 C 47.058594 45.597656 47.003906 45.398438 46.859375 45.253906 L 46.484375 44.878906 C 49.890625 41.800781 52.792969 37.582031 54.441406 31.804688 L 55.910156 30.335938 L 55.515625 29.941406 C 55.519531 29.910156 55.523438 29.878906 55.523438 29.84375 C 55.523438 29.679688 55.457031 29.523438 55.339844 29.40625 L 55.085938 29.148438 C 55.519531 27 55.792969 24.660156 55.875 22.109375 C 56.980469 22.367188 58.035156 22.8125 58.988281 23.425781 C 59.769531 24.300781 60.386719 25.328125 60.792969 26.464844 C 60.714844 26.425781 60.628906 26.40625 60.535156 26.40625 C 60.53125 26.40625 60.527344 26.40625 60.523438 26.40625 C 60.519531 26.40625 60.515625 26.40625 60.511719 26.40625 C 60.347656 26.40625 60.195312 26.46875 60.082031 26.585938 L 57.261719 29.40625 L 57.246094 29.417969 C 57.011719 29.664062 57.015625 30.054688 57.261719 30.292969 L 60.082031 33.113281 C 60.195312 33.230469 60.347656 33.296875 60.511719 33.296875 C 60.515625 33.296875 60.519531 33.296875 60.523438 33.292969 C 60.527344 33.296875 60.53125 33.296875 60.535156 33.296875 C 60.542969 33.296875 60.546875 33.296875 60.550781 33.292969 L 60.980469 33.726562 L 61 33.707031 L 61.011719 33.714844 L 61.390625 33.335938 C 61.378906 34.933594 61.300781 36.347656 61.300781 37.574219 C 61.175781 39.324219 61.195312 41.078125 61.347656 42.824219 L 60.960938 42.433594 C 60.847656 42.3125 60.691406 42.246094 60.523438 42.246094 C 60.355469 42.246094 60.195312 42.3125 60.082031 42.433594 L 57.261719 45.292969 L 57.226562 45.328125 C 57.003906 45.570312 57.019531 45.949219 57.261719 46.175781 L 60.082031 49.003906 C 60.195312 49.097656 60.339844 49.144531 60.484375 49.144531 C 60.496094 49.144531 60.507812 49.144531 60.523438 49.144531 C 60.535156 49.144531 60.550781 49.144531 60.5625 49.144531 C 60.59375 49.144531 60.625 49.144531 60.65625 49.140625 L 61.089844 49.574219 L 62.609375 48.058594 C 63.609375 50.460938 64.796875 52.785156 66.160156 55.003906 M 52.152344 49.140625 L 52.550781 49.535156 L 55.902344 46.183594 L 55.898438 46.179688 L 55.902344 46.179688 L 55.511719 45.789062 C 55.542969 45.601562 55.484375 45.402344 55.339844 45.253906 L 52.523438 42.433594 L 52.507812 42.421875 C 52.386719 42.304688 52.230469 42.246094 52.074219 42.246094 C 51.914062 42.246094 51.753906 42.308594 51.632812 42.433594 L 48.8125 45.253906 C 48.574219 45.5 48.574219 45.890625 48.8125 46.136719 L 51.632812 48.964844 C 51.753906 49.078125 51.914062 49.144531 52.082031 49.144531 C 52.085938 49.144531 52.089844 49.144531 52.09375 49.144531 C 52.113281 49.144531 52.132812 49.144531 52.152344 49.140625 M 56.390625 41.207031 L 56.800781 41.613281 L 60.152344 38.253906 L 60.152344 38.25 L 59.78125 37.878906 C 59.789062 37.84375 59.792969 37.804688 59.789062 37.765625 C 59.792969 37.601562 59.726562 37.441406 59.609375 37.324219 L 56.789062 34.503906 C 56.675781 34.390625 56.515625 34.324219 56.351562 34.324219 C 56.347656 34.324219 56.34375 34.324219 56.339844 34.324219 C 56.175781 34.324219 56.019531 34.390625 55.902344 34.503906 L 53.082031 37.324219 C 52.964844 37.441406 52.902344 37.601562 52.902344 37.765625 C 52.898438 37.933594 52.964844 38.09375 53.082031 38.214844 L 55.859375 41.035156 C 55.980469 41.148438 56.136719 41.214844 56.300781 41.214844 C 56.304688 41.214844 56.308594 41.214844 56.3125 41.214844 C 56.339844 41.214844 56.367188 41.210938 56.390625 41.207031" fill="#c89b7e"/></g><g><path d="M 55.515625 29.941406 L 55.023438 29.449219 C 55.042969 29.351562 55.066406 29.25 55.085938 29.148438 L 55.339844 29.40625 C 55.457031 29.523438 55.523438 29.679688 55.523438 29.84375 C 55.523438 29.878906 55.519531 29.910156 55.515625 29.941406" fill="#d7c0b2"/></g><g><path d="M 60.535156 33.296875 C 60.53125 33.296875 60.527344 33.296875 60.523438 33.292969 C 60.519531 33.296875 60.515625 33.296875 60.511719 33.296875 C 60.347656 33.296875 60.195312 33.230469 60.082031 33.113281 L 57.261719 30.292969 C 57.015625 30.054688 57.011719 29.664062 57.246094 29.417969 L 57.261719 29.40625 L 60.082031 26.585938 C 60.195312 26.46875 60.347656 26.40625 60.511719 26.40625 C 60.515625 26.40625 60.519531 26.40625 60.523438 26.40625 C 60.527344 26.40625 60.53125 26.40625 60.535156 26.40625 C 60.628906 26.40625 60.714844 26.425781 60.792969 26.464844 C 60.863281 26.652344 60.921875 26.84375 60.980469 27.035156 L 57.628906 30.363281 L 60.550781 33.292969 C 60.546875 33.296875 60.542969 33.296875 60.535156 33.296875" fill="#d7c0b2"/></g><g><path d="M 43.671875 49.148438 C 43.644531 49.148438 43.617188 49.148438 43.589844 49.144531 C 43.425781 49.144531 43.269531 49.078125 43.152344 48.964844 L 42.230469 48.039062 C 42.304688 47.996094 42.378906 47.949219 42.453125 47.90625 L 43.695312 49.148438 C 43.6875 49.148438 43.679688 49.148438 43.671875 49.148438 M 47.035156 45.785156 L 46.296875 45.046875 C 46.359375 44.992188 46.421875 44.9375 46.484375 44.878906 L 46.859375 45.253906 C 47.003906 45.398438 47.058594 45.597656 47.035156 45.785156" fill="#d7c0b2"/></g><g><path d="M 52.09375 49.144531 C 52.089844 49.144531 52.085938 49.144531 52.082031 49.144531 C 51.914062 49.144531 51.753906 49.078125 51.632812 48.964844 L 48.8125 46.136719 C 48.574219 45.890625 48.574219 45.5 48.8125 45.253906 L 51.632812 42.433594 C 51.753906 42.308594 51.914062 42.246094 52.074219 42.246094 C 52.230469 42.246094 52.386719 42.304688 52.507812 42.421875 L 52.523438 42.433594 L 55.339844 45.253906 C 55.484375 45.402344 55.542969 45.601562 55.511719 45.789062 L 52.550781 42.828125 L 51.742188 43.636719 L 51.730469 43.644531 L 49.199219 46.179688 L 51.738281 48.71875 L 51.730469 48.722656 L 52.152344 49.140625 C 52.132812 49.144531 52.113281 49.144531 52.09375 49.144531" fill="#d7c0b2"/></g><g><path d="M 60.5625 49.144531 C 60.550781 49.144531 60.535156 49.144531 60.523438 49.144531 C 60.507812 49.144531 60.496094 49.144531 60.484375 49.144531 C 60.339844 49.144531 60.195312 49.097656 60.082031 49.003906 L 57.261719 46.175781 C 57.019531 45.949219 57.003906 45.570312 57.226562 45.328125 L 57.261719 45.292969 L 60.082031 42.433594 C 60.195312 42.3125 60.355469 42.246094 60.523438 42.246094 C 60.691406 42.246094 60.847656 42.3125 60.960938 42.433594 L 61.347656 42.824219 C 61.355469 42.910156 61.363281 43 61.375 43.085938 L 61.082031 42.792969 L 57.730469 46.144531 L 60.316406 48.730469 L 60.28125 48.765625 L 60.65625 49.140625 C 60.625 49.144531 60.59375 49.144531 60.5625 49.144531" fill="#d7c0b2"/></g><g><path d="M 56.300781 41.214844 C 56.136719 41.214844 55.980469 41.148438 55.859375 41.035156 L 53.082031 38.214844 C 52.964844 38.09375 52.898438 37.933594 52.902344 37.765625 C 52.902344 37.601562 52.964844 37.441406 53.082031 37.324219 L 55.902344 34.503906 C 56.019531 34.390625 56.175781 34.324219 56.339844 34.324219 C 56.34375 34.324219 56.347656 34.324219 56.351562 34.324219 C 56.515625 34.324219 56.675781 34.390625 56.789062 34.503906 L 59.609375 37.324219 C 59.726562 37.441406 59.792969 37.601562 59.789062 37.765625 C 59.792969 37.804688 59.789062 37.84375 59.78125 37.878906 L 56.800781 34.898438 L 56.410156 35.289062 L 55.980469 35.714844 L 55.984375 35.71875 L 53.449219 38.25 L 55.988281 40.789062 L 55.980469 40.792969 L 56.390625 41.207031 C 56.367188 41.210938 56.339844 41.214844 56.3125 41.214844 C 56.308594 41.214844 56.304688 41.214844 56.300781 41.214844" fill="#d7c0b2"/></g><g><path d="M 23.089844 53.167969 C 23.988281 51.578125 24.800781 49.941406 25.519531 48.261719 L 26.222656 48.964844 C 26.339844 49.078125 26.496094 49.144531 26.660156 49.144531 C 26.667969 49.144531 26.671875 49.144531 26.675781 49.144531 C 26.703125 49.144531 26.730469 49.144531 26.753906 49.140625 L 26.902344 49.285156 C 26.859375 49.402344 26.816406 49.519531 26.769531 49.636719 C 26.300781 50.808594 25.785156 51.964844 25.21875 53.097656 C 24.316406 53.152344 23.589844 53.167969 23.089844 53.167969 M 27.996094 43.328125 L 27.070312 42.402344 C 27.019531 42.359375 26.96875 42.324219 26.910156 42.296875 C 27.039062 40.726562 27.050781 39.148438 26.953125 37.574219 C 26.871094 36.363281 26.863281 35 26.859375 33.40625 L 27.152344 33.695312 L 27.171875 33.714844 L 27.851562 33.03125 C 27.839844 33.671875 27.839844 34.28125 27.839844 34.863281 C 27.839844 35.667969 27.847656 36.414062 27.859375 37.113281 L 27.652344 37.324219 L 27.636719 37.339844 C 27.398438 37.582031 27.40625 37.976562 27.652344 38.214844 L 27.894531 38.457031 C 27.949219 40.363281 28.023438 41.910156 27.996094 43.328125 M 28.503906 28.335938 L 27.257812 27.089844 C 28.367188 23.132812 31.976562 20.335938 36.152344 20.316406 L 52.050781 20.316406 C 53.414062 20.316406 54.71875 20.609375 55.898438 21.148438 C 55.894531 21.472656 55.886719 21.792969 55.875 22.109375 C 55.15625 21.945312 54.417969 21.855469 53.671875 21.855469 L 37.800781 21.855469 C 37.796875 21.855469 37.792969 21.855469 37.789062 21.855469 C 33.589844 21.855469 29.910156 24.496094 28.503906 28.335938" fill="#efd6c6"/></g><g><path d="M 26.675781 49.144531 C 26.671875 49.144531 26.667969 49.144531 26.660156 49.144531 C 26.496094 49.144531 26.339844 49.078125 26.222656 48.964844 L 25.519531 48.261719 C 25.554688 48.175781 25.59375 48.09375 25.628906 48.011719 L 26.753906 49.140625 C 26.730469 49.144531 26.703125 49.144531 26.675781 49.144531 M 27.984375 43.667969 L 27.152344 42.835938 L 26.832031 43.152344 C 26.863281 42.867188 26.890625 42.582031 26.910156 42.296875 C 26.96875 42.324219 27.019531 42.359375 27.070312 42.402344 L 27.996094 43.328125 C 27.992188 43.441406 27.988281 43.554688 27.984375 43.667969" fill="#f7ebe3"/></g><g><path d="M 27.894531 38.457031 L 27.652344 38.214844 C 27.40625 37.976562 27.398438 37.582031 27.636719 37.339844 L 27.652344 37.324219 L 27.859375 37.113281 C 27.871094 37.582031 27.882812 38.03125 27.894531 38.457031" fill="#f7ebe3"/></g><g><path d="M 24.210938 55.003906 L 22 55.003906 C 22.378906 54.398438 22.742188 53.789062 23.089844 53.167969 C 23.589844 53.167969 24.316406 53.152344 25.21875 53.097656 C 24.898438 53.742188 24.5625 54.375 24.210938 55.003906 M 58.988281 23.425781 C 58.035156 22.8125 56.980469 22.367188 55.875 22.109375 C 55.886719 21.792969 55.894531 21.472656 55.898438 21.148438 C 57.078125 21.683594 58.132812 22.464844 58.988281 23.425781" fill="#e4cdbf"/></g><g><path d="M 22 55.003906 L 66.160156 55.003906 C 64.734375 52.683594 63.5 50.246094 62.46875 47.722656 C 62.007812 46.511719 61.671875 45.25 61.46875 43.964844 C 61.207031 41.84375 61.152344 39.707031 61.300781 37.574219 C 61.300781 36.195312 61.402344 34.574219 61.390625 32.726562 C 61.390625 31.574219 61.390625 30.433594 61.332031 29.234375 C 61.308594 28.765625 61.253906 28.296875 61.171875 27.835938 C 60.324219 23.46875 56.5 20.316406 52.050781 20.316406 L 36.152344 20.316406 C 31.722656 20.339844 27.925781 23.484375 27.082031 27.835938 C 26.996094 28.296875 26.945312 28.765625 26.921875 29.234375 C 26.921875 30.425781 26.859375 31.59375 26.859375 32.726562 C 26.859375 34.613281 26.859375 36.195312 26.953125 37.574219 C 27.085938 39.71875 27.015625 41.875 26.730469 44.003906 C 26.53125 45.289062 26.195312 46.550781 25.730469 47.765625 C 24.683594 50.273438 23.4375 52.695312 22 55.003906 M 67.261719 56.253906 L 20.902344 56.253906 C 20.675781 56.25 20.472656 56.128906 20.359375 55.933594 C 20.246094 55.738281 20.246094 55.5 20.359375 55.304688 C 21.972656 52.761719 23.367188 50.082031 24.53125 47.304688 C 24.984375 46.175781 25.320312 45.003906 25.53125 43.804688 C 25.78125 41.765625 25.835938 39.707031 25.691406 37.65625 C 25.691406 36.253906 25.589844 34.65625 25.601562 32.753906 C 25.601562 31.605469 25.601562 30.425781 25.671875 29.226562 C 25.6875 28.6875 25.746094 28.152344 25.851562 27.625 C 26.804688 22.667969 31.144531 19.089844 36.191406 19.09375 L 52.011719 19.09375 C 57.058594 19.089844 61.398438 22.667969 62.351562 27.625 C 62.457031 28.152344 62.515625 28.6875 62.53125 29.226562 C 62.53125 30.433594 62.601562 31.59375 62.601562 32.753906 C 62.601562 34.664062 62.601562 36.253906 62.511719 37.65625 C 62.363281 39.707031 62.417969 41.765625 62.671875 43.804688 C 62.882812 45.003906 63.21875 46.175781 63.671875 47.304688 C 64.835938 50.082031 66.230469 52.761719 67.839844 55.304688 C 67.957031 55.5 67.957031 55.738281 67.839844 55.933594 C 67.722656 56.144531 67.5 56.265625 67.261719 56.253906" fill="#3d1e04"/></g><g><path d="M 35.609375 19.683594 L 52.539062 19.683594 L 52.539062 16.34375 L 35.609375 16.34375 Z M 35.609375 19.683594" fill="#dfad8c"/></g><g><path d="M 35.609375 19.683594 L 35.609375 16.34375 L 52.539062 16.34375 L 51.652344 16.34375 L 51.503906 17.394531 L 36.8125 17.542969 L 36.65625 18.636719 L 35.609375 18.644531 L 35.609375 19.683594" fill="#efd6c6"/></g><g><path d="M 52.550781 19.109375 C 52.546875 19.109375 52.542969 19.109375 52.539062 19.109375 L 52.539062 17.386719 L 52.550781 17.386719 L 52.550781 16.34375 L 52.550781 19.109375" fill="#ccc"/></g><g><path d="M 52.550781 19.683594 L 35.609375 19.683594 L 52.539062 19.683594 L 52.539062 19.109375 C 52.542969 19.109375 52.546875 19.109375 52.550781 19.109375 L 52.550781 19.683594" fill="#311803"/></g><g><path d="M 52.539062 19.683594 L 36.511719 19.683594 L 36.65625 18.636719 L 51.351562 18.496094 L 51.503906 17.394531 L 52.539062 17.386719 L 52.539062 19.683594" fill="#b28a70"/></g><g><path d="M 52.539062 17.386719 L 52.550781 17.386719 L 52.550781 16.34375 L 52.539062 16.34375 Z M 52.539062 17.386719" fill="#ccc"/></g><g><path d="M 36.511719 19.683594 L 35.609375 19.683594 L 35.609375 18.644531 L 36.65625 18.636719 L 36.511719 19.683594 M 51.503906 17.394531 L 51.652344 16.34375 L 52.539062 16.34375 L 52.539062 17.386719 L 51.503906 17.394531" fill="#bfab9e"/></g><g><path d="M 47.082031 16.34375 L 45.890625 2.265625 C 45.808594 1.328125 45.023438 0.605469 44.082031 0.605469 C 43.140625 0.605469 42.355469 1.328125 42.269531 2.265625 L 41.082031 16.34375 L 47.082031 16.34375" fill="#dfad8c"/></g><g><path d="M 42.402344 16.34375 L 41.082031 16.34375 L 42.269531 2.265625 C 42.332031 1.554688 42.796875 0.972656 43.425781 0.726562 C 43.679688 0.828125 43.902344 0.984375 44.082031 1.175781 C 43.808594 1.46875 43.632812 1.851562 43.601562 2.265625 L 42.402344 16.34375" fill="#efd6c6"/></g><g><path d="M 44.734375 0.726562 C 44.53125 0.648438 44.3125 0.605469 44.082031 0.605469 C 44.085938 0.605469 44.089844 0.605469 44.097656 0.605469 C 44.316406 0.605469 44.535156 0.644531 44.742188 0.726562 C 44.738281 0.726562 44.738281 0.726562 44.734375 0.726562" fill="#fff"/></g><g><path d="M 47.082031 16.34375 L 45.75 16.34375 L 44.5625 2.265625 C 44.527344 1.851562 44.355469 1.46875 44.082031 1.175781 C 44.261719 0.984375 44.480469 0.828125 44.734375 0.726562 C 45.363281 0.972656 45.828125 1.554688 45.890625 2.265625 L 47.082031 16.34375" fill="#b28a70"/></g><g><path d="M 43.425781 0.726562 C 43.425781 0.726562 43.421875 0.726562 43.421875 0.726562 C 43.628906 0.644531 43.84375 0.605469 44.066406 0.605469 C 44.070312 0.605469 44.074219 0.605469 44.082031 0.605469 C 43.851562 0.605469 43.628906 0.648438 43.425781 0.726562" fill="#ccc"/></g><g><path d="M 44.082031 1.175781 C 43.902344 0.984375 43.679688 0.828125 43.425781 0.726562 C 43.628906 0.648438 43.851562 0.605469 44.082031 0.605469 C 44.3125 0.605469 44.53125 0.648438 44.734375 0.726562 C 44.480469 0.828125 44.261719 0.984375 44.082031 1.175781" fill="#bfab9e"/></g><g><path d="M 36.242188 19.066406 L 51.921875 19.066406 L 51.921875 17.003906 L 36.242188 17.003906 Z M 52.550781 20.316406 L 35.609375 20.316406 C 35.265625 20.308594 34.992188 20.027344 34.992188 19.683594 L 34.992188 16.34375 C 34.992188 16.003906 35.269531 15.726562 35.609375 15.726562 L 52.550781 15.726562 C 52.894531 15.726562 53.171875 16.003906 53.171875 16.34375 L 53.171875 19.683594 C 53.171875 20.027344 52.894531 20.308594 52.550781 20.316406" fill="#3d1e04"/></g><g><path d="M 41.78125 15.753906 L 46.402344 15.753906 L 45.273438 2.316406 C 45.273438 1.65625 44.738281 1.125 44.082031 1.125 C 43.421875 1.125 42.890625 1.65625 42.890625 2.316406 Z M 47.082031 17.003906 L 41.082031 17.003906 C 40.90625 17.003906 40.738281 16.925781 40.621094 16.792969 C 40.5 16.667969 40.441406 16.496094 40.460938 16.324219 L 41.652344 2.214844 C 41.773438 0.871094 42.960938 -0.117188 44.300781 0.00390625 C 45.472656 0.113281 46.402344 1.042969 46.511719 2.214844 L 47.691406 16.292969 C 47.710938 16.46875 47.652344 16.640625 47.53125 16.765625 C 47.421875 16.90625 47.257812 16.992188 47.082031 17.003906" fill="#3d1e04"/></g><g><path d="M 44.082031 26.984375 L 47.429688 30.335938 L 44.082031 33.6875 L 40.726562 30.335938 L 44.082031 26.984375" fill="#ae7c5b"/></g><g><path d="M 35.609375 26.984375 L 38.960938 30.335938 L 35.609375 33.6875 L 32.257812 30.335938 L 35.609375 26.984375" fill="#ae7c5b"/></g><g><path d="M 30.5 30.335938 L 27.152344 33.695312 L 26.152344 32.695312 C 26.152344 31.636719 26.152344 30.464844 26.222656 29.183594 C 26.242188 28.679688 26.296875 28.179688 26.390625 27.683594 L 27.121094 26.957031 L 30.5 30.335938" fill="#ae7c5b"/></g><g><path d="M 55.910156 30.335938 L 52.558594 33.6875 L 49.207031 30.335938 L 52.558594 26.984375 L 55.910156 30.335938" fill="#ae7c5b"/></g><g><path d="M 61.980469 32.726562 L 60.980469 33.726562 L 57.628906 30.363281 L 61.011719 27.003906 L 61.742188 27.734375 C 61.832031 28.230469 61.890625 28.730469 61.910156 29.234375 C 61.960938 30.496094 61.980469 31.664062 61.980469 32.726562" fill="#ae7c5b"/></g><g><path d="M 44.082031 42.832031 L 47.433594 46.183594 L 44.082031 49.535156 L 40.730469 46.183594 L 44.082031 42.832031" fill="#ae7c5b"/></g><g><path d="M 35.613281 42.832031 L 38.964844 46.183594 L 35.613281 49.535156 L 32.261719 46.183594 L 35.613281 42.832031" fill="#ae7c5b"/></g><g><path d="M 30.5 46.183594 L 27.152344 49.535156 L 25.152344 47.535156 C 25.613281 46.367188 25.949219 45.152344 26.152344 43.914062 L 27.152344 42.914062 L 30.5 46.183594" fill="#ae7c5b"/></g><g><path d="M 55.902344 46.179688 L 52.550781 49.53125 L 49.199219 46.179688 L 52.550781 42.828125 L 55.902344 46.179688" fill="#ae7c5b"/></g><g><path d="M 63.082031 47.496094 L 61.082031 49.496094 L 57.730469 46.144531 L 61.082031 42.792969 L 62.082031 43.792969 C 62.277344 45.058594 62.613281 46.300781 63.082031 47.496094" fill="#ae7c5b"/></g><g><path d="M 39.867188 34.902344 L 43.21875 38.253906 L 39.867188 41.605469 L 36.515625 38.253906 L 39.867188 34.902344" fill="#ae7c5b"/></g><g><path d="M 31.402344 34.910156 L 34.753906 38.261719 L 31.402344 41.613281 L 28.050781 38.261719 L 31.402344 34.910156" fill="#ae7c5b"/></g><g><path d="M 51.683594 38.257812 L 48.335938 41.609375 L 44.980469 38.257812 L 48.335938 34.90625 L 51.683594 38.257812" fill="#ae7c5b"/></g><g><path d="M 60.152344 38.25 L 56.800781 41.601562 L 53.449219 38.25 L 56.800781 34.898438 L 60.152344 38.25" fill="#ae7c5b"/></g><g><path d="M 44.082031 33.695312 L 43.6875 33.296875 L 44.082031 33.6875 L 46.632812 31.136719 L 44.082031 33.695312" fill="#b28a70"/></g><g><path d="M 43.6875 33.296875 L 43.59375 33.203125 L 43.6875 33.296875" fill="#bfab9e"/></g><g><path d="M 47.429688 30.335938 L 47.035156 29.941406 L 47.429688 30.335938" fill="#b28a70"/></g><g><path d="M 47.035156 29.941406 L 44.082031 26.984375 L 47.035156 29.941406" fill="#bfab9e"/></g><g><path d="M 44.082031 33.6875 L 43.6875 33.296875 L 43.59375 33.203125 L 43.269531 32.875 L 45.8125 30.335938 L 43.269531 27.792969 L 44.082031 26.984375 L 47.035156 29.941406 L 47.429688 30.335938 L 46.632812 31.136719 L 44.082031 33.6875" fill="#8b6349"/></g><g><path d="M 35.609375 33.695312 L 35.210938 33.289062 L 35.609375 33.6875 L 38.960938 30.335938 L 38.566406 29.941406 C 38.566406 29.9375 38.566406 29.933594 38.566406 29.929688 L 38.972656 30.335938 L 35.609375 33.695312" fill="#b28a70"/></g><g><path d="M 35.210938 33.289062 L 35.148438 33.226562 L 35.210938 33.289062 M 38.566406 29.941406 L 35.609375 26.984375 L 34.800781 27.796875 L 34.800781 27.792969 L 35.609375 26.984375 L 38.566406 29.929688 C 38.566406 29.933594 38.566406 29.9375 38.566406 29.941406" fill="#bfab9e"/></g><g><path d="M 35.609375 33.6875 L 35.148438 33.226562 L 34.800781 32.875 L 37.339844 30.335938 L 34.800781 27.796875 L 35.609375 26.984375 L 38.960938 30.335938 L 35.609375 33.6875" fill="#8b6349"/></g><g><path d="M 27.851562 33.03125 C 27.851562 33.019531 27.851562 33.003906 27.851562 32.992188 L 30.5 30.335938 L 30.519531 30.355469 L 27.851562 33.03125" fill="#b28a70"/></g><g><path d="M 27.171875 33.714844 L 27.152344 33.695312 L 27.851562 32.992188 C 27.851562 33.003906 27.851562 33.019531 27.851562 33.03125 L 27.171875 33.714844" fill="#bfab9e"/></g><g><path d="M 27.152344 33.695312 L 26.359375 32.894531 L 28.902344 30.355469 L 26.421875 27.875 L 26.421875 27.734375 L 27.152344 27.003906 L 30.5 30.335938 L 27.851562 32.992188 L 27.152344 33.695312" fill="#8b6349"/></g><g><path d="M 52.550781 33.695312 L 52.148438 33.292969 C 52.152344 33.292969 52.15625 33.289062 52.160156 33.289062 L 52.558594 33.6875 L 52.734375 33.511719 L 52.550781 33.695312" fill="#b28a70"/></g><g><path d="M 52.148438 33.292969 L 51.730469 32.875 L 51.738281 32.867188 L 52.160156 33.289062 C 52.15625 33.289062 52.152344 33.292969 52.148438 33.292969 M 51.738281 27.800781 L 51.730469 27.792969 L 52.550781 26.984375 L 52.554688 26.988281 L 51.738281 27.800781" fill="#bfab9e"/></g><g><path d="M 52.558594 33.6875 L 51.738281 32.867188 L 54.273438 30.335938 L 51.738281 27.800781 L 52.554688 26.988281 L 55.902344 30.335938 L 52.734375 33.511719 L 52.558594 33.6875" fill="#8b6349"/></g><g><path d="M 61.011719 33.714844 L 61 33.707031 L 61.390625 33.316406 C 61.390625 33.324219 61.390625 33.328125 61.390625 33.335938 L 61.011719 33.714844" fill="#a07c65"/></g><g><path d="M 61.390625 33.335938 C 61.390625 33.328125 61.390625 33.324219 61.390625 33.316406 L 61.980469 32.726562 C 61.980469 31.664062 61.960938 30.496094 61.910156 29.234375 C 61.890625 28.730469 61.832031 28.230469 61.742188 27.734375 L 61.011719 27.003906 L 61.742188 27.714844 C 61.832031 28.210938 61.890625 28.710938 61.910156 29.214844 C 61.960938 30.496094 61.980469 31.664062 62.011719 32.714844 L 61.390625 33.335938" fill="#311803"/></g><g><path d="M 61 33.707031 L 60.203125 32.894531 L 60.351562 32.746094 C 60.351562 31.683594 60.332031 30.515625 60.289062 29.234375 C 60.273438 28.777344 60.21875 28.324219 60.140625 27.875 L 61.011719 27.003906 L 61.742188 27.734375 C 61.832031 28.230469 61.890625 28.730469 61.910156 29.234375 C 61.960938 30.496094 61.980469 31.664062 61.980469 32.726562 L 61 33.707031" fill="#8b6349"/></g><g><path d="M 44.082031 49.535156 L 43.695312 49.148438 L 44.082031 49.535156" fill="#a07c65"/></g><g><path d="M 43.695312 49.148438 L 43.28125 48.734375 L 43.695312 49.148438" fill="#ac9a8e"/></g><g><path d="M 44.082031 49.535156 L 43.269531 48.722656 L 45.8125 46.183594 L 43.269531 43.644531 L 44.082031 42.835938 L 47.429688 46.183594 L 44.082031 49.535156" fill="#8b6349"/></g><g><path d="M 35.609375 49.535156 L 35.21875 49.144531 L 35.609375 49.535156" fill="#b28a70"/></g><g><path d="M 35.21875 49.144531 L 35.078125 49 L 35.21875 49.144531" fill="#bfab9e"/></g><g><path d="M 36.980469 48.171875 L 38.964844 46.183594 L 38.566406 45.789062 C 38.566406 45.785156 38.566406 45.785156 38.570312 45.78125 L 38.972656 46.183594 L 36.980469 48.171875" fill="#b28a70"/></g><g><path d="M 38.566406 45.789062 L 36.886719 44.105469 L 38.570312 45.78125 C 38.566406 45.785156 38.566406 45.785156 38.566406 45.789062 M 34.800781 43.644531 L 35.609375 42.835938 L 34.800781 43.644531" fill="#bfab9e"/></g><g><path d="M 35.609375 49.535156 L 35.21875 49.144531 L 35.078125 49 L 34.800781 48.722656 L 37.339844 46.183594 L 34.800781 43.644531 L 35.609375 42.835938 L 36.886719 44.105469 L 38.566406 45.789062 L 38.964844 46.183594 L 36.980469 48.171875 L 35.609375 49.535156" fill="#8b6349"/></g><g><path d="M 30.5 46.183594 L 30.105469 45.796875 C 30.105469 45.792969 30.105469 45.792969 30.105469 45.789062 L 30.5 46.183594" fill="#b28a70"/></g><g><path d="M 30.105469 45.796875 L 27.984375 43.726562 C 27.984375 43.707031 27.984375 43.6875 27.984375 43.667969 L 30.105469 45.789062 C 30.105469 45.792969 30.105469 45.792969 30.105469 45.796875" fill="#bfab9e"/></g><g><path d="M 27.984375 43.726562 L 27.152344 42.914062 L 26.824219 43.242188 C 26.828125 43.214844 26.828125 43.183594 26.832031 43.152344 L 27.152344 42.835938 L 27.984375 43.667969 C 27.984375 43.6875 27.984375 43.707031 27.984375 43.726562" fill="#c6bcb6"/></g><g><path d="M 26.382812 43.683594 L 26.339844 43.644531 L 26.832031 43.152344 C 26.828125 43.183594 26.828125 43.214844 26.824219 43.242188 L 26.382812 43.683594" fill="#311803"/></g><g><path d="M 27.152344 49.535156 L 26.339844 48.722656 L 28.882812 46.183594 L 26.382812 43.683594 L 27.152344 42.914062 L 27.984375 43.726562 L 30.105469 45.796875 L 30.5 46.183594 L 27.152344 49.535156" fill="#8b6349"/></g><g><path d="M 52.550781 49.535156 L 52.152344 49.140625 C 52.15625 49.140625 52.15625 49.140625 52.160156 49.140625 L 52.550781 49.53125 L 55.898438 46.179688 L 55.902344 46.183594 L 52.550781 49.535156" fill="#a07c65"/></g><g><path d="M 52.152344 49.140625 L 51.730469 48.722656 L 51.738281 48.71875 L 52.160156 49.140625 C 52.15625 49.140625 52.15625 49.140625 52.152344 49.140625 M 51.730469 43.644531 L 51.742188 43.636719 L 51.730469 43.644531" fill="#ac9a8e"/></g><g><path d="M 52.550781 49.53125 L 51.738281 48.71875 L 54.273438 46.183594 L 51.730469 43.644531 L 51.742188 43.636719 L 52.550781 42.835938 L 55.898438 46.179688 L 52.550781 49.53125" fill="#8b6349"/></g><g><path d="M 61.089844 49.574219 L 60.65625 49.140625 C 60.675781 49.136719 60.695312 49.132812 60.714844 49.128906 L 61.082031 49.496094 L 62.582031 47.996094 C 62.589844 48.015625 62.597656 48.035156 62.609375 48.058594 L 61.089844 49.574219" fill="#a07c65"/></g><g><path d="M 60.65625 49.140625 L 60.28125 48.765625 L 60.316406 48.730469 L 60.714844 49.128906 C 60.695312 49.132812 60.675781 49.136719 60.65625 49.140625" fill="#ac9a8e"/></g><g><path d="M 62.609375 48.058594 C 62.597656 48.035156 62.589844 48.015625 62.582031 47.996094 L 63.066406 47.511719 C 63.074219 47.53125 63.082031 47.554688 63.089844 47.574219 L 62.609375 48.058594" fill="#311803"/></g><g><path d="M 61.082031 49.496094 L 60.316406 48.730469 L 61.5 47.535156 C 61.042969 46.367188 60.707031 45.152344 60.5 43.914062 L 60.273438 43.683594 L 61.082031 42.875 L 62.082031 43.875 C 62.277344 45.117188 62.609375 46.335938 63.066406 47.511719 L 61.082031 49.496094" fill="#8b6349"/></g><g><path d="M 39.859375 41.613281 L 39.457031 41.207031 C 39.460938 41.207031 39.464844 41.207031 39.464844 41.207031 L 39.867188 41.605469 L 43.21875 38.253906 L 42.789062 37.824219 L 43.222656 38.253906 L 39.859375 41.613281" fill="#b28a70"/></g><g><path d="M 39.457031 41.207031 L 39.050781 40.792969 L 39.054688 40.792969 L 39.464844 41.207031 C 39.464844 41.207031 39.460938 41.207031 39.457031 41.207031 M 42.789062 37.824219 L 42.578125 37.613281 L 42.789062 37.824219 M 39.050781 35.714844 L 39.859375 34.90625 L 39.050781 35.714844" fill="#bfab9e"/></g><g><path d="M 39.867188 41.605469 L 39.464844 41.207031 L 39.054688 40.792969 L 41.589844 38.253906 L 39.050781 35.714844 L 39.859375 34.90625 L 42.578125 37.613281 L 43.21875 38.253906 L 39.867188 41.605469" fill="#8b6349"/></g><g><path d="M 31.402344 41.613281 L 30.996094 41.207031 L 31.402344 41.613281" fill="#b28a70"/></g><g><path d="M 30.996094 41.207031 L 30.957031 41.164062 L 30.996094 41.207031" fill="#bfab9e"/></g><g><path d="M 34.75 38.253906 L 34.351562 37.859375 C 34.351562 37.859375 34.351562 37.859375 34.351562 37.855469 L 34.75 38.253906" fill="#b28a70"/></g><g><path d="M 34.351562 37.859375 L 31.402344 34.910156 L 30.59375 35.71875 L 30.589844 35.714844 L 31.402344 34.90625 L 34.351562 37.855469 C 34.351562 37.859375 34.351562 37.859375 34.351562 37.859375" fill="#bfab9e"/></g><g><path d="M 31.402344 41.613281 L 30.996094 41.207031 L 30.957031 41.164062 L 30.589844 40.792969 L 33.128906 38.253906 L 30.59375 35.71875 L 31.402344 34.910156 L 34.351562 37.859375 L 34.75 38.253906 L 31.402344 41.613281" fill="#8b6349"/></g><g><path d="M 48.332031 41.613281 L 47.925781 41.207031 C 47.929688 41.207031 47.929688 41.207031 47.929688 41.207031 L 48.335938 41.609375 L 48.8125 41.128906 L 48.332031 41.613281" fill="#b28a70"/></g><g><path d="M 47.925781 41.207031 L 47.753906 41.03125 L 47.929688 41.207031 C 47.929688 41.207031 47.929688 41.207031 47.925781 41.207031 M 47.523438 35.71875 L 47.523438 35.714844 L 48.332031 34.90625 L 47.523438 35.71875" fill="#bfab9e"/></g><g><path d="M 48.335938 41.609375 L 47.929688 41.207031 L 47.753906 41.03125 L 47.523438 40.792969 L 50.0625 38.253906 L 47.523438 35.71875 L 48.332031 34.90625 L 51.679688 38.253906 L 48.8125 41.128906 L 48.335938 41.609375" fill="#8b6349"/></g><g><path d="M 56.800781 41.613281 L 56.390625 41.207031 C 56.394531 41.207031 56.398438 41.203125 56.402344 41.203125 L 56.800781 41.601562 L 60.152344 38.253906 L 56.800781 41.613281" fill="#a07c65"/></g><g><path d="M 56.390625 41.207031 L 55.980469 40.792969 L 55.988281 40.789062 L 56.402344 41.203125 C 56.398438 41.203125 56.394531 41.207031 56.390625 41.207031 M 55.984375 35.71875 L 55.980469 35.714844 L 56.410156 35.289062 L 55.984375 35.71875" fill="#ac9a8e"/></g><g><path d="M 56.800781 41.601562 L 55.988281 40.789062 L 58.523438 38.253906 L 55.984375 35.71875 L 56.410156 35.289062 L 56.800781 34.90625 L 60.152344 38.253906 L 56.800781 41.601562" fill="#8b6349"/></g><g><path d="M 41.429688 30.335938 L 44.082031 33.003906 L 46.730469 30.355469 L 44.082031 27.695312 Z M 44.082031 34.195312 C 43.949219 34.195312 43.820312 34.140625 43.730469 34.042969 L 40.371094 30.695312 C 40.179688 30.496094 40.179688 30.183594 40.371094 29.984375 L 43.730469 26.636719 C 43.914062 26.441406 44.214844 26.433594 44.410156 26.613281 L 44.429688 26.636719 L 47.789062 30.003906 C 47.980469 30.203125 47.980469 30.515625 47.789062 30.714844 L 44.429688 34.003906 C 44.347656 34.117188 44.21875 34.1875 44.082031 34.195312" fill="#3d1e04"/></g><g><path d="M 32.972656 30.335938 L 35.609375 33.003906 L 38.261719 30.355469 L 35.609375 27.714844 Z M 35.609375 34.195312 C 35.480469 34.191406 35.351562 34.140625 35.261719 34.042969 L 31.910156 30.695312 C 31.714844 30.5 31.714844 30.183594 31.90625 29.988281 L 31.910156 29.984375 L 35.261719 26.636719 C 35.457031 26.4375 35.773438 26.4375 35.96875 26.632812 L 35.972656 26.636719 L 39.320312 30.003906 C 39.515625 30.199219 39.519531 30.515625 39.324219 30.710938 L 39.320312 30.714844 L 35.972656 34.003906 C 35.882812 34.113281 35.753906 34.183594 35.609375 34.195312" fill="#3d1e04"/></g><g><path d="M 26.679688 32.515625 L 27.152344 32.984375 L 29.789062 30.335938 L 27.152344 27.695312 L 26.882812 28.003906 C 26.808594 28.425781 26.765625 28.855469 26.75 29.285156 C 26.710938 30.34375 26.691406 31.457031 26.679688 32.515625 Z M 27.152344 34.195312 C 27.019531 34.195312 26.890625 34.140625 26.800781 34.042969 L 25.800781 33.042969 C 25.703125 32.953125 25.648438 32.828125 25.652344 32.695312 C 25.652344 31.554688 25.652344 30.363281 25.722656 29.164062 C 25.742188 28.632812 25.800781 28.105469 25.902344 27.585938 C 25.921875 27.488281 25.972656 27.402344 26.039062 27.335938 L 26.769531 26.605469 C 26.953125 26.410156 27.257812 26.402344 27.449219 26.582031 L 27.472656 26.605469 L 30.859375 30.003906 C 30.953125 30.097656 31.003906 30.222656 31 30.355469 C 31.003906 30.488281 30.953125 30.617188 30.859375 30.714844 L 27.5 34.003906 C 27.417969 34.117188 27.289062 34.1875 27.152344 34.195312" fill="#3d1e04"/></g><g><path d="M 49.902344 30.335938 L 52.550781 33.003906 L 55.191406 30.355469 L 52.550781 27.714844 Z M 52.550781 34.195312 C 52.414062 34.195312 52.285156 34.140625 52.191406 34.042969 L 48.839844 30.695312 C 48.644531 30.5 48.644531 30.183594 48.839844 29.988281 L 48.839844 29.984375 L 52.191406 26.636719 C 52.386719 26.4375 52.703125 26.4375 52.898438 26.632812 L 52.902344 26.636719 L 56.25 30.003906 C 56.449219 30.199219 56.449219 30.515625 56.253906 30.710938 L 56.25 30.714844 L 52.902344 34.003906 C 52.816406 34.113281 52.691406 34.183594 52.550781 34.195312" fill="#3d1e04"/></g><g><path d="M 58.371094 30.335938 L 61.011719 33.003906 L 61.480469 32.535156 C 61.480469 31.464844 61.480469 30.386719 61.410156 29.253906 C 61.398438 28.835938 61.351562 28.417969 61.28125 28.003906 L 61.011719 27.746094 Z M 61.011719 34.195312 C 60.878906 34.195312 60.75 34.140625 60.660156 34.042969 L 57.300781 30.695312 C 57.210938 30.597656 57.160156 30.46875 57.160156 30.335938 C 57.160156 30.203125 57.210938 30.078125 57.300781 29.984375 L 60.660156 26.636719 C 60.84375 26.441406 61.148438 26.433594 61.339844 26.613281 L 61.359375 26.636719 L 62.089844 27.363281 C 62.160156 27.433594 62.210938 27.519531 62.230469 27.613281 C 62.332031 28.136719 62.390625 28.664062 62.410156 29.195312 C 62.410156 30.414062 62.480469 31.566406 62.480469 32.726562 C 62.480469 32.855469 62.425781 32.984375 62.332031 33.074219 L 61.332031 34.074219 C 61.242188 34.152344 61.128906 34.195312 61.011719 34.195312" fill="#3d1e04"/></g><g><path d="M 41.429688 46.15625 L 44.082031 48.835938 L 46.730469 46.183594 L 44.082031 43.535156 Z M 44.082031 50.003906 C 43.949219 50.007812 43.824219 49.957031 43.730469 49.863281 L 40.371094 46.503906 C 40.179688 46.308594 40.179688 46 40.371094 45.804688 L 43.730469 42.445312 C 43.925781 42.253906 44.238281 42.253906 44.429688 42.445312 L 47.789062 45.804688 C 47.980469 46 47.980469 46.308594 47.789062 46.503906 L 44.429688 49.863281 C 44.335938 49.957031 44.210938 50.007812 44.082031 50.003906" fill="#3d1e04"/></g><g><path d="M 32.972656 46.15625 L 35.609375 48.804688 L 38.261719 46.15625 L 35.609375 43.503906 Z M 35.609375 50.003906 C 35.480469 50 35.355469 49.953125 35.261719 49.863281 L 31.910156 46.503906 C 31.71875 46.324219 31.707031 46.019531 31.890625 45.828125 L 31.910156 45.804688 L 35.261719 42.445312 C 35.460938 42.253906 35.773438 42.253906 35.972656 42.445312 L 39.320312 45.804688 C 39.515625 45.984375 39.523438 46.289062 39.34375 46.484375 L 39.320312 46.503906 L 35.972656 49.863281 C 35.871094 49.953125 35.742188 50.003906 35.609375 50.003906" fill="#3d1e04"/></g><g><path d="M 25.691406 47.34375 L 27.152344 48.804688 L 29.789062 46.15625 L 27.152344 43.503906 L 26.582031 44.085938 C 26.390625 45.207031 26.089844 46.308594 25.691406 47.375 Z M 27.152344 50.003906 C 27.019531 50.007812 26.894531 49.957031 26.800781 49.863281 L 24.800781 47.863281 C 24.660156 47.726562 24.613281 47.519531 24.679688 47.335938 C 25.132812 46.195312 25.46875 45.011719 25.679688 43.804688 C 25.691406 43.699219 25.742188 43.597656 25.820312 43.523438 L 26.820312 42.523438 C 27.019531 42.339844 27.324219 42.339844 27.519531 42.523438 L 30.882812 45.886719 C 31.070312 46.078125 31.070312 46.390625 30.882812 46.585938 L 27.519531 49.945312 C 27.410156 50.011719 27.277344 50.03125 27.152344 50.003906" fill="#3d1e04"/></g><g><path d="M 49.902344 46.15625 L 52.550781 48.804688 L 55.191406 46.15625 L 52.550781 43.503906 Z M 52.550781 50.003906 C 52.417969 50.003906 52.289062 49.953125 52.191406 49.863281 L 48.839844 46.503906 C 48.648438 46.324219 48.636719 46.019531 48.820312 45.828125 L 48.839844 45.804688 L 52.191406 42.445312 C 52.390625 42.253906 52.703125 42.253906 52.902344 42.445312 L 56.25 45.804688 C 56.445312 45.984375 56.453125 46.289062 56.273438 46.484375 L 56.25 46.503906 L 52.902344 49.863281 C 52.804688 49.953125 52.679688 50 52.550781 50.003906" fill="#3d1e04"/></g><g><path d="M 58.371094 46.15625 L 61.011719 48.804688 L 62.46875 47.34375 C 62.074219 46.289062 61.777344 45.199219 61.582031 44.085938 L 61.011719 43.503906 Z M 61.011719 50.003906 C 60.882812 50.007812 60.753906 49.957031 60.660156 49.863281 L 57.300781 46.503906 C 57.109375 46.308594 57.109375 46 57.300781 45.804688 L 60.660156 42.445312 C 60.855469 42.257812 61.164062 42.257812 61.359375 42.445312 L 62.359375 43.445312 C 62.441406 43.519531 62.488281 43.617188 62.5 43.726562 C 62.714844 44.933594 63.046875 46.113281 63.5 47.253906 C 63.570312 47.4375 63.523438 47.648438 63.382812 47.785156 L 61.382812 49.785156 C 61.296875 49.910156 61.160156 49.992188 61.011719 50.003906" fill="#3d1e04"/></g><g><path d="M 37.222656 38.253906 L 39.859375 40.90625 L 42.511719 38.253906 L 39.859375 35.613281 Z M 39.859375 42.113281 C 39.730469 42.109375 39.605469 42.054688 39.511719 41.964844 L 36.160156 38.613281 C 35.964844 38.421875 35.964844 38.105469 36.15625 37.90625 L 36.160156 37.90625 L 39.511719 34.554688 C 39.601562 34.460938 39.730469 34.40625 39.859375 34.40625 C 39.996094 34.402344 40.128906 34.457031 40.222656 34.554688 L 43.570312 37.90625 C 43.765625 38.097656 43.769531 38.414062 43.574219 38.613281 L 43.570312 38.613281 L 40.222656 42.003906 C 40.117188 42.085938 39.988281 42.125 39.859375 42.113281" fill="#3d1e04"/></g><g><path d="M 28.75 38.253906 L 31.402344 40.90625 L 34.082031 38.253906 L 31.429688 35.613281 Z M 31.402344 42.113281 C 31.285156 42.117188 31.171875 42.078125 31.082031 42.003906 L 27.722656 38.65625 C 27.53125 38.457031 27.53125 38.144531 27.722656 37.945312 L 31.082031 34.554688 C 31.171875 34.457031 31.296875 34.402344 31.429688 34.40625 C 31.5625 34.402344 31.691406 34.457031 31.78125 34.554688 L 35.082031 37.90625 C 35.273438 38.101562 35.273438 38.417969 35.082031 38.613281 L 31.75 42.003906 C 31.652344 42.082031 31.527344 42.121094 31.402344 42.113281" fill="#3d1e04"/></g><g><path d="M 45.679688 38.253906 L 48.332031 40.90625 L 50.980469 38.253906 L 48.332031 35.613281 Z M 48.332031 42.113281 C 48.203125 42.125 48.078125 42.085938 47.980469 42.003906 L 44.621094 38.65625 C 44.429688 38.457031 44.429688 38.144531 44.621094 37.945312 L 47.980469 34.59375 C 48.160156 34.402344 48.464844 34.390625 48.660156 34.574219 L 48.679688 34.59375 L 52.082031 37.90625 C 52.273438 38.101562 52.273438 38.417969 52.082031 38.613281 L 48.679688 42.003906 C 48.585938 42.085938 48.457031 42.125 48.332031 42.113281" fill="#3d1e04"/></g><g><path d="M 54.152344 38.253906 L 56.800781 40.90625 L 59.441406 38.253906 L 56.800781 35.613281 Z M 56.800781 42.113281 C 56.664062 42.113281 56.535156 42.058594 56.441406 41.964844 L 53.082031 38.613281 C 52.886719 38.421875 52.882812 38.105469 53.078125 37.90625 L 53.082031 37.90625 L 56.429688 34.554688 C 56.625 34.359375 56.941406 34.355469 57.136719 34.550781 L 60.492188 37.90625 C 60.6875 38.097656 60.6875 38.414062 60.492188 38.613281 L 57.152344 42.003906 C 57.050781 42.085938 56.925781 42.125 56.800781 42.113281" fill="#3d1e04"/></g><g><path d="M 11.402344 58.863281 C 12.386719 56.65625 11.394531 54.066406 9.183594 53.082031 C 6.976562 52.09375 4.386719 53.085938 3.402344 55.296875 C 2.894531 56.429688 2.894531 57.730469 3.402344 58.863281 C 3.761719 59.679688 3.636719 60.628906 3.082031 61.324219 C 2.175781 62.40625 1.710938 63.785156 1.78125 65.195312 C 1.914062 68.316406 4.554688 70.742188 7.679688 70.605469 C 10.800781 70.472656 13.226562 67.832031 13.089844 64.707031 C 13.035156 63.46875 12.578125 62.277344 11.78125 61.324219 C 11.199219 60.644531 11.050781 59.691406 11.402344 58.863281" fill="#5fe874"/></g><g><path d="M 7.160156 70.660156 C 7.019531 70.660156 6.875 70.65625 6.730469 70.644531 C 6.832031 70.632812 6.933594 70.617188 7.035156 70.597656 C 7.144531 70.605469 7.25 70.609375 7.359375 70.613281 C 7.46875 70.617188 7.574219 70.621094 7.679688 70.621094 C 7.816406 70.621094 7.949219 70.617188 8.085938 70.605469 C 7.921875 70.625 7.757812 70.640625 7.589844 70.644531 C 7.449219 70.65625 7.304688 70.660156 7.160156 70.660156 M 8.105469 70.605469 C 8.058594 70.597656 8.015625 70.59375 7.96875 70.585938 C 9.566406 70.4375 10.957031 69.632812 11.886719 68.449219 C 11.632812 68.773438 11.34375 69.074219 11.015625 69.347656 C 10.179688 70.035156 9.171875 70.46875 8.105469 70.605469 M 11.273438 60.308594 C 11.164062 59.835938 11.203125 59.332031 11.402344 58.863281 C 11.800781 57.964844 11.875 57 11.671875 56.105469 C 11.726562 56.335938 11.761719 56.570312 11.78125 56.808594 C 11.832031 57.515625 11.714844 58.226562 11.429688 58.875 C 11.226562 59.335938 11.179688 59.835938 11.273438 60.308594" fill="#ccc"/></g><g><path d="M 7.359375 70.613281 C 7.25 70.609375 7.144531 70.605469 7.035156 70.597656 C 7.042969 70.597656 7.050781 70.59375 7.054688 70.59375 C 7.121094 70.597656 7.183594 70.601562 7.25 70.605469 C 7.289062 70.605469 7.324219 70.609375 7.359375 70.613281 M 7.96875 70.585938 C 7.808594 70.5625 7.644531 70.535156 7.488281 70.496094 C 9.878906 69.863281 11.625 67.726562 11.710938 65.195312 C 11.78125 63.785156 11.316406 62.40625 10.410156 61.324219 C 9.839844 60.625 9.710938 59.660156 10.082031 58.835938 C 11.042969 56.621094 10.027344 54.046875 7.8125 53.085938 C 7.679688 53.027344 7.542969 52.976562 7.402344 52.933594 C 7.585938 52.875 7.769531 52.828125 7.957031 52.792969 C 9.757812 53.015625 11.246094 54.335938 11.671875 56.105469 C 11.875 57 11.800781 57.964844 11.402344 58.863281 C 11.203125 59.332031 11.164062 59.835938 11.273438 60.308594 C 11.347656 60.691406 11.515625 61.054688 11.769531 61.363281 C 13.496094 63.449219 13.476562 66.398438 11.886719 68.449219 C 10.957031 69.632812 9.566406 70.4375 7.96875 70.585938 M 6.851562 52.792969 C 6.8125 52.789062 6.769531 52.78125 6.730469 52.773438 C 6.792969 52.769531 6.855469 52.765625 6.914062 52.765625 C 6.96875 52.765625 7.027344 52.769531 7.082031 52.773438 C 7.003906 52.777344 6.925781 52.785156 6.851562 52.792969 M 7.710938 52.773438 C 7.609375 52.765625 7.507812 52.761719 7.40625 52.761719 C 7.414062 52.761719 7.417969 52.761719 7.425781 52.761719 C 7.53125 52.761719 7.628906 52.765625 7.730469 52.773438 C 7.722656 52.773438 7.71875 52.773438 7.710938 52.773438" fill="#4cba5d"/></g><g><path d="M 8.085938 70.605469 C 8.09375 70.605469 8.097656 70.605469 8.105469 70.605469 C 8.105469 70.605469 8.109375 70.605469 8.109375 70.605469 C 8.101562 70.605469 8.09375 70.605469 8.085938 70.605469 M 3.082031 61.324219 C 3.628906 60.628906 3.742188 59.683594 3.378906 58.875 C 3.113281 58.257812 2.992188 57.589844 3.023438 56.917969 C 3 57.582031 3.125 58.246094 3.402344 58.863281 C 3.761719 59.679688 3.636719 60.628906 3.082031 61.324219" fill="#fff"/></g><g><path d="M 7.054688 70.59375 C 4.191406 70.398438 1.910156 68.082031 1.78125 65.195312 C 1.777344 65.105469 1.773438 65.015625 1.773438 64.921875 C 1.773438 63.609375 2.234375 62.335938 3.082031 61.324219 C 3.636719 60.628906 3.761719 59.679688 3.402344 58.863281 C 3.125 58.246094 3 57.582031 3.023438 56.917969 C 3.027344 56.882812 3.027344 56.847656 3.03125 56.808594 C 3.1875 54.695312 4.824219 53.042969 6.851562 52.792969 C 7.039062 52.828125 7.222656 52.875 7.402344 52.933594 C 7.261719 52.976562 7.125 53.027344 6.992188 53.085938 C 4.777344 54.046875 3.761719 56.621094 4.722656 58.835938 C 5.085938 59.664062 4.953125 60.625 4.378906 61.324219 C 3.484375 62.410156 3.019531 63.789062 3.082031 65.195312 C 3.191406 67.777344 5.019531 69.929688 7.488281 70.496094 C 7.347656 70.535156 7.203125 70.566406 7.054688 70.59375 M 7.957031 52.792969 C 7.882812 52.785156 7.808594 52.777344 7.730469 52.773438 C 7.785156 52.769531 7.839844 52.765625 7.894531 52.765625 C 7.957031 52.765625 8.019531 52.769531 8.082031 52.773438 C 8.039062 52.78125 8 52.789062 7.957031 52.792969 M 7.101562 52.773438 C 7.09375 52.773438 7.085938 52.773438 7.082031 52.773438 C 7.179688 52.765625 7.28125 52.761719 7.382812 52.761719 C 7.390625 52.761719 7.398438 52.761719 7.40625 52.761719 C 7.304688 52.761719 7.203125 52.765625 7.101562 52.773438" fill="#aff4ba"/></g><g><path d="M 7.679688 70.621094 C 7.574219 70.621094 7.46875 70.617188 7.359375 70.613281 C 7.382812 70.613281 7.40625 70.613281 7.429688 70.613281 C 7.511719 70.613281 7.59375 70.609375 7.679688 70.605469 C 7.777344 70.601562 7.875 70.59375 7.96875 70.585938 C 8.015625 70.59375 8.058594 70.597656 8.105469 70.605469 C 8.097656 70.605469 8.09375 70.605469 8.085938 70.605469 C 7.949219 70.617188 7.816406 70.621094 7.679688 70.621094" fill="#e6e6e6"/></g><g><path d="M 7.429688 70.613281 C 7.40625 70.613281 7.382812 70.613281 7.359375 70.613281 C 7.324219 70.609375 7.289062 70.605469 7.25 70.605469 C 7.183594 70.601562 7.121094 70.597656 7.054688 70.59375 C 7.203125 70.566406 7.347656 70.535156 7.488281 70.496094 C 7.644531 70.535156 7.808594 70.5625 7.96875 70.585938 C 7.875 70.59375 7.777344 70.601562 7.679688 70.605469 C 7.59375 70.609375 7.511719 70.613281 7.429688 70.613281 M 7.402344 52.933594 C 7.222656 52.875 7.039062 52.828125 6.851562 52.792969 C 6.925781 52.785156 7.003906 52.777344 7.082031 52.773438 C 7.085938 52.773438 7.09375 52.773438 7.101562 52.773438 C 7.203125 52.765625 7.304688 52.761719 7.40625 52.761719 C 7.507812 52.761719 7.609375 52.765625 7.710938 52.773438 C 7.71875 52.773438 7.722656 52.773438 7.730469 52.773438 C 7.808594 52.777344 7.882812 52.785156 7.957031 52.792969 C 7.769531 52.828125 7.585938 52.875 7.402344 52.933594" fill="#a6ddae"/></g><g><path d="M 7.402344 53.222656 C 5.261719 53.21875 3.527344 54.949219 3.519531 57.085938 C 3.519531 57.617188 3.628906 58.144531 3.839844 58.636719 C 4.285156 59.632812 4.125 60.792969 3.429688 61.636719 C 1.609375 63.828125 1.910156 67.082031 4.105469 68.902344 C 6.296875 70.722656 9.550781 70.417969 11.371094 68.226562 C 12.957031 66.316406 12.957031 63.546875 11.371094 61.636719 C 10.671875 60.792969 10.511719 59.632812 10.953125 58.636719 C 11.207031 58.0625 11.316406 57.4375 11.269531 56.8125 C 11.148438 54.882812 9.613281 53.335938 7.679688 53.195312 Z M 7.402344 71.105469 L 7.199219 71.105469 C 3.796875 70.992188 1.125 68.140625 1.238281 64.734375 C 1.28125 63.367188 1.78125 62.058594 2.652344 61.003906 C 3.125 60.449219 3.226562 59.664062 2.910156 59.003906 C 2.105469 57.117188 2.574219 54.929688 4.082031 53.535156 C 5.0625 52.597656 6.398438 52.125 7.75 52.234375 C 10.183594 52.40625 12.117188 54.351562 12.269531 56.785156 C 12.324219 57.566406 12.1875 58.347656 11.871094 59.0625 C 11.585938 59.707031 11.6875 60.457031 12.132812 61.003906 C 14.183594 63.480469 13.988281 67.121094 11.679688 69.363281 C 10.539062 70.484375 9 71.109375 7.402344 71.105469" fill="#3d1e04"/></g><g clip-path="url(#e)"><path d="M 7.390625 75.65625 C 7.117188 75.648438 6.894531 75.429688 6.890625 75.15625 L 6.890625 58.464844 C 6.894531 58.191406 7.117188 57.96875 7.390625 57.964844 C 7.667969 57.964844 7.890625 58.1875 7.890625 58.464844 L 7.890625 75.15625 C 7.890625 75.429688 7.667969 75.65625 7.390625 75.65625" fill="#3d1e04"/></g><g><path d="M 7.390625 59.003906 C 7.113281 59 6.894531 58.773438 6.898438 58.496094 C 6.898438 58.367188 6.949219 58.246094 7.039062 58.15625 L 8.710938 56.484375 C 8.90625 56.289062 9.222656 56.285156 9.417969 56.480469 L 9.421875 56.484375 C 9.613281 56.664062 9.625 56.96875 9.441406 57.164062 L 9.421875 57.183594 L 7.75 58.863281 C 7.65625 58.957031 7.523438 59.007812 7.390625 59.003906" fill="#3d1e04"/></g><g><path d="M 7.390625 59.003906 C 7.261719 59.007812 7.132812 58.957031 7.039062 58.863281 L 5.371094 57.183594 C 5.175781 56.992188 5.175781 56.675781 5.371094 56.484375 C 5.5625 56.292969 5.878906 56.292969 6.070312 56.484375 L 7.75 58.15625 C 7.941406 58.351562 7.941406 58.667969 7.75 58.863281 C 7.65625 58.957031 7.523438 59.007812 7.390625 59.003906" fill="#3d1e04"/></g><g><path d="M 7.390625 62.753906 C 7.117188 62.730469 6.914062 62.488281 6.9375 62.210938 C 6.949219 62.09375 7 61.988281 7.082031 61.90625 L 8.75 60.234375 C 8.945312 60.039062 9.261719 60.035156 9.457031 60.230469 L 9.460938 60.234375 C 9.652344 60.414062 9.664062 60.71875 9.480469 60.914062 L 9.460938 60.933594 L 7.789062 62.613281 C 7.683594 62.71875 7.539062 62.769531 7.390625 62.753906" fill="#3d1e04"/></g><g><path d="M 7.390625 62.753906 C 7.261719 62.757812 7.132812 62.707031 7.039062 62.613281 L 5.371094 60.933594 C 5.175781 60.742188 5.175781 60.425781 5.371094 60.234375 C 5.5625 60.042969 5.878906 60.042969 6.070312 60.234375 L 7.75 61.90625 C 7.941406 62.101562 7.941406 62.417969 7.75 62.613281 C 7.65625 62.707031 7.523438 62.757812 7.390625 62.753906" fill="#3d1e04"/></g><g><path d="M 7.390625 66.542969 C 7.113281 66.539062 6.894531 66.3125 6.898438 66.039062 C 6.898438 65.910156 6.949219 65.785156 7.039062 65.695312 L 8.710938 64.003906 C 8.90625 63.808594 9.222656 63.808594 9.417969 64 L 9.421875 64.003906 C 9.613281 64.1875 9.625 64.488281 9.441406 64.683594 L 9.421875 64.707031 L 7.75 66.40625 C 7.65625 66.496094 7.523438 66.546875 7.390625 66.542969" fill="#3d1e04"/></g><g><path d="M 7.390625 66.542969 C 7.273438 66.535156 7.164062 66.488281 7.082031 66.40625 L 5.410156 64.722656 C 5.210938 64.539062 5.199219 64.226562 5.386719 64.03125 C 5.570312 63.832031 5.882812 63.820312 6.082031 64.003906 L 7.761719 65.675781 C 7.953125 65.871094 7.953125 66.1875 7.761719 66.386719 C 7.664062 66.488281 7.53125 66.546875 7.390625 66.542969" fill="#3d1e04"/></g><g><path d="M 84.773438 58.863281 C 85.757812 56.65625 84.765625 54.066406 82.554688 53.082031 C 80.347656 52.09375 77.757812 53.085938 76.773438 55.296875 C 76.265625 56.429688 76.265625 57.730469 76.773438 58.863281 C 77.136719 59.691406 77.003906 60.65625 76.429688 61.355469 C 74.425781 63.75 74.742188 67.320312 77.136719 69.328125 C 79.535156 71.335938 83.105469 71.019531 85.109375 68.621094 C 85.96875 67.597656 86.433594 66.308594 86.429688 64.972656 C 86.429688 63.636719 85.953125 62.339844 85.082031 61.324219 C 84.523438 60.628906 84.402344 59.675781 84.773438 58.863281" fill="#5fe874"/></g><g><path d="M 80.078125 70.605469 C 80.066406 70.605469 80.058594 70.605469 80.050781 70.605469 C 80.050781 70.605469 80.054688 70.605469 80.054688 70.605469 C 80.0625 70.605469 80.070312 70.605469 80.078125 70.605469 M 85.082031 61.324219 C 84.523438 60.628906 84.402344 59.675781 84.773438 58.863281 C 84.914062 58.539062 85.019531 58.207031 85.082031 57.871094 C 85.019531 58.214844 84.921875 58.554688 84.78125 58.875 C 84.417969 59.683594 84.535156 60.628906 85.082031 61.324219" fill="#ccc"/></g><g><path d="M 81.109375 70.59375 C 80.964844 70.566406 80.820312 70.535156 80.679688 70.496094 C 83.144531 69.929688 84.972656 67.773438 85.082031 65.195312 C 85.144531 63.785156 84.675781 62.40625 83.773438 61.324219 C 83.207031 60.621094 83.078125 59.660156 83.441406 58.835938 C 84.402344 56.621094 83.386719 54.046875 81.167969 53.085938 C 81.035156 53.027344 80.898438 52.976562 80.757812 52.933594 C 80.9375 52.875 81.121094 52.828125 81.308594 52.792969 C 83.339844 53.042969 84.972656 54.695312 85.132812 56.808594 C 85.15625 57.167969 85.140625 57.523438 85.082031 57.871094 C 85.019531 58.207031 84.914062 58.539062 84.773438 58.863281 C 84.402344 59.675781 84.523438 60.628906 85.082031 61.324219 C 85.984375 62.40625 86.449219 63.785156 86.382812 65.195312 C 86.25 68.082031 83.972656 70.398438 81.109375 70.59375 M 80.203125 52.792969 C 80.164062 52.789062 80.121094 52.78125 80.082031 52.773438 C 80.144531 52.769531 80.203125 52.765625 80.265625 52.765625 C 80.320312 52.765625 80.375 52.769531 80.429688 52.773438 C 80.355469 52.777344 80.277344 52.785156 80.203125 52.792969 M 81.0625 52.773438 C 80.960938 52.765625 80.855469 52.761719 80.757812 52.761719 C 80.761719 52.761719 80.769531 52.761719 80.777344 52.761719 C 80.878906 52.761719 80.980469 52.765625 81.082031 52.773438 C 81.074219 52.773438 81.066406 52.773438 81.0625 52.773438" fill="#4cba5d"/></g><g><path d="M 81 70.660156 C 80.863281 70.660156 80.722656 70.65625 80.585938 70.644531 C 80.648438 70.648438 80.707031 70.648438 80.769531 70.648438 C 80.941406 70.648438 81.117188 70.640625 81.289062 70.625 C 81.335938 70.632812 81.382812 70.636719 81.429688 70.644531 C 81.289062 70.65625 81.144531 70.660156 81 70.660156 M 80.121094 70.613281 C 80.105469 70.609375 80.089844 70.609375 80.078125 70.605469 C 80.09375 70.609375 80.105469 70.609375 80.121094 70.613281 M 80.054688 70.605469 C 78.988281 70.46875 77.980469 70.035156 77.148438 69.347656 C 74.734375 67.351562 74.394531 63.777344 76.390625 61.363281 C 76.964844 60.664062 77.09375 59.703125 76.730469 58.875 C 76.449219 58.226562 76.328125 57.515625 76.378906 56.808594 C 76.417969 56.292969 76.546875 55.804688 76.746094 55.355469 C 76.265625 56.476562 76.273438 57.75 76.773438 58.863281 C 77.136719 59.691406 77.003906 60.65625 76.429688 61.355469 C 74.425781 63.75 74.742188 67.320312 77.136719 69.328125 C 78 70.050781 79.015625 70.472656 80.054688 70.605469" fill="#fff"/></g><g><path d="M 80.769531 70.648438 C 80.707031 70.648438 80.648438 70.648438 80.585938 70.644531 C 80.582031 70.644531 80.574219 70.644531 80.570312 70.644531 C 80.417969 70.640625 80.269531 70.628906 80.121094 70.613281 C 80.105469 70.609375 80.09375 70.609375 80.078125 70.605469 C 80.210938 70.617188 80.347656 70.621094 80.480469 70.621094 C 80.625 70.621094 80.769531 70.613281 80.910156 70.605469 C 80.976562 70.601562 81.042969 70.597656 81.109375 70.59375 C 81.167969 70.605469 81.230469 70.617188 81.289062 70.625 C 81.117188 70.640625 80.941406 70.648438 80.769531 70.648438 M 80.054688 70.605469 C 79.015625 70.472656 78 70.050781 77.136719 69.328125 C 74.742188 67.320312 74.425781 63.75 76.429688 61.355469 C 77.003906 60.65625 77.136719 59.691406 76.773438 58.863281 C 76.273438 57.75 76.265625 56.476562 76.746094 55.355469 C 77.363281 53.972656 78.671875 52.980469 80.203125 52.792969 C 80.390625 52.828125 80.578125 52.875 80.757812 52.933594 C 80.621094 52.976562 80.484375 53.027344 80.347656 53.085938 C 78.136719 54.046875 77.121094 56.621094 78.082031 58.835938 C 78.457031 59.65625 78.335938 60.621094 77.773438 61.324219 C 76.867188 62.40625 76.402344 63.785156 76.46875 65.195312 C 76.554688 67.722656 78.292969 69.855469 80.679688 70.496094 C 80.476562 70.542969 80.269531 70.578125 80.054688 70.605469 M 81.308594 52.792969 C 81.234375 52.785156 81.15625 52.777344 81.082031 52.773438 C 81.136719 52.769531 81.191406 52.765625 81.246094 52.765625 C 81.308594 52.765625 81.367188 52.769531 81.429688 52.773438 C 81.390625 52.78125 81.347656 52.789062 81.308594 52.792969 M 80.453125 52.773438 C 80.445312 52.773438 80.4375 52.773438 80.429688 52.773438 C 80.53125 52.765625 80.632812 52.761719 80.734375 52.761719 C 80.742188 52.761719 80.75 52.761719 80.757812 52.761719 C 80.65625 52.761719 80.554688 52.765625 80.453125 52.773438" fill="#aff4ba"/></g><g><path d="M 80.480469 70.621094 C 80.347656 70.621094 80.210938 70.617188 80.078125 70.605469 C 80.070312 70.605469 80.0625 70.605469 80.054688 70.605469 C 80.269531 70.578125 80.476562 70.542969 80.679688 70.496094 C 80.820312 70.535156 80.964844 70.566406 81.109375 70.59375 C 81.042969 70.597656 80.976562 70.601562 80.910156 70.605469 C 80.769531 70.613281 80.625 70.621094 80.480469 70.621094 M 80.757812 52.933594 C 80.578125 52.875 80.390625 52.828125 80.203125 52.792969 C 80.277344 52.785156 80.355469 52.777344 80.429688 52.773438 C 80.4375 52.773438 80.445312 52.773438 80.453125 52.773438 C 80.554688 52.765625 80.65625 52.761719 80.757812 52.761719 C 80.855469 52.761719 80.960938 52.765625 81.0625 52.773438 C 81.066406 52.773438 81.074219 52.773438 81.082031 52.773438 C 81.15625 52.777344 81.234375 52.785156 81.308594 52.792969 C 81.121094 52.828125 80.9375 52.875 80.757812 52.933594" fill="#a6ddae"/></g><g><path d="M 84.773438 58.863281 Z M 80.773438 53.222656 C 78.621094 53.234375 76.890625 54.988281 76.902344 57.136719 C 76.90625 57.652344 77.011719 58.160156 77.210938 58.636719 C 77.65625 59.628906 77.5 60.789062 76.8125 61.636719 C 74.988281 63.828125 75.292969 67.082031 77.484375 68.902344 C 79.675781 70.722656 82.929688 70.417969 84.75 68.226562 C 85.519531 67.300781 85.941406 66.136719 85.941406 64.933594 C 85.9375 63.730469 85.515625 62.5625 84.75 61.636719 C 84.050781 60.796875 83.886719 59.632812 84.332031 58.636719 C 85.175781 56.660156 84.265625 54.371094 82.289062 53.527344 C 81.90625 53.359375 81.496094 53.261719 81.082031 53.222656 Z M 80.773438 71.105469 L 80.570312 71.105469 C 77.171875 70.972656 74.523438 68.105469 74.65625 64.707031 C 74.710938 63.351562 75.210938 62.046875 76.082031 61.003906 C 76.546875 60.445312 76.648438 59.664062 76.339844 59.003906 C 76.074219 58.394531 75.9375 57.730469 75.941406 57.0625 C 75.941406 55.714844 76.503906 54.425781 77.492188 53.503906 C 78.460938 52.601562 79.761719 52.144531 81.082031 52.234375 C 83.515625 52.40625 85.453125 54.347656 85.609375 56.785156 C 85.660156 57.566406 85.523438 58.347656 85.203125 59.0625 C 84.929688 59.71875 85.050781 60.46875 85.511719 61.003906 C 86.425781 62.113281 86.929688 63.507812 86.929688 64.945312 C 86.929688 68.347656 84.171875 71.105469 80.773438 71.105469" fill="#3d1e04"/></g><g clip-path="url(#f)"><path d="M 80.773438 75.65625 C 80.496094 75.65625 80.273438 75.429688 80.273438 75.15625 L 80.273438 58.464844 C 80.273438 58.1875 80.496094 57.964844 80.773438 57.964844 C 81.042969 57.96875 81.265625 58.191406 81.273438 58.464844 L 81.273438 75.15625 C 81.265625 75.429688 81.042969 75.648438 80.773438 75.65625" fill="#3d1e04"/></g><g><path d="M 80.773438 59.003906 C 80.636719 59.007812 80.507812 58.957031 80.410156 58.863281 C 80.21875 58.667969 80.21875 58.351562 80.410156 58.15625 L 82.082031 56.445312 C 82.273438 56.25 82.589844 56.25 82.78125 56.445312 C 82.972656 56.636719 82.972656 56.953125 82.78125 57.144531 L 81.082031 58.824219 C 81.003906 58.921875 80.894531 58.984375 80.773438 59.003906" fill="#3d1e04"/></g><g><path d="M 80.773438 59.003906 C 80.636719 59.007812 80.507812 58.957031 80.410156 58.863281 L 78.742188 57.183594 C 78.546875 57.003906 78.539062 56.699219 78.71875 56.507812 L 78.742188 56.484375 C 78.933594 56.289062 79.253906 56.285156 79.449219 56.480469 L 81.082031 58.113281 C 81.273438 58.3125 81.273438 58.628906 81.074219 58.824219 C 80.980469 58.910156 80.859375 58.960938 80.730469 58.964844 L 80.773438 59.003906" fill="#3d1e04"/></g><g><path d="M 80.773438 62.753906 C 80.636719 62.757812 80.507812 62.707031 80.410156 62.613281 C 80.21875 62.417969 80.21875 62.101562 80.410156 61.90625 L 82.082031 60.234375 C 82.273438 60.042969 82.589844 60.042969 82.78125 60.234375 C 82.972656 60.425781 82.972656 60.742188 82.78125 60.933594 L 81.082031 62.613281 C 80.996094 62.699219 80.886719 62.746094 80.773438 62.753906" fill="#3d1e04"/></g><g><path d="M 80.773438 62.753906 C 80.636719 62.757812 80.507812 62.707031 80.410156 62.613281 L 78.742188 60.933594 C 78.546875 60.753906 78.539062 60.449219 78.71875 60.257812 L 78.742188 60.234375 C 78.933594 60.039062 79.253906 60.035156 79.449219 60.230469 L 79.453125 60.234375 L 81.082031 61.90625 C 81.273438 62.101562 81.273438 62.417969 81.074219 62.613281 C 80.980469 62.703125 80.859375 62.753906 80.730469 62.753906 L 80.773438 62.753906" fill="#3d1e04"/></g><g><path d="M 80.773438 66.542969 C 80.636719 66.546875 80.507812 66.496094 80.410156 66.40625 C 80.21875 66.207031 80.21875 65.894531 80.410156 65.695312 L 82.082031 64.003906 C 82.273438 63.8125 82.589844 63.8125 82.78125 64.003906 C 82.972656 64.199219 82.972656 64.511719 82.78125 64.707031 L 81.082031 66.40625 C 80.996094 66.488281 80.886719 66.535156 80.773438 66.542969" fill="#3d1e04"/></g><g><path d="M 80.773438 66.542969 C 80.636719 66.546875 80.507812 66.496094 80.410156 66.40625 L 78.742188 64.722656 C 78.546875 64.542969 78.539062 64.238281 78.71875 64.046875 L 78.742188 64.023438 C 78.933594 63.828125 79.253906 63.828125 79.449219 64.023438 L 79.453125 64.023438 L 81.082031 65.695312 C 81.273438 65.890625 81.273438 66.207031 81.074219 66.402344 C 80.980469 66.492188 80.859375 66.542969 80.730469 66.542969 L 80.773438 66.542969" fill="#3d1e04"/></g></g></svg>