<?xml version="1.0" encoding="UTF-8" standalone="no"?><svg xmlns="http://www.w3.org/2000/svg" xmlns:xlink="http://www.w3.org/1999/xlink" fill="#ffbd59" height="115.8" preserveAspectRatio="xMidYMid meet" version="1" viewBox="5.7 5.7 116.0 115.8" width="116" zoomAndPan="magnify"><g id="change1_1"><path d="M 68.917969 45.601562 C 68.753906 45.511719 68.585938 45.417969 68.441406 45.304688 C 68.183594 45.101562 67.824219 45.089844 67.554688 45.277344 C 67.28125 45.460938 67.164062 45.796875 67.257812 46.113281 C 67.464844 46.792969 67.660156 47.441406 67.726562 48.128906 C 67.863281 49.800781 67.363281 50.703125 66.734375 51.847656 C 66.300781 52.628906 65.816406 53.511719 65.476562 54.734375 C 65.28125 55.460938 64.320312 56.003906 63.390625 56.527344 C 62.765625 56.882812 62.117188 57.246094 61.636719 57.714844 C 61.628906 57.71875 61.605469 57.734375 61.523438 57.773438 C 61.261719 57.890625 61.085938 58.144531 61.078125 58.433594 C 61.066406 58.722656 60.980469 59.0625 60.890625 59.425781 C 60.773438 59.890625 60.652344 60.371094 60.652344 60.882812 C 60.652344 60.886719 60.640625 60.914062 60.589844 60.992188 C 60.566406 61.027344 60.546875 61.066406 60.527344 61.105469 C 60.296875 61.625 60.296875 62.175781 60.53125 62.695312 C 61.039062 63.832031 62.660156 64.824219 65.484375 65.734375 C 65.558594 65.757812 65.636719 65.769531 65.714844 65.769531 C 65.917969 65.769531 66.117188 65.6875 66.261719 65.53125 C 66.460938 65.320312 66.519531 65.011719 66.410156 64.742188 C 66.070312 63.894531 65.5 63.257812 64.996094 62.695312 C 64.175781 61.78125 63.582031 61.121094 63.839844 59.785156 C 64.039062 58.710938 64.984375 57.949219 65.980469 57.140625 C 66.394531 56.808594 66.820312 56.460938 67.195312 56.089844 C 68.046875 55.238281 71.28125 55.496094 72.375 55.582031 C 73.011719 55.625 73.703125 56.003906 74.4375 56.402344 C 75.074219 56.753906 75.738281 57.113281 76.433594 57.285156 C 78.433594 57.777344 79.964844 57.734375 81.71875 57.144531 C 81.90625 57.078125 82.0625 56.941406 82.152344 56.761719 C 82.238281 56.582031 82.25 56.371094 82.183594 56.183594 C 82.058594 55.820312 81.84375 55.507812 81.519531 55.21875 C 81.289062 55.015625 81.160156 54.820312 81.132812 54.632812 C 81.070312 54.230469 80.695312 53.945312 80.289062 54 C 78.558594 54.230469 76.746094 54.082031 75.5625 53.609375 C 75.269531 53.496094 74.980469 53.363281 74.691406 53.234375 C 74.3125 53.066406 73.921875 52.902344 73.527344 52.757812 C 73.667969 52.75 73.816406 52.71875 73.964844 52.636719 C 75.15625 52 76.761719 51.367188 77.125 49.984375 C 78.023438 50.402344 79.023438 49.972656 79.6875 49.683594 C 79.914062 49.585938 80.136719 49.484375 80.339844 49.429688 C 80.550781 49.371094 80.671875 49.433594 81.113281 49.816406 C 81.203125 49.890625 81.289062 49.96875 81.382812 50.042969 C 81.464844 50.109375 81.554688 50.175781 81.648438 50.246094 C 81.851562 50.398438 82.066406 50.554688 82.152344 50.707031 C 82.195312 50.78125 82.25 50.882812 82.304688 50.992188 C 82.394531 51.171875 82.550781 51.304688 82.742188 51.367188 C 82.816406 51.394531 82.898438 51.40625 82.976562 51.40625 C 83.09375 51.40625 83.210938 51.378906 83.316406 51.328125 C 83.617188 51.175781 83.996094 51.070312 84.335938 50.976562 C 84.957031 50.800781 85.597656 50.625 85.675781 49.972656 C 85.757812 49.328125 85.148438 48.984375 84.917969 48.851562 C 84.84375 48.808594 84.714844 48.738281 84.785156 48.488281 C 84.871094 48.191406 84.765625 47.871094 84.519531 47.6875 C 83.570312 46.960938 82.902344 45.921875 82.414062 44.414062 C 82.351562 44.21875 82.214844 44.058594 82.03125 43.96875 C 81.847656 43.882812 81.636719 43.871094 81.445312 43.941406 C 81.390625 43.960938 81.328125 43.96875 81.253906 43.96875 C 81.035156 43.96875 80.828125 44.0625 80.6875 44.226562 C 80.011719 45.003906 78.777344 45.550781 77.617188 45.582031 C 77.414062 45.589844 77.21875 45.675781 77.082031 45.828125 C 77.035156 45.882812 76.972656 45.921875 76.886719 45.949219 C 76.648438 46.035156 76.394531 46.085938 76.109375 46.09375 C 75.796875 46.109375 75.527344 46.3125 75.425781 46.609375 C 75.328125 46.90625 75.425781 47.230469 75.667969 47.425781 C 75.804688 47.539062 75.867188 47.617188 75.90625 47.71875 C 75.933594 47.800781 75.949219 47.953125 75.960938 48.105469 C 75.964844 48.199219 75.976562 48.300781 75.988281 48.40625 C 75.5625 48.480469 75.1875 48.78125 75.195312 49.34375 C 75.203125 49.726562 74.78125 49.925781 74.480469 50.09375 C 73.976562 50.375 73.464844 50.636719 72.957031 50.910156 C 72.207031 51.308594 72.398438 52.1875 72.941406 52.570312 C 72.511719 52.453125 72.066406 52.363281 71.589844 52.355469 C 71.320312 52.351562 71.058594 52.359375 70.796875 52.363281 C 70.28125 52.375 69.792969 52.382812 69.308594 52.316406 C 69.230469 52.285156 69.113281 52.097656 69.113281 52.019531 C 69.125 51.765625 69.242188 51.484375 69.371094 51.191406 C 69.542969 50.785156 69.738281 50.324219 69.738281 49.78125 C 69.738281 48.683594 69.601562 47.660156 69.289062 46.457031 C 69.285156 46.417969 69.292969 46.378906 69.296875 46.328125 C 69.328125 46.035156 69.179688 45.75 68.917969 45.601562" fill="inherit"/><path d="M 56.199219 25.285156 C 55.851562 25.214844 55.503906 25.394531 55.363281 25.71875 C 55.097656 26.328125 54.765625 26.464844 54.535156 26.515625 C 53.730469 26.6875 52.371094 26.046875 51.085938 24.882812 C 50.648438 24.476562 49.972656 24.417969 49.191406 24.351562 C 48.523438 24.296875 47.769531 24.234375 47.308594 23.945312 C 47.039062 23.773438 46.6875 23.796875 46.441406 23.996094 C 45.808594 24.511719 44.902344 24.851562 43.742188 25.015625 C 43.480469 25.050781 43.230469 25.125 42.984375 25.199219 C 42.855469 25.238281 42.734375 25.277344 42.589844 25.308594 C 42.523438 25.285156 42.441406 25.25 42.367188 25.214844 C 42.335938 25.109375 42.28125 25.011719 42.203125 24.925781 C 41.925781 24.621094 41.453125 24.597656 41.148438 24.875 C 41.144531 24.878906 41.144531 24.878906 41.140625 24.882812 C 41.035156 24.980469 40.988281 24.96875 40.96875 24.964844 C 40.867188 24.941406 40.707031 24.804688 40.621094 24.605469 C 40.558594 24.449219 40.507812 24.300781 40.429688 24.089844 C 40.292969 23.707031 39.871094 23.503906 39.488281 23.632812 C 39.203125 23.726562 38.914062 23.804688 38.625 23.855469 C 38.324219 23.914062 38.085938 24.148438 38.027344 24.449219 C 38.003906 24.5625 38 24.671875 38.003906 24.707031 C 37.992188 24.847656 37.9375 25.09375 37.71875 25.144531 C 37.515625 25.199219 37.320312 25.257812 37.117188 25.320312 C 36.828125 25.40625 36.535156 25.496094 36.230469 25.5625 C 35.972656 25.617188 35.761719 25.804688 35.675781 26.054688 C 35.59375 26.304688 35.644531 26.578125 35.816406 26.78125 L 35.890625 26.867188 C 36.425781 27.503906 36.953125 27.988281 38.449219 28.03125 C 40.066406 28.0625 42.132812 28.535156 42.800781 30.601562 C 42.871094 30.816406 43.035156 30.988281 43.246094 31.070312 C 43.460938 31.152344 43.699219 31.132812 43.894531 31.015625 C 44.117188 30.882812 44.363281 30.761719 44.636719 30.648438 C 44.785156 30.589844 45.015625 30.589844 45.257812 30.589844 C 45.691406 30.601562 46.246094 30.589844 46.765625 30.242188 C 46.796875 30.222656 46.824219 30.203125 46.851562 30.175781 C 47.007812 30.039062 47.179688 29.9375 47.296875 29.890625 C 48.105469 29.714844 48.21875 29.75 48.984375 30.117188 C 50.269531 30.742188 52.128906 31.492188 53.484375 30.816406 C 54.085938 30.515625 54.171875 30.488281 54.777344 30.695312 C 54.957031 30.753906 55.046875 30.851562 55.21875 31.058594 C 55.519531 31.410156 55.988281 31.945312 57.023438 31.917969 C 57.476562 31.917969 58.121094 32.238281 58.601562 32.730469 C 59.105469 33.242188 59.414062 33.769531 59.574219 34.382812 C 59.648438 34.660156 59.871094 34.871094 60.152344 34.929688 C 60.425781 34.984375 60.675781 35.101562 60.964844 35.234375 C 61.152344 35.324219 61.34375 35.414062 61.546875 35.488281 C 61.621094 35.519531 61.691406 35.570312 61.769531 35.648438 C 61.917969 35.796875 62.109375 35.871094 62.300781 35.871094 C 62.472656 35.871094 62.644531 35.8125 62.78125 35.695312 C 63.292969 35.265625 63.820312 34.699219 64.375 34.097656 C 64.878906 33.554688 65.398438 32.992188 65.929688 32.515625 C 66.207031 32.261719 66.257812 31.84375 66.046875 31.535156 C 65.984375 31.445312 65.972656 31.378906 66.003906 31.277344 C 66.007812 31.273438 66.007812 31.265625 66.011719 31.257812 C 66.238281 30.445312 66.121094 29.523438 66.003906 28.636719 C 65.933594 28.117188 65.871094 27.625 65.886719 27.230469 C 65.964844 25.6875 64.296875 25.589844 63.398438 25.535156 C 63.097656 25.519531 62.597656 25.488281 62.453125 25.410156 C 62.0625 25.179688 61.570312 25 61.046875 24.808594 L 60.53125 24.617188 C 60.246094 24.511719 59.925781 24.585938 59.71875 24.804688 C 59.183594 25.371094 57.671875 25.578125 56.199219 25.285156" fill="inherit"/><path d="M 66.1875 45.210938 C 65.90625 44.0625 65.667969 43.070312 64.316406 42.03125 C 63.96875 41.757812 63.636719 41.476562 63.300781 41.195312 L 62.792969 40.769531 C 62.523438 40.542969 62.132812 40.535156 61.855469 40.75 C 61.578125 40.964844 61.484375 41.34375 61.632812 41.660156 C 61.871094 42.171875 61.984375 42.617188 61.976562 43 C 61.945312 43.742188 61.949219 44.492188 61.953125 45.242188 C 61.960938 46.5625 61.96875 47.929688 61.761719 49.207031 C 61.6875 49.644531 61.238281 49.992188 60.71875 50.394531 C 60.085938 50.882812 59.367188 51.4375 59.082031 52.367188 C 58.878906 53.046875 58.058594 53.53125 57.085938 54.046875 C 56.878906 54.15625 56.734375 54.359375 56.699219 54.59375 C 56.664062 54.828125 56.738281 55.066406 56.90625 55.234375 L 57.074219 55.390625 C 57.734375 56.140625 58.558594 56.519531 59.285156 56.851562 C 59.59375 56.992188 59.90625 57.132812 60.199219 57.304688 C 60.3125 57.371094 60.441406 57.40625 60.566406 57.40625 C 60.699219 57.40625 60.832031 57.371094 60.949219 57.300781 C 61.023438 57.257812 61.089844 57.203125 61.144531 57.140625 C 61.484375 56.824219 61.925781 56.542969 62.390625 56.246094 C 63.492188 55.542969 64.738281 54.75 64.738281 53.230469 C 64.738281 52.351562 65.042969 52.191406 65.648438 51.871094 C 67.191406 51.050781 67.800781 49.984375 66.617188 46.699219 C 66.414062 46.144531 66.300781 45.671875 66.1875 45.210938" fill="inherit"/><path d="M 93.878906 57.417969 C 94.445312 57.464844 95.011719 57.484375 95.574219 57.503906 C 96.5 57.535156 97.375 57.566406 98.234375 57.714844 C 98.308594 57.730469 98.386719 57.738281 98.460938 57.738281 C 98.730469 57.738281 98.988281 57.644531 99.257812 57.542969 C 99.402344 57.488281 99.5625 57.429688 99.734375 57.386719 C 100.125 57.289062 100.371094 56.898438 100.285156 56.503906 L 100.21875 56.199219 C 100.121094 55.777344 100.019531 55.335938 100.109375 55.035156 C 100.191406 54.75 100.105469 54.445312 99.882812 54.253906 C 99.660156 54.058594 99.34375 54.015625 99.074219 54.140625 C 97.910156 54.675781 96.59375 54.691406 95.675781 54.148438 C 95.621094 54.121094 95.5625 54.074219 95.425781 53.964844 C 95.179688 53.773438 94.84375 53.757812 94.574219 53.917969 C 94.308594 54.078125 94.171875 54.386719 94.226562 54.691406 C 94.265625 54.898438 94.265625 55.054688 94.230469 55.183594 C 94.167969 55.410156 94.027344 55.636719 93.835938 55.8125 C 93.789062 55.855469 93.714844 55.90625 93.640625 55.960938 L 93.488281 56.070312 C 93.242188 56.257812 93.132812 56.578125 93.21875 56.878906 C 93.304688 57.175781 93.566406 57.390625 93.878906 57.417969" fill="inherit"/><path d="M 90.242188 58.523438 C 90.515625 58.566406 90.785156 58.460938 90.957031 58.246094 C 90.992188 58.195312 91.035156 58.160156 91.214844 58.167969 C 91.855469 58.167969 91.984375 57.667969 92.222656 56.753906 C 92.273438 56.554688 92.316406 56.371094 92.332031 56.328125 C 92.480469 56.039062 92.65625 55.882812 92.917969 55.648438 C 93.042969 55.539062 93.171875 55.421875 93.308594 55.289062 C 93.523438 55.074219 93.585938 54.75 93.46875 54.46875 C 93.441406 54.398438 93.402344 54.335938 93.355469 54.277344 C 93.269531 54.082031 93.109375 53.589844 93.089844 53.496094 C 93.089844 53.285156 93.183594 53.09375 93.414062 52.835938 C 93.445312 52.820312 93.492188 52.792969 93.503906 52.785156 C 93.707031 52.660156 93.839844 52.449219 93.859375 52.210938 C 93.882812 51.972656 93.789062 51.738281 93.609375 51.582031 C 93.449219 51.441406 93.277344 51.34375 93.085938 51.246094 C 92.359375 50.921875 91.59375 50.496094 91.382812 49.792969 C 91.324219 49.59375 91.183594 49.429688 91 49.335938 C 90.816406 49.246094 90.605469 49.230469 90.410156 49.300781 C 90.300781 49.339844 90.164062 49.386719 90.003906 49.4375 L 89.714844 49.535156 C 89.417969 49.632812 88.734375 49.414062 88.375 49.109375 C 88.074219 48.839844 87.757812 48.667969 87.433594 48.597656 C 87.15625 48.539062 86.863281 48.644531 86.6875 48.867188 C 86.511719 49.09375 86.476562 49.402344 86.601562 49.660156 C 86.804688 50.078125 86.945312 50.433594 87.046875 50.792969 C 87.089844 50.9375 87.003906 51.140625 86.910156 51.191406 C 86.777344 51.257812 86.359375 51.371094 85.996094 51.472656 C 84.5625 51.867188 82.78125 52.355469 82.449219 53.621094 C 82.28125 54.265625 82.527344 54.921875 83.183594 55.574219 C 83.34375 55.734375 83.398438 56.242188 83.289062 56.609375 C 83.101562 57.308594 83.332031 57.726562 83.558594 57.957031 C 84.203125 58.597656 85.320312 58.285156 86.308594 58.015625 C 86.515625 57.960938 86.699219 57.90625 86.84375 57.882812 C 86.992188 57.851562 87.109375 57.867188 87.191406 57.925781 C 87.289062 57.996094 87.359375 58.144531 87.382812 58.320312 C 87.402344 58.503906 87.46875 59.058594 87.984375 59.242188 C 88.082031 59.277344 88.175781 59.292969 88.265625 59.292969 C 88.625 59.292969 88.890625 59.035156 89.046875 58.882812 C 89.207031 58.730469 89.382812 58.558594 89.574219 58.542969 C 89.886719 58.511719 90.097656 58.5 90.242188 58.523438" fill="inherit"/><path d="M 51.339844 99.628906 C 51.363281 100.011719 51.675781 100.320312 52.0625 100.332031 C 53.5 100.386719 55.058594 100.296875 56.4375 100.214844 C 57.683594 100.144531 58.859375 100.074219 59.65625 100.132812 L 60.640625 100.207031 C 63.242188 100.410156 66.070312 100.628906 68.835938 100.628906 C 70.351562 100.628906 71.851562 100.5625 73.28125 100.390625 C 77.117188 99.917969 81.242188 99.640625 86.257812 99.507812 C 86.597656 99.5 86.886719 99.265625 86.96875 98.9375 C 87.046875 98.605469 86.898438 98.265625 86.601562 98.101562 C 82.5 95.839844 82.171875 95.015625 82.167969 94.835938 C 82.429688 94.515625 82.386719 94.042969 82.066406 93.78125 C 81.746094 93.515625 81.273438 93.5625 81.011719 93.882812 C 81.011719 93.882812 81.007812 93.882812 81.007812 93.886719 C 79.839844 95.304688 76.914062 97.347656 75.242188 96.363281 C 74.3125 95.816406 74.976562 93.78125 75.460938 92.292969 C 75.546875 92.027344 75.632812 91.769531 75.707031 91.527344 C 75.78125 91.28125 75.726562 91.015625 75.558594 90.820312 C 75.394531 90.625 75.140625 90.53125 74.882812 90.566406 C 73.894531 90.703125 70.636719 91.324219 70.238281 93.480469 C 70.214844 93.609375 70.167969 93.664062 70.101562 93.707031 C 69.859375 93.863281 69.308594 93.875 68.757812 93.742188 C 67.710938 93.484375 67.046875 94.28125 66.613281 94.808594 C 66.464844 94.988281 66.222656 95.285156 66.117188 95.324219 C 65.734375 95.449219 65.457031 95.5 65.246094 95.542969 C 64.09375 95.765625 63.953125 96.234375 63.722656 97.5625 C 63.613281 98.214844 62.351562 98.652344 61.578125 98.597656 C 61.378906 98.585938 61.246094 98.507812 61.234375 98.488281 C 60.976562 97.910156 60.785156 97.488281 51.976562 98.84375 C 51.59375 98.902344 51.316406 99.242188 51.339844 99.628906" fill="inherit"/><path d="M 69.230469 89.300781 C 69.101562 89.726562 68.980469 90.128906 68.761719 90.503906 C 68.585938 90.792969 68.335938 91.042969 68.070312 91.308594 C 67.96875 91.410156 67.867188 91.515625 67.769531 91.621094 C 67.558594 91.839844 67.542969 92.164062 67.667969 92.441406 C 67.78125 92.695312 68.0625 92.863281 68.34375 92.878906 C 68.457031 92.90625 68.566406 92.917969 68.664062 92.917969 C 69.441406 92.917969 69.851562 92.203125 70.136719 91.714844 C 70.390625 91.277344 70.652344 90.824219 71.105469 90.554688 C 71.6875 90.214844 73.21875 89.917969 75.105469 89.78125 C 75.449219 89.757812 75.734375 89.5 75.792969 89.160156 C 76.285156 86.257812 74.871094 82.347656 74.421875 81.21875 C 73.933594 80.003906 73.199219 79.089844 72.484375 78.203125 C 71.960938 77.554688 71.464844 76.941406 71.074219 76.222656 C 70.777344 75.683594 70.707031 75.3125 70.648438 74.988281 C 70.445312 73.929688 70.082031 73.488281 68.3125 72.964844 C 67.476562 72.71875 66.183594 71.457031 65.144531 70.445312 C 64.476562 69.789062 63.84375 69.171875 63.285156 68.753906 C 62.605469 68.253906 61.328125 68.074219 59.972656 67.886719 C 59.15625 67.769531 58.308594 67.652344 57.84375 67.484375 C 57.429688 67.324219 56.820312 66.828125 56.328125 66.429688 C 55.992188 66.160156 55.679688 65.90625 55.402344 65.722656 C 55.183594 65.585938 54.957031 65.441406 54.742188 65.269531 C 54.503906 65.078125 54.167969 65.054688 53.902344 65.207031 C 53.636719 65.359375 53.488281 65.660156 53.535156 65.964844 C 53.851562 68.160156 54.6875 70.785156 58.378906 71.578125 C 61.234375 72.199219 62.15625 72.578125 63.941406 74.628906 C 64.054688 74.765625 64.167969 75.035156 64.003906 75.195312 C 63.789062 75.394531 63.671875 75.660156 63.671875 75.949219 C 63.667969 76.597656 64.226562 77.175781 65.011719 77.917969 C 65.152344 78.050781 65.335938 78.222656 65.425781 78.324219 C 65.445312 78.382812 65.46875 78.445312 65.484375 78.476562 C 65.558594 78.621094 65.679688 78.738281 65.824219 78.808594 C 66.933594 79.34375 67.34375 79.78125 67.507812 80.066406 C 67.605469 80.230469 67.632812 80.40625 67.671875 80.621094 C 67.738281 81.019531 67.832031 81.566406 68.390625 82.058594 C 68.695312 82.324219 69.003906 82.585938 69.3125 82.84375 C 69.890625 83.324219 70.433594 83.78125 70.941406 84.292969 C 71.660156 85.03125 71.0625 86.347656 70.429688 87.007812 C 69.683594 87.800781 69.441406 88.597656 69.230469 89.300781" fill="inherit"/><path d="M 99.996094 46.699219 C 99.210938 46.074219 97.976562 46.652344 96.867188 47.300781 C 96.785156 47.347656 96.671875 47.363281 96.570312 47.335938 C 96.519531 47.320312 96.425781 47.28125 96.371094 47.183594 C 94.835938 44.398438 93.609375 44.335938 91.199219 44.476562 C 90.929688 44.492188 90.636719 44.507812 90.265625 44.523438 C 90.058594 44.550781 89.898438 44.550781 89.699219 44.535156 C 89.332031 44.511719 89.3125 44.207031 89.316406 44.117188 C 89.324219 43.796875 89.566406 43.796875 89.609375 43.792969 C 90.054688 43.820312 90.46875 43.667969 90.769531 43.367188 C 91.160156 42.976562 91.34375 42.367188 91.300781 41.632812 C 91.300781 41.558594 91.375 41.410156 91.417969 41.382812 C 91.648438 41.277344 92.039062 41.105469 92.136719 40.660156 C 92.226562 40.234375 91.96875 39.945312 91.832031 39.789062 C 91.714844 39.65625 91.554688 39.476562 91.40625 39.125 C 91.15625 38.546875 90.800781 38.207031 90.347656 38.121094 C 89.632812 37.976562 89.085938 38.527344 88.648438 38.964844 L 88.519531 39.089844 C 88.414062 39.191406 88.277344 39.230469 88.160156 39.199219 C 87.585938 39.03125 87.464844 38.964844 87.410156 38.789062 C 87.082031 37.621094 85.367188 37.40625 84.113281 37.25 C 83.921875 37.222656 83.75 37.203125 83.617188 37.179688 C 83.304688 37.125 82.960938 37.105469 82.609375 37.089844 C 81.882812 37.050781 81.195312 37.011719 80.765625 36.582031 L 80.667969 36.488281 C 80.421875 36.242188 80.039062 36.199219 79.742188 36.382812 C 79.601562 36.46875 79.480469 36.5 79.265625 36.402344 C 78.816406 36.195312 78.398438 35.902344 77.957031 35.589844 C 77.046875 34.949219 76.011719 34.21875 74.5 34.21875 C 74.402344 34.21875 74.3125 34.179688 74.101562 34.042969 C 73.804688 33.847656 73.414062 33.886719 73.164062 34.132812 C 72.597656 34.691406 72.195312 34.765625 71.265625 34.695312 C 70.941406 34.671875 70.585938 34.269531 70.519531 33.855469 C 70.378906 32.964844 69.855469 32.667969 69.554688 32.570312 C 68.957031 32.375 67.878906 32.40625 65.382812 34.902344 C 65.023438 35.265625 64.695312 35.480469 64.40625 35.671875 C 63.558594 36.234375 63.023438 36.726562 63.273438 38.363281 C 63.355469 38.886719 63.585938 39.285156 63.960938 39.546875 C 64.65625 40.035156 65.59375 39.859375 66.421875 39.703125 C 66.757812 39.640625 67.074219 39.578125 67.335938 39.570312 C 67.449219 39.578125 67.582031 39.667969 67.65625 39.808594 C 67.6875 39.867188 67.734375 39.980469 67.667969 40.066406 C 67.472656 40.339844 67.347656 40.46875 67.285156 40.535156 C 67.082031 40.742188 66.960938 41.117188 67.066406 41.390625 C 67.167969 41.664062 67.46875 41.863281 67.761719 41.882812 C 67.972656 41.898438 68.285156 42.1875 68.410156 42.3125 C 68.582031 42.484375 68.664062 42.941406 68.738281 43.339844 C 68.820312 43.808594 68.910156 44.292969 69.164062 44.703125 C 69.246094 44.835938 69.367188 44.9375 69.507812 44.996094 C 70.164062 45.277344 70.898438 45.300781 71.609375 45.328125 C 72.070312 45.34375 72.507812 45.359375 72.898438 45.441406 C 73.101562 45.484375 73.3125 45.441406 73.480469 45.320312 C 73.652344 45.203125 73.765625 45.019531 73.792969 44.8125 C 73.816406 44.667969 73.953125 44.511719 74.109375 44.457031 C 74.210938 44.421875 74.300781 44.429688 74.390625 44.488281 L 74.660156 44.972656 C 74.800781 45.222656 75.070312 45.359375 75.355469 45.355469 C 75.640625 45.339844 75.894531 45.164062 76.003906 44.902344 C 76.085938 44.714844 76.300781 44.539062 76.457031 44.578125 C 76.617188 44.625 76.785156 44.667969 76.949219 44.707031 C 77.15625 44.808594 77.402344 44.808594 77.609375 44.703125 C 77.78125 44.617188 78.394531 44.445312 78.800781 44.328125 C 79.929688 44.003906 80.199219 43.929688 80.367188 43.511719 C 80.371094 43.492188 80.523438 43.085938 80.824219 43.175781 C 80.824219 43.175781 80.824219 43.175781 80.828125 43.175781 C 81.222656 43.296875 81.640625 43.070312 81.757812 42.671875 C 81.824219 42.460938 81.785156 42.242188 81.679688 42.066406 C 81.804688 41.84375 82.03125 41.535156 82.121094 41.414062 L 82.273438 41.203125 C 82.355469 41.078125 82.472656 40.996094 82.589844 40.984375 C 82.703125 40.972656 82.804688 41.015625 82.902344 41.105469 L 82.992188 41.1875 C 84.050781 42.171875 84.554688 42.691406 84.375 43.707031 C 84.359375 43.789062 84.183594 43.902344 84.007812 43.90625 C 83.597656 43.917969 83.273438 44.257812 83.277344 44.667969 C 83.28125 44.984375 83.480469 45.253906 83.761719 45.359375 C 84.148438 45.550781 87.117188 47.246094 88.09375 47.886719 C 89.230469 48.625 90.003906 48.453125 90.691406 48.296875 C 90.910156 48.246094 91.152344 48.191406 91.445312 48.164062 C 91.511719 48.167969 91.640625 48.25 91.679688 48.324219 C 91.734375 48.425781 91.785156 48.535156 91.84375 48.652344 C 92.199219 49.390625 92.792969 50.628906 94.394531 50.507812 C 94.546875 50.515625 94.675781 50.734375 94.734375 50.863281 C 95.242188 52.117188 96.960938 53.363281 98.355469 53.363281 C 98.582031 53.363281 98.796875 53.332031 99 53.261719 C 99.496094 53.089844 100.570312 52.441406 99.9375 50.132812 C 99.960938 50 100.046875 49.726562 100.109375 49.523438 C 100.414062 48.546875 100.792969 47.335938 99.996094 46.699219" fill="inherit"/><path d="M 85.242188 22.980469 L 85.15625 22.921875 C 84.988281 22.808594 84.765625 22.777344 84.5625 22.820312 C 83.09375 22.824219 81.847656 22.648438 80.617188 22.234375 C 80.289062 22.121094 79.921875 22.253906 79.738281 22.550781 C 79.664062 22.671875 79.578125 22.699219 79.417969 22.652344 C 79.027344 22.53125 78.605469 22.753906 78.484375 23.148438 C 78.476562 23.171875 78.472656 23.195312 78.46875 23.21875 C 78.144531 23.488281 77.675781 23.941406 77.617188 24.617188 C 77.578125 25.105469 77.757812 25.585938 78.15625 26.046875 C 78.261719 26.164062 78.3125 26.339844 78.285156 26.480469 C 78.261719 26.585938 78.207031 26.628906 78.15625 26.652344 C 78.050781 26.707031 77.957031 26.789062 77.890625 26.886719 C 77.226562 27.824219 77.019531 28.605469 77.25 29.28125 C 77.441406 29.847656 77.917969 30.25 78.65625 30.472656 C 78.714844 30.492188 78.773438 30.503906 78.832031 30.503906 C 79.917969 30.570312 81.019531 30.53125 82.136719 30.382812 C 82.320312 30.351562 82.496094 30.402344 82.597656 30.507812 C 82.671875 30.589844 82.695312 30.703125 82.660156 30.851562 C 82.515625 31.46875 82.554688 32.417969 83.535156 33.425781 C 85.261719 35.207031 89.15625 36.289062 90.601562 36.003906 C 90.78125 35.96875 90.917969 35.996094 90.953125 36.023438 C 91.507812 36.722656 93.164062 37.714844 94.625 37.714844 C 94.882812 37.714844 95.132812 37.683594 95.371094 37.617188 C 96.214844 37.371094 96.738281 36.703125 96.84375 35.746094 C 96.886719 35.441406 96.960938 35.371094 96.964844 35.371094 C 97.429688 35.167969 97.886719 34.914062 98.050781 34.449219 C 98.210938 34 98.019531 33.625 97.890625 33.375 C 97.777344 33.152344 97.683594 32.976562 97.710938 32.671875 C 97.710938 32.667969 97.710938 32.667969 97.710938 32.667969 C 97.730469 32.4375 97.765625 32.238281 97.796875 32.054688 C 97.917969 31.355469 98.042969 30.632812 97.273438 29.460938 C 97.21875 29.382812 97.242188 29.152344 97.328125 29.078125 C 97.59375 28.839844 97.65625 28.453125 97.476562 28.144531 C 97.335938 27.898438 96.902344 27.140625 96.175781 27.304688 C 95.496094 27.453125 95.363281 28.207031 95.320312 28.636719 C 95.25 28.761719 95.152344 28.855469 95.046875 28.894531 C 94.992188 28.914062 94.90625 28.929688 94.769531 28.851562 C 93.921875 28.378906 93.265625 27.953125 93.15625 27.226562 C 92.984375 26.011719 91.960938 25.742188 91.34375 25.585938 C 91 25.496094 90.671875 25.410156 90.496094 25.226562 C 89.597656 24.28125 88.996094 24.21875 88.117188 24.222656 C 87.976562 24.226562 87.824219 24.226562 87.648438 24.21875 C 87.089844 24.203125 86.921875 24.0625 86.589844 23.78125 C 86.292969 23.527344 85.925781 23.214844 85.242188 22.980469" fill="inherit"/><path d="M 67.980469 17.519531 C 67.722656 17.589844 67.496094 17.609375 67.289062 17.585938 C 67.164062 17.574219 67.039062 17.589844 66.925781 17.636719 C 66.214844 17.917969 64.90625 17.429688 63.589844 16.394531 C 63.304688 16.164062 62.894531 16.179688 62.621094 16.425781 C 62.375 16.652344 61.953125 16.796875 61.371094 16.859375 C 61.179688 16.882812 61.003906 16.972656 60.878906 17.121094 C 60.382812 17.703125 59.871094 18.082031 59.320312 18.273438 C 59.105469 18.34375 58.9375 18.511719 58.859375 18.722656 C 58.78125 18.933594 58.804688 19.167969 58.917969 19.363281 C 59.179688 19.804688 59.363281 20.492188 59.46875 21.402344 C 59.511719 21.785156 59.835938 22.070312 60.214844 22.070312 C 60.230469 22.070312 60.246094 22.070312 60.261719 22.066406 C 60.640625 22.042969 61.03125 22.054688 61.386719 22.0625 C 61.570312 22.066406 61.746094 22.070312 61.914062 22.070312 C 62.808594 22.070312 63.660156 21.933594 64.484375 21.800781 C 65.550781 21.632812 66.558594 21.472656 67.5 21.632812 C 67.890625 21.699219 68.257812 21.457031 68.351562 21.078125 C 68.59375 20.144531 68.78125 19.230469 68.917969 18.359375 C 68.957031 18.109375 68.867188 17.855469 68.675781 17.683594 C 68.488281 17.515625 68.226562 17.453125 67.980469 17.519531" fill="inherit"/><path d="M 73.417969 17.433594 C 73.226562 17.347656 72.960938 17.242188 72.632812 17.171875 C 72.164062 17.070312 71.941406 16.980469 71.59375 16.800781 C 71.367188 16.6875 71.097656 16.691406 70.878906 16.820312 C 70.65625 16.945312 70.515625 17.175781 70.503906 17.429688 C 70.453125 18.394531 69.988281 19.441406 69.535156 20.453125 C 69.257812 21.078125 68.96875 21.726562 68.773438 22.359375 C 68.734375 22.484375 68.65625 22.574219 68.554688 22.617188 C 68.4375 22.664062 68.308594 22.652344 68.183594 22.589844 C 67.039062 22 65.117188 22.289062 63.257812 22.5625 C 62.792969 22.632812 62.339844 22.699219 61.925781 22.746094 C 61.589844 22.789062 61.320312 23.050781 61.269531 23.386719 C 61.222656 23.726562 61.410156 24.054688 61.722656 24.183594 C 61.933594 24.273438 62.148438 24.363281 62.332031 24.464844 C 63.171875 24.960938 63.972656 24.902344 64.613281 24.855469 C 65.011719 24.824219 65.359375 24.800781 65.691406 24.890625 C 66.84375 25.210938 67.246094 28.09375 66.894531 30.589844 C 66.863281 30.828125 66.945312 31.070312 67.117188 31.234375 C 67.292969 31.402344 67.535156 31.476562 67.773438 31.433594 C 68.042969 31.382812 68.273438 31.390625 68.488281 31.449219 C 68.640625 31.496094 69.453125 31.828125 70.269531 32.210938 C 70.371094 32.257812 70.480469 32.28125 70.589844 32.28125 C 70.746094 32.28125 70.90625 32.230469 71.035156 32.132812 C 71.257812 31.96875 71.371094 31.695312 71.332031 31.421875 C 71.140625 30.15625 70.75 29.378906 70.132812 28.140625 C 69.703125 27.296875 69.445312 26.589844 69.300781 25.847656 C 69.078125 24.742188 69.566406 24.300781 70.597656 23.484375 C 70.921875 23.226562 71.257812 22.964844 71.570312 22.648438 C 72.515625 21.703125 72.585938 20.9375 72.644531 20.261719 C 72.675781 19.921875 72.703125 19.601562 72.851562 19.214844 C 72.941406 18.984375 73.023438 18.921875 73.117188 18.886719 C 73.175781 18.878906 73.273438 18.863281 73.386719 18.816406 C 73.667969 18.707031 73.855469 18.4375 73.863281 18.136719 C 73.871094 17.832031 73.695312 17.554688 73.417969 17.433594" fill="inherit"/><path d="M 41.441406 58.601562 C 41.46875 58.796875 41.582031 58.984375 41.742188 59.105469 C 41.917969 59.242188 42.09375 59.375 42.269531 59.484375 C 42.390625 59.558594 42.527344 59.59375 42.664062 59.59375 C 42.804688 59.59375 42.941406 59.554688 43.066406 59.476562 C 43.34375 59.300781 43.519531 59.21875 43.570312 59.242188 C 43.699219 59.292969 43.808594 59.351562 43.898438 59.414062 C 44.09375 59.554688 44.339844 59.59375 44.566406 59.523438 C 44.792969 59.449219 44.972656 59.273438 45.050781 59.046875 C 45.078125 58.964844 45.097656 58.882812 45.113281 58.800781 C 45.121094 58.773438 45.125 58.738281 45.136719 58.707031 C 45.136719 58.707031 45.140625 58.703125 45.140625 58.699219 C 45.210938 58.484375 45.449219 58.230469 45.625 58.179688 C 45.886719 58.109375 46.085938 57.902344 46.152344 57.644531 C 46.21875 57.382812 46.140625 57.105469 45.949219 56.917969 C 45.703125 56.679688 45.429688 56.449219 45.167969 56.226562 C 44.9375 56.035156 44.71875 55.851562 44.542969 55.675781 C 43.964844 55.101562 43.375 54.761719 42.628906 54.578125 C 42.417969 54.527344 42.210938 54.578125 42.039062 54.691406 C 41.988281 54.359375 41.78125 54.0625 41.347656 53.96875 C 40.824219 53.855469 40.339844 53.613281 40.015625 53.171875 C 39.699219 52.734375 39.148438 52.519531 38.648438 52.8125 C 38.21875 53.0625 37.972656 53.742188 38.289062 54.179688 C 38.914062 55.042969 39.761719 55.667969 40.816406 55.898438 C 41 55.9375 41.160156 55.917969 41.3125 55.878906 C 41.316406 56.015625 41.351562 56.148438 41.433594 56.269531 L 41.515625 56.386719 C 41.734375 56.703125 41.878906 56.910156 41.914062 57.277344 C 41.929688 57.484375 41.832031 57.710938 41.582031 58.039062 C 41.460938 58.195312 41.414062 58.402344 41.441406 58.601562" fill="inherit"/><path d="M 77.976562 22.148438 C 78.148438 22.015625 78.25 21.8125 78.261719 21.597656 C 78.273438 21.382812 78.195312 21.171875 78.039062 21.019531 C 77.984375 20.96875 77.90625 20.90625 77.824219 20.855469 C 77.636719 20.730469 77.40625 20.699219 77.191406 20.765625 C 77.125 20.785156 77.078125 20.789062 77.027344 20.777344 C 76.757812 20.710938 76.359375 20.503906 75.976562 20.300781 C 75.488281 20.046875 74.988281 19.78125 74.484375 19.644531 C 74.242188 19.578125 73.980469 19.640625 73.789062 19.808594 C 73.601562 19.976562 73.511719 20.230469 73.546875 20.480469 L 73.578125 20.660156 C 73.613281 20.871094 73.640625 21.054688 73.601562 21.1875 C 73.503906 21.566406 73.15625 22.015625 72.851562 22.414062 L 72.675781 22.644531 C 72.550781 22.8125 72.300781 23.054688 72.035156 23.3125 C 71.101562 24.222656 69.691406 25.597656 70.417969 27.054688 C 71.425781 29.066406 72.003906 30.5 72.167969 32.3125 C 72.191406 32.554688 72.328125 32.773438 72.542969 32.894531 C 72.753906 33.015625 73.011719 33.027344 73.234375 32.921875 C 73.3125 32.886719 73.40625 32.898438 73.476562 32.914062 C 73.730469 32.96875 74.023438 33.019531 74.335938 33.074219 C 75.414062 33.257812 76.894531 33.511719 77.300781 34.28125 C 77.480469 34.621094 77.863281 34.726562 78.210938 34.589844 C 78.347656 34.675781 78.5 34.769531 78.691406 34.886719 C 78.75 35.0625 78.875 35.210938 79.042969 35.304688 C 79.3125 35.449219 79.640625 35.417969 79.878906 35.222656 C 79.925781 35.183594 79.988281 35.148438 80.09375 35.09375 C 80.425781 34.894531 80.59375 34.960938 81.226562 35.511719 L 81.390625 35.652344 C 81.53125 35.773438 81.703125 35.832031 81.878906 35.832031 C 82.070312 35.832031 82.257812 35.757812 82.40625 35.617188 C 82.679688 35.34375 82.703125 34.902344 82.453125 34.601562 C 81.980469 34.03125 81.738281 33.121094 81.777344 32.03125 C 81.78125 31.816406 81.699219 31.609375 81.539062 31.460938 C 81.382812 31.3125 81.175781 31.238281 80.957031 31.261719 C 79.210938 31.421875 77.90625 31.226562 76.417969 29.738281 C 76.011719 29.332031 75.824219 28.90625 75.84375 28.4375 C 75.871094 27.820312 76.292969 27.109375 76.96875 26.542969 C 77.207031 26.347656 77.296875 26.027344 77.203125 25.734375 C 76.773438 24.425781 77.121094 22.816406 77.976562 22.148438" fill="inherit"/><path d="M 58.234375 37.09375 C 58.527344 37.042969 58.761719 36.820312 58.832031 36.53125 C 59.113281 35.34375 59.058594 34.5 58.660156 33.875 C 58.15625 33.078125 57.253906 32.890625 56.460938 32.726562 C 55.976562 32.628906 55.476562 32.523438 55.085938 32.292969 C 55.027344 32.261719 54.992188 32.234375 54.980469 32.230469 C 54.953125 32.109375 54.875 31.847656 54.597656 31.675781 C 54.253906 31.464844 53.910156 31.554688 53.335938 31.710938 C 52.058594 32.070312 50.179688 31.84375 49.066406 31.195312 C 48.246094 30.71875 47.292969 31.03125 46.527344 31.285156 C 46.234375 31.378906 45.964844 31.46875 45.753906 31.503906 C 43.71875 31.800781 43.757812 33.53125 43.78125 34.460938 C 43.785156 34.664062 43.789062 34.867188 43.777344 35.050781 C 43.714844 35.921875 43.882812 36.53125 44.289062 36.914062 C 44.835938 37.425781 45.566406 37.324219 46.101562 37.253906 C 46.273438 37.226562 46.441406 37.203125 46.589844 37.207031 C 46.664062 37.210938 46.804688 37.234375 46.976562 37.261719 C 48.214844 37.445312 49.03125 37.570312 49.347656 36.898438 C 49.359375 36.875 49.429688 36.808594 49.554688 36.769531 C 49.671875 36.734375 49.757812 36.753906 49.765625 36.757812 C 49.992188 36.929688 50.222656 37.148438 50.457031 37.367188 C 51.226562 38.097656 52.183594 39 53.519531 38.824219 C 53.914062 38.769531 53.988281 38.890625 54.050781 38.988281 C 54.296875 39.386719 54.714844 39.644531 55.230469 39.710938 C 55.324219 39.71875 55.421875 39.726562 55.515625 39.726562 C 56.398438 39.726562 57.347656 39.253906 57.882812 38.734375 C 58.101562 38.523438 58.171875 38.207031 58.0625 37.921875 C 58.042969 37.867188 58.015625 37.8125 57.96875 37.722656 C 57.957031 37.691406 57.941406 37.660156 57.921875 37.628906 C 57.839844 37.488281 57.859375 37.40625 57.886719 37.347656 C 57.941406 37.226562 58.089844 37.121094 58.234375 37.09375" fill="inherit"/><path d="M 42.128906 68.59375 C 42.867188 69.019531 43.675781 69.234375 44.53125 69.234375 C 44.585938 69.234375 44.644531 69.234375 44.699219 69.230469 C 44.925781 69.226562 45.136719 69.125 45.273438 68.945312 C 45.40625 68.765625 45.453125 68.539062 45.402344 68.320312 L 45.402344 67.90625 C 45.402344 67.726562 45.609375 67.558594 45.800781 67.515625 C 45.992188 67.476562 46.027344 67.554688 46.039062 67.574219 C 46.085938 67.703125 46.125 67.828125 46.15625 67.964844 C 46.230469 68.3125 46.535156 68.558594 46.886719 68.558594 C 46.890625 68.558594 46.894531 68.558594 46.898438 68.558594 C 47.21875 68.554688 47.5 68.34375 47.597656 68.046875 C 47.910156 67.910156 48.894531 67.953125 49.4375 67.972656 C 50.40625 68.015625 51.171875 68.042969 51.65625 67.742188 C 51.714844 67.707031 51.777344 67.683594 51.851562 67.671875 C 52.074219 67.636719 52.265625 67.5 52.375 67.304688 C 52.488281 67.113281 52.507812 66.878906 52.429688 66.667969 C 52.40625 66.605469 52.378906 66.542969 52.347656 66.480469 L 52.3125 66.394531 C 51.992188 65.453125 52.097656 64.511719 52.207031 63.515625 C 52.277344 62.890625 52.347656 62.246094 52.3125 61.59375 C 52.300781 61.347656 52.164062 61.121094 51.953125 60.992188 C 51.871094 60.941406 51.84375 60.902344 51.847656 60.785156 C 51.894531 60.175781 51.746094 59.683594 51.40625 59.328125 C 50.800781 58.691406 49.839844 58.710938 48.902344 58.726562 C 48.691406 58.730469 48.476562 58.734375 48.265625 58.730469 C 47.914062 58.707031 47.648438 58.929688 47.542969 59.234375 C 47.507812 59.335938 47.390625 59.429688 47.253906 59.464844 C 47.160156 59.488281 47.023438 59.496094 46.910156 59.394531 C 46.707031 59.214844 46.410156 59.207031 46.152344 59.296875 C 45.898438 59.386719 45.703125 59.65625 45.65625 59.925781 C 45.53125 60.273438 45.429688 60.484375 45.253906 60.59375 C 45.019531 60.742188 44.683594 60.851562 44.410156 60.703125 C 44.359375 60.675781 44.167969 60.546875 43.964844 60.378906 C 43.734375 60.1875 43.410156 60.152344 43.144531 60.289062 C 42.902344 60.417969 42.71875 60.46875 42.429688 60.414062 C 42.351562 60.394531 42.195312 60.324219 42.0625 60.25 C 42.058594 60.164062 42.035156 60.078125 42 59.992188 C 41.835938 59.613281 41.394531 59.445312 41.011719 59.605469 C 41.011719 59.609375 41.011719 59.609375 41.011719 59.609375 C 40.902344 59.65625 40.785156 59.660156 40.664062 59.621094 C 40.34375 59.515625 39.996094 59.632812 39.804688 59.910156 C 39.734375 60.015625 39.664062 60.125 39.597656 60.238281 C 39.503906 60.386719 39.414062 60.542969 39.285156 60.691406 C 38.988281 61.046875 38.578125 61.214844 37.878906 61.257812 C 37.78125 61.265625 37.609375 61.273438 37.59375 60.984375 C 37.589844 60.9375 37.578125 60.53125 37.96875 60.507812 C 38.554688 60.472656 38.773438 60.15625 38.90625 59.859375 C 39.023438 59.613281 38.992188 59.324219 38.832031 59.101562 C 38.667969 58.882812 38.398438 58.769531 38.132812 58.800781 C 37.210938 58.917969 36.378906 59.207031 35.574219 59.484375 C 34.996094 59.683594 34.453125 59.871094 33.886719 60 C 33.605469 60.0625 33.390625 60.277344 33.320312 60.554688 C 33.253906 60.832031 33.347656 61.121094 33.566406 61.304688 C 33.742188 61.457031 34.285156 61.914062 34.386719 62.273438 C 34.429688 62.429688 34.425781 62.578125 34.425781 62.753906 C 34.417969 63.136719 34.410156 63.664062 34.898438 64.191406 C 35.289062 64.617188 35.539062 65.027344 35.636719 65.414062 C 35.699219 65.660156 35.878906 65.855469 36.117188 65.941406 C 38.15625 66.652344 38.667969 66.613281 39.03125 66.277344 C 39.160156 66.160156 39.425781 66.054688 39.601562 66.234375 C 39.765625 66.398438 39.941406 66.597656 40.132812 66.808594 C 40.746094 67.492188 41.441406 68.269531 42.128906 68.59375" fill="inherit"/><path d="M 34.3125 64.578125 C 34.183594 64.523438 34.074219 64.476562 33.988281 64.359375 C 33.671875 63.933594 33.617188 63.789062 33.648438 63.449219 C 33.75 62.308594 32.855469 61.648438 32.140625 61.121094 C 31.933594 60.96875 31.722656 60.816406 31.570312 60.6875 L 30.9375 61.089844 L 31.511719 60.582031 C 31.378906 60.351562 31.132812 60.207031 30.863281 60.207031 C 30.78125 60.207031 30.703125 60.210938 30.632812 60.199219 C 30.363281 60.167969 30.097656 60.28125 29.9375 60.496094 C 29.820312 60.652344 29.582031 60.578125 29.554688 60.570312 C 29.476562 60.542969 29.296875 60.460938 29.300781 60.265625 C 29.300781 60.046875 29.210938 59.835938 29.042969 59.691406 C 28.925781 59.589844 28.851562 59.484375 28.78125 59.351562 C 28.9375 59.085938 28.980469 58.757812 28.777344 58.414062 C 27.789062 56.710938 26.460938 55.039062 27.300781 53.050781 C 27.433594 53.101562 27.558594 53.128906 27.675781 53.128906 C 27.757812 53.128906 27.839844 53.117188 27.921875 53.09375 C 28.164062 53.027344 28.425781 52.777344 28.503906 52.535156 C 28.582031 52.292969 28.78125 52.25 28.839844 52.242188 C 28.941406 52.230469 29.089844 52.25 29.199219 52.425781 C 29.230469 52.476562 29.25 52.523438 29.265625 52.554688 C 29.371094 52.832031 29.613281 53.042969 29.910156 53.058594 C 30.210938 53.066406 30.46875 52.933594 30.601562 52.667969 C 30.601562 52.667969 30.625 52.644531 30.71875 52.589844 C 31.105469 52.359375 31.519531 52.261719 31.664062 52.304688 C 31.664062 52.304688 31.664062 52.304688 31.664062 52.308594 C 32.890625 52.710938 33.5 52.335938 33.796875 51.945312 C 34.78125 50.640625 33.050781 48 33.035156 47.976562 C 33.003906 47.929688 32.988281 47.78125 33.046875 47.667969 C 33.175781 47.40625 33.144531 47.089844 32.957031 46.859375 L 32.804688 46.671875 C 32.570312 46.382812 32.335938 46.089844 32.089844 45.824219 C 31.832031 45.542969 31.402344 45.5 31.09375 45.726562 C 31.042969 45.765625 30.984375 45.785156 30.925781 45.78125 C 30.480469 45.769531 29.914062 45.578125 29.414062 45.40625 C 28.59375 45.132812 27.949219 44.910156 27.46875 45.390625 C 27.242188 45.617188 26.554688 45.492188 26.078125 45.230469 C 24.304688 44.289062 23.65625 44.367188 22.597656 44.777344 C 22.304688 44.890625 22 45.007812 21.617188 45.089844 C 21.421875 45.085938 20.742188 44.824219 20.292969 44.65625 C 18.867188 44.109375 17.640625 43.640625 16.921875 44.277344 C 16.722656 44.457031 16.417969 44.863281 16.609375 45.613281 C 16.65625 45.796875 16.59375 45.960938 16.429688 46.054688 C 16.136719 46.238281 15.597656 46.1875 15.164062 46.144531 C 14.601562 46.09375 14.019531 46.039062 13.636719 46.484375 C 13.480469 46.667969 13.320312 46.992188 13.449219 47.488281 C 13.472656 47.597656 13.445312 47.75 13.378906 47.851562 C 13.351562 47.890625 13.3125 47.933594 13.257812 47.945312 C 12.113281 48.144531 11.386719 48.699219 11.257812 49.457031 C 11.15625 50.035156 11.375 50.914062 12.96875 51.8125 C 13.121094 51.898438 13.167969 51.984375 13.136719 52.148438 C 13.066406 52.535156 13.308594 52.914062 13.695312 53.011719 C 14.679688 53.257812 15.625 52.496094 16.417969 51.714844 C 16.578125 51.550781 16.96875 51.492188 17.34375 51.429688 C 17.769531 51.363281 18.25 51.289062 18.660156 51.050781 C 19.019531 50.855469 19.535156 50.714844 19.984375 51.152344 C 20.5 51.667969 20.964844 51.761719 21.535156 51.472656 C 21.652344 51.414062 21.699219 51.390625 21.933594 51.453125 C 22.707031 51.671875 23.339844 51.511719 23.84375 51.386719 C 24.230469 51.289062 24.539062 51.207031 24.910156 51.285156 C 25.035156 51.375 25.234375 51.550781 25.46875 51.746094 C 25.535156 51.800781 25.582031 51.835938 25.640625 51.886719 C 24.460938 54.289062 25.265625 56.257812 26.421875 58.320312 C 26.421875 58.335938 26.421875 58.355469 26.425781 58.371094 C 26.414062 58.421875 26.410156 58.472656 26.402344 58.523438 C 26.386719 58.558594 26.359375 58.609375 26.292969 58.679688 C 26.203125 58.777344 25.960938 59.058594 25.871094 59.023438 C 25.230469 58.960938 24.710938 58.769531 24.035156 58.460938 C 23.808594 58.359375 23.539062 58.390625 23.324219 58.527344 C 23.113281 58.65625 22.984375 58.902344 22.972656 59.152344 C 22.976562 59.136719 22.976562 59.113281 22.976562 59.113281 C 22.976562 59.113281 22.972656 59.117188 22.972656 59.117188 C 22.953125 59.207031 22.847656 59.332031 22.808594 59.351562 C 21.988281 59.46875 21.460938 59.273438 20.777344 58.613281 C 20.480469 58.332031 19.695312 57.582031 18.972656 58.074219 C 18.648438 58.296875 18.039062 58.710938 19.257812 61.730469 C 19.261719 61.761719 19.222656 61.890625 19.082031 62.058594 C 18.289062 63.027344 17.835938 63.769531 18.019531 64.457031 C 18.191406 65.085938 18.761719 65.300781 19.21875 65.472656 C 19.574219 65.605469 19.9375 65.742188 20.183594 66.035156 C 20.984375 67 21.726562 67.328125 22.390625 67.328125 C 23.3125 67.328125 24.082031 66.691406 24.632812 66.234375 C 24.945312 65.976562 25.242188 65.730469 25.542969 65.5625 C 26.058594 65.269531 26.832031 65.03125 27.296875 65.304688 C 28.429688 65.96875 29.230469 66.015625 30.15625 66.070312 C 30.40625 66.085938 30.675781 66.097656 30.972656 66.128906 C 31.21875 66.15625 31.4375 66.394531 31.453125 66.574219 C 31.472656 66.808594 31.601562 67.019531 31.800781 67.144531 C 32 67.269531 32.242188 67.292969 32.464844 67.210938 C 33.140625 66.957031 33.949219 66.492188 34.179688 66.347656 C 34.535156 66.136719 34.96875 65.875 34.933594 65.34375 C 34.90625 64.84375 34.472656 64.652344 34.3125 64.578125" fill="inherit"/><path d="M 34.269531 56.917969 C 34.125 56.714844 33.902344 56.582031 33.636719 56.609375 C 33.390625 56.617188 33.160156 56.75 33.027344 56.960938 C 32.710938 57.464844 31.925781 57.792969 30.6875 57.9375 C 30.3125 57.980469 30.027344 58.300781 30.027344 58.683594 C 30.027344 58.796875 30.066406 58.960938 30.113281 59.0625 C 30.230469 59.300781 30.46875 59.460938 30.734375 59.480469 C 30.875 59.492188 31.023438 59.496094 31.175781 59.496094 C 31.566406 59.496094 31.960938 59.464844 32.269531 59.441406 C 32.425781 59.429688 32.550781 59.417969 32.640625 59.417969 C 33.394531 59.40625 34.023438 59.300781 34.6875 59.082031 C 34.925781 59.003906 35.109375 58.808594 35.175781 58.5625 C 35.238281 58.320312 35.179688 58.058594 35.011719 57.871094 C 34.738281 57.566406 34.546875 57.300781 34.269531 56.917969" fill="inherit"/><path d="M 101.042969 105.371094 C 98.761719 105.785156 95.851562 105.542969 93.515625 105.347656 C 92.316406 105.246094 91.277344 105.160156 90.425781 105.160156 C 88.742188 105.160156 87.054688 105.175781 85.367188 105.191406 C 80.886719 105.230469 76.25 105.273438 71.71875 105.011719 C 68.644531 104.835938 65.539062 104.839844 62.511719 104.835938 C 59.304688 104.84375 56.003906 104.835938 52.765625 104.625 C 51.65625 104.546875 50.464844 104.566406 49.199219 104.582031 C 47.515625 104.605469 45.769531 104.632812 44.171875 104.429688 C 43.777344 104.378906 43.410156 104.644531 43.335938 105.039062 C 42.621094 109.007812 43.496094 112.929688 45.796875 116.078125 C 48.914062 120.320312 52.628906 121.21875 57.613281 121.296875 L 59.210938 121.320312 C 64.773438 121.398438 70.5 121.480469 76.183594 121.480469 C 77.132812 121.480469 78.082031 121.476562 79.027344 121.472656 C 83.964844 121.460938 89.386719 120.46875 94.171875 119.597656 L 94.460938 119.542969 C 97.230469 119.046875 99.417969 118.65625 100.917969 115.140625 C 102.136719 112.277344 102.519531 108.753906 101.910156 105.953125 C 101.824219 105.554688 101.4375 105.296875 101.042969 105.371094" fill="inherit"/><path d="M 121.199219 54.800781 C 121.09375 54.738281 120.988281 54.679688 120.878906 54.621094 C 120.601562 54.472656 120.382812 54.351562 120.210938 54.160156 C 120.160156 54.097656 120.082031 53.871094 120.03125 53.722656 C 119.867188 53.253906 119.644531 52.613281 118.992188 52.355469 C 118.800781 52.28125 118.6875 52.148438 118.6875 51.984375 C 118.6875 51.902344 118.71875 51.703125 119.003906 51.597656 C 119.234375 51.511719 119.40625 51.320312 119.46875 51.082031 C 119.527344 50.847656 119.472656 50.597656 119.3125 50.410156 C 118.695312 49.679688 117.855469 49.34375 116.855469 49.417969 C 116.230469 49.378906 115.679688 49.320312 115.089844 49.226562 C 114.9375 49.207031 114.835938 49.140625 114.773438 49.011719 C 114.6875 48.839844 114.710938 48.632812 114.769531 48.53125 C 114.902344 48.308594 114.914062 48.039062 114.800781 47.808594 C 114.53125 47.277344 114.089844 46.8125 113.730469 46.441406 C 113.621094 46.328125 113.484375 46.183594 113.402344 46.082031 C 113.386719 45.855469 113.269531 45.640625 113.0625 45.503906 C 112.722656 45.28125 112.257812 45.371094 112.027344 45.714844 C 112.023438 45.722656 112.023438 45.726562 112.019531 45.730469 C 111.855469 45.980469 111.515625 46.195312 111.289062 46.195312 C 110.613281 46.195312 109.863281 45.859375 109.140625 45.539062 C 107.839844 44.957031 106.21875 44.234375 104.894531 45.703125 C 104.75 45.863281 104.429688 45.714844 104.402344 45.699219 C 103.371094 45.226562 101.578125 43.660156 101.324219 43.121094 C 101.355469 42.785156 101.148438 42.457031 100.8125 42.34375 C 100.421875 42.214844 99.996094 42.425781 99.867188 42.820312 C 99.867188 42.824219 99.863281 42.824219 99.863281 42.828125 C 99.820312 42.960938 99.734375 43.113281 99.457031 43.132812 C 99.058594 43.160156 98.695312 43.042969 98.300781 42.921875 C 97.546875 42.691406 96.511719 42.371094 95.480469 43.367188 C 95.203125 43.636719 95.175781 44.070312 95.414062 44.371094 C 95.847656 44.921875 96.199219 45.417969 96.511719 45.933594 C 96.695312 46.234375 97.058594 46.367188 97.390625 46.257812 C 97.984375 46.058594 99.976562 45.539062 100.675781 47.15625 C 100.992188 47.878906 100.933594 48.414062 100.871094 49.035156 C 100.8125 49.585938 100.746094 50.214844 100.957031 50.949219 C 101.097656 51.457031 101.074219 51.941406 100.878906 52.429688 C 100.765625 52.71875 100.839844 53.050781 101.070312 53.261719 C 101.300781 53.472656 101.636719 53.515625 101.914062 53.378906 C 102.027344 53.320312 102.226562 53.292969 102.4375 53.265625 C 102.484375 53.273438 102.605469 53.359375 102.675781 53.40625 C 102.902344 53.566406 103.285156 53.828125 103.757812 53.695312 C 104.082031 53.609375 104.339844 53.363281 104.519531 52.96875 C 104.777344 52.410156 105.136719 52.023438 105.730469 51.671875 C 106.132812 51.429688 106.542969 51.53125 107.359375 52.082031 C 107.625 52.257812 107.96875 52.25 108.222656 52.0625 C 108.347656 51.96875 108.449219 51.917969 108.570312 51.902344 C 108.644531 51.953125 108.730469 51.992188 108.816406 52.011719 C 109.078125 52.070312 109.402344 51.941406 109.585938 51.742188 C 109.621094 51.703125 109.6875 51.632812 109.820312 51.5 C 109.890625 51.429688 110.019531 51.394531 110.242188 51.332031 C 110.246094 51.332031 110.347656 51.300781 110.355469 51.300781 C 110.460938 51.269531 110.605469 51.304688 110.679688 51.382812 C 111.90625 52.683594 111.757812 53.144531 111.144531 55.070312 L 111.113281 55.167969 C 111.066406 55.320312 110.984375 55.398438 110.855469 55.425781 C 110.695312 55.460938 110.5 55.40625 110.402344 55.300781 C 110.378906 55.273438 110.320312 55.210938 110.378906 55.035156 C 110.425781 54.894531 110.472656 54.757812 110.519531 54.628906 C 110.664062 54.222656 110.804688 53.835938 110.804688 53.40625 C 110.804688 53.148438 110.675781 52.90625 110.453125 52.769531 C 110.234375 52.628906 109.964844 52.617188 109.730469 52.730469 C 109.679688 52.75 109.523438 52.757812 109.417969 52.761719 C 109.054688 52.777344 108.554688 52.804688 108.167969 53.207031 C 108.085938 53.300781 107.878906 53.316406 107.785156 53.261719 C 107.753906 53.238281 107.710938 53.199219 107.660156 53.152344 C 107.28125 52.820312 106.765625 52.359375 106.175781 52.464844 C 105.882812 52.515625 105.640625 52.695312 105.488281 52.96875 C 105.175781 53.5625 104.785156 54.136719 104.359375 54.632812 C 104.242188 54.765625 103.800781 54.890625 103.636719 54.84375 C 103.570312 54.816406 103.390625 54.691406 103.269531 54.605469 C 103.144531 54.519531 103.019531 54.433594 102.894531 54.355469 C 102.574219 54.15625 102.152344 54.230469 101.914062 54.53125 C 101.746094 54.742188 101.578125 54.898438 101.257812 55.015625 C 101.25 55.019531 101.246094 55.019531 101.242188 55.023438 C 100.859375 55.171875 100.667969 55.601562 100.816406 55.988281 C 100.898438 56.207031 101.074219 56.363281 101.28125 56.433594 C 101.589844 56.761719 102.261719 57.867188 102.371094 58.179688 C 102.382812 58.210938 102.386719 58.25 102.367188 58.316406 C 102.265625 58.675781 102.449219 59.058594 102.792969 59.210938 C 102.964844 59.28125 103.164062 59.441406 103.457031 59.679688 C 104.628906 60.621094 105.222656 61.023438 106.214844 61.546875 C 106.328125 61.605469 106.445312 61.632812 106.566406 61.632812 C 106.828125 61.632812 107.085938 61.492188 107.222656 61.242188 C 107.316406 61.078125 107.417969 61.09375 107.523438 61.128906 C 108.734375 61.542969 109.445312 60.855469 109.871094 60.445312 C 110.210938 60.113281 110.332031 60.027344 110.546875 60.042969 L 111.339844 60.097656 C 112.078125 60.148438 112.773438 60.195312 113.554688 60.195312 C 114.070312 60.195312 114.324219 59.769531 114.527344 59.429688 C 114.625 59.269531 114.878906 58.84375 115.03125 58.804688 C 115.191406 58.765625 115.875 58.730469 116.425781 58.707031 C 119.105469 58.574219 120.074219 58.464844 120.375 57.757812 C 120.5 57.464844 120.453125 57.140625 120.253906 56.875 C 120.214844 56.8125 120.167969 56.753906 120.105469 56.679688 C 120.09375 56.660156 120.082031 56.640625 120.066406 56.625 C 120.03125 56.574219 119.984375 56.511719 120.085938 56.375 C 120.203125 56.210938 120.433594 56.105469 120.570312 56.152344 C 120.933594 56.28125 121.335938 56.109375 121.496094 55.761719 C 121.65625 55.410156 121.53125 54.996094 121.199219 54.800781" fill="inherit"/><path d="M 109.894531 63.355469 C 109.15625 63.394531 108.320312 63.445312 107.859375 63.210938 C 107.265625 62.917969 106.722656 62.691406 106.207031 62.480469 C 105.050781 62.003906 104.136719 61.628906 103.117188 60.660156 C 102.652344 60.222656 102.34375 60.136719 101.960938 60.128906 C 101.867188 60.128906 101.78125 60.125 101.492188 59.960938 C 101.242188 59.8125 101.109375 59.578125 100.953125 59.308594 C 100.683594 58.835938 100.113281 57.847656 98.625 58.613281 C 98.492188 58.6875 98.339844 58.695312 98.28125 58.65625 C 96.570312 57.453125 94.433594 58.214844 92.550781 58.886719 L 92.128906 59.039062 C 91.792969 59.15625 91.585938 59.492188 91.632812 59.84375 C 91.664062 60.078125 91.632812 60.300781 91.535156 60.476562 C 91.191406 61.140625 91 61.371094 90.53125 61.441406 C 89.832031 61.542969 89.613281 62.015625 89.644531 62.390625 C 89.707031 63.242188 91.445312 63.945312 92.230469 64.183594 C 92.472656 64.367188 92.761719 64.757812 92.832031 65.011719 C 92.949219 65.429688 93.238281 65.746094 93.652344 65.898438 C 95.09375 66.433594 97.753906 64.777344 97.777344 64.757812 C 97.878906 64.695312 98.074219 64.738281 98.214844 64.855469 C 98.320312 64.941406 98.355469 65.027344 98.324219 65.105469 C 98.300781 65.160156 98.285156 65.214844 98.277344 65.273438 C 98.195312 65.59375 98.332031 65.9375 98.628906 66.109375 C 98.972656 66.304688 99.410156 66.203125 99.628906 65.875 C 99.714844 65.742188 99.980469 65.660156 100.175781 65.703125 C 100.289062 65.730469 100.300781 65.773438 100.308594 65.851562 C 100.480469 67.058594 102.089844 66.992188 103.054688 66.957031 C 103.21875 66.953125 103.355469 66.941406 103.433594 66.949219 C 103.753906 66.996094 104.070312 67.011719 104.386719 67.027344 C 104.976562 67.054688 105.484375 67.078125 105.910156 67.332031 C 106.15625 67.472656 106.242188 67.589844 106.359375 67.75 C 106.785156 68.316406 107.207031 68.589844 108.441406 68.605469 C 108.730469 68.621094 109.070312 68.558594 109.421875 68.5 C 109.953125 68.410156 110.753906 68.273438 110.953125 68.527344 C 111.101562 68.710938 111.3125 68.800781 111.523438 68.800781 C 111.6875 68.800781 111.851562 68.75 111.988281 68.640625 C 112.285156 68.410156 112.359375 67.992188 112.179688 67.671875 C 112.242188 67.558594 112.386719 67.371094 112.488281 67.238281 C 112.9375 66.65625 113.691406 65.683594 113.140625 64.429688 C 112.597656 63.199219 111.160156 63.28125 109.894531 63.355469" fill="inherit"/><path d="M 102.042969 99.714844 C 101.121094 99.503906 100.039062 99.390625 98.730469 99.359375 C 98.347656 99.355469 98.066406 99.59375 97.984375 99.9375 C 97.960938 100.039062 97.925781 100.054688 97.875 100.078125 C 95.941406 100.972656 92.964844 101.011719 90.464844 100.171875 C 90.390625 100.148438 90.308594 100.136719 90.230469 100.132812 C 87.183594 100.121094 84.699219 100.179688 82.417969 100.324219 C 81.011719 100.410156 79.613281 100.515625 78.214844 100.625 C 75.222656 100.855469 72.128906 101.097656 69.066406 101.097656 C 65.113281 101.097656 61.128906 100.988281 57.273438 100.886719 C 55.941406 100.851562 54.605469 100.816406 53.269531 100.785156 L 52.597656 100.773438 C 50.5625 100.742188 48.257812 100.707031 46.835938 99.550781 C 46.796875 99.515625 46.757812 99.46875 46.761719 99.363281 C 46.773438 99.148438 46.6875 98.941406 46.53125 98.792969 C 46.378906 98.644531 46.167969 98.570312 45.949219 98.585938 C 44.898438 98.675781 43.96875 98.882812 43.109375 99.226562 C 41.957031 99.6875 40.605469 100.476562 40.738281 101.605469 C 40.871094 102.769531 42.429688 103.136719 43.589844 103.3125 C 45.546875 103.613281 47.570312 103.652344 49.527344 103.691406 C 50.582031 103.714844 51.632812 103.734375 52.667969 103.792969 C 55.765625 103.980469 58.898438 103.960938 61.933594 103.941406 C 65.117188 103.921875 68.410156 103.902344 71.628906 104.121094 C 74.125 104.285156 76.648438 104.339844 79.164062 104.339844 C 81.621094 104.339844 84.074219 104.289062 86.480469 104.238281 C 88.867188 104.1875 91.339844 104.132812 93.753906 104.132812 L 98.878906 104.132812 C 99.949219 104.132812 103.992188 103.167969 104.175781 101.480469 C 104.3125 100.210938 102.601562 99.835938 102.042969 99.714844" fill="inherit"/><path d="M 43.582031 14.40625 C 43.664062 14.4375 43.765625 14.496094 43.816406 14.675781 C 43.894531 14.964844 44.132812 15.179688 44.429688 15.222656 C 44.648438 15.257812 44.875 15.285156 45.097656 15.3125 L 45.707031 15.394531 C 46.3125 15.492188 46.882812 15.679688 47.484375 15.875 C 48.722656 16.273438 50 16.691406 51.570312 16.308594 C 51.816406 16.25 52.316406 16.492188 52.644531 16.65625 C 52.785156 16.726562 52.921875 16.792969 53.039062 16.84375 C 53.824219 17.1875 54.617188 17.46875 55.503906 17.777344 C 55.585938 17.804688 55.667969 17.820312 55.75 17.820312 C 56.003906 17.820312 56.246094 17.691406 56.386719 17.464844 C 56.449219 17.367188 56.625 17.152344 56.914062 17.300781 C 58.773438 18.238281 59.554688 17.785156 60.21875 16.753906 C 60.371094 16.511719 60.507812 16.300781 60.726562 16.171875 C 60.855469 16.09375 61.066406 16.066406 61.308594 16.035156 C 61.425781 16.019531 61.542969 16.003906 61.660156 15.980469 C 62.039062 15.914062 62.296875 15.472656 62.265625 15.085938 C 62.257812 15 62.25 14.917969 62.230469 14.832031 C 62.226562 14.710938 62.265625 14.679688 62.347656 14.648438 C 62.535156 14.578125 62.851562 14.632812 62.976562 14.816406 C 63.214844 15.148438 65.003906 16.601562 65.550781 16.933594 C 65.746094 17.054688 65.984375 17.078125 66.199219 16.996094 C 66.414062 16.917969 66.582031 16.742188 66.652344 16.523438 C 66.691406 16.402344 66.851562 16.28125 67 16.292969 C 67.039062 16.292969 67.082031 16.289062 67.179688 16.304688 C 67.304688 16.3125 67.433594 16.371094 67.503906 16.445312 C 67.722656 16.675781 68.066406 16.746094 68.355469 16.617188 C 68.457031 16.570312 68.5625 16.511719 68.664062 16.449219 L 68.757812 16.398438 C 68.992188 16.265625 69.140625 16.015625 69.140625 15.742188 L 69.140625 15.644531 C 69.140625 14.429688 70 13.5 71 12.425781 L 71.367188 12.023438 C 71.539062 11.835938 71.601562 11.574219 71.539062 11.328125 C 71.476562 11.085938 71.292969 10.890625 71.054688 10.808594 C 70.390625 10.585938 69.757812 10.234375 69.089844 9.867188 C 67.824219 9.164062 66.515625 8.441406 64.800781 8.441406 C 64.597656 8.441406 64.398438 8.445312 64.203125 8.453125 C 62.84375 8.476562 62.171875 8.453125 61.703125 7.578125 C 60.695312 5.679688 57.828125 6.6875 55.730469 7.425781 C 55.058594 7.660156 54.421875 7.882812 54.054688 7.9375 C 53.667969 7.996094 53.59375 7.867188 53.542969 7.78125 C 52.578125 6.183594 50.203125 7.425781 48.109375 8.519531 C 47.359375 8.914062 46.222656 9.507812 45.914062 9.507812 C 45.914062 9.507812 45.910156 9.507812 45.910156 9.507812 C 44.347656 9.195312 42.449219 10.28125 42.003906 11.742188 C 41.875 12.160156 41.613281 13.589844 43.582031 14.40625" fill="inherit"/><path d="M 77.117188 16.859375 C 76.964844 16.757812 76.730469 16.605469 76.410156 16.574219 C 75.96875 16.519531 75.640625 16.765625 75.441406 16.90625 C 75.40625 16.929688 75.375 16.953125 75.355469 16.964844 C 75.046875 17.113281 74.875 17.449219 74.941406 17.789062 C 75.007812 18.125 75.292969 18.375 75.636719 18.394531 C 75.988281 18.410156 76.457031 18.875 76.796875 19.214844 L 76.953125 19.367188 C 79.46875 21.820312 82.394531 22.101562 84.652344 22.070312 C 84.714844 22.070312 84.761719 22.082031 84.796875 22.105469 C 84.921875 22.1875 85.066406 22.230469 85.214844 22.230469 C 85.21875 22.230469 85.355469 22.238281 85.359375 22.238281 C 85.359375 22.238281 85.359375 22.238281 85.363281 22.238281 C 85.503906 22.277344 85.777344 22.449219 85.996094 22.589844 C 85.996094 22.589844 86.039062 22.617188 86.042969 22.617188 C 86.164062 22.695312 86.300781 22.730469 86.4375 22.730469 C 86.6875 22.730469 86.929688 22.605469 87.074219 22.382812 C 87.402344 21.859375 87.40625 21.082031 87.085938 20.296875 C 86.78125 19.539062 86.269531 19.011719 85.71875 18.878906 C 85.632812 18.855469 85.570312 18.789062 85.371094 18.542969 C 85.234375 18.378906 85.105469 18.207031 84.980469 18.039062 C 84.449219 17.335938 83.902344 16.609375 83.03125 16.511719 C 82.496094 16.449219 81.949219 16.660156 81.398438 17.128906 C 81.246094 17.257812 81.101562 17.304688 81.070312 17.285156 C 80.945312 17.234375 80.785156 17.152344 80.621094 17.066406 C 80.242188 16.875 79.882812 16.691406 79.570312 16.640625 C 79.527344 16.632812 79.480469 16.632812 79.433594 16.632812 C 78.890625 16.644531 78.246094 16.679688 77.550781 16.871094 C 77.414062 16.90625 77.273438 16.945312 77.226562 16.925781 C 77.1875 16.910156 77.15625 16.882812 77.117188 16.859375" fill="inherit"/><path d="M 24.414062 22.453125 C 24.691406 22.589844 24.609375 23.546875 24.582031 23.910156 L 24.574219 24.003906 C 24.550781 24.078125 24.539062 24.164062 24.539062 24.230469 C 24.539062 24.539062 24.726562 24.820312 25.015625 24.929688 C 25.523438 25.128906 26.171875 25.039062 26.796875 24.960938 C 27.089844 24.921875 27.574219 24.855469 27.714844 24.890625 C 28.09375 24.996094 28.394531 25.121094 28.679688 25.238281 C 29.277344 25.484375 29.890625 25.734375 30.949219 25.78125 C 31.28125 25.792969 31.644531 25.785156 32.023438 25.78125 C 32.882812 25.765625 33.859375 25.753906 34.609375 25.964844 C 34.675781 25.984375 34.742188 25.996094 34.8125 25.996094 C 34.988281 25.996094 35.160156 25.933594 35.296875 25.816406 C 35.484375 25.65625 35.585938 25.414062 35.558594 25.164062 C 35.535156 24.941406 35.628906 24.925781 35.738281 24.90625 C 35.914062 24.871094 36.046875 24.851562 36.148438 24.839844 C 36.382812 24.8125 36.589844 24.679688 36.710938 24.476562 C 36.828125 24.269531 36.847656 24.023438 36.757812 23.804688 C 36.734375 23.761719 36.765625 23.679688 36.800781 23.621094 C 36.886719 23.472656 37.050781 23.347656 37.199219 23.308594 C 38.1875 23.351562 39.128906 23.046875 39.957031 22.414062 C 40.066406 22.332031 40.148438 22.21875 40.199219 22.089844 C 40.304688 21.816406 40.605469 21.746094 40.785156 21.785156 C 40.890625 21.804688 40.953125 21.847656 40.964844 21.992188 C 40.929688 22.128906 40.914062 22.269531 40.914062 22.410156 C 40.894531 23.117188 41.210938 23.652344 41.84375 23.972656 C 41.90625 24 41.972656 24.042969 42.050781 24.085938 C 42.273438 24.210938 42.527344 24.355469 42.78125 24.410156 C 42.800781 24.417969 42.820312 24.421875 42.84375 24.425781 C 43.164062 24.476562 43.472656 24.304688 43.617188 24.023438 C 43.667969 23.976562 43.730469 23.929688 43.773438 23.894531 C 43.835938 23.867188 43.957031 23.820312 44.175781 23.757812 C 44.28125 23.726562 44.410156 23.710938 44.542969 23.695312 C 44.988281 23.632812 45.59375 23.550781 45.988281 23.074219 C 46.128906 22.90625 46.191406 22.6875 46.152344 22.472656 C 46.132812 22.34375 46.140625 22.175781 46.175781 21.972656 C 46.210938 21.796875 46.269531 21.789062 46.332031 21.78125 C 46.527344 21.757812 46.832031 21.90625 46.914062 22.105469 C 46.992188 22.300781 47.03125 22.476562 47.054688 22.691406 C 47.074219 22.894531 47.175781 23.078125 47.335938 23.207031 C 47.957031 23.699219 49.046875 23.714844 50.101562 23.726562 C 50.472656 23.734375 51.03125 23.738281 51.128906 23.761719 C 51.261719 23.84375 51.554688 24.128906 51.789062 24.359375 C 52.53125 25.09375 53.296875 25.847656 54.109375 25.582031 C 54.414062 25.480469 54.804688 25.203125 54.925781 24.460938 C 54.9375 24.410156 54.953125 24.378906 55.015625 24.34375 C 55.148438 24.273438 55.375 24.269531 55.46875 24.308594 C 56.316406 24.789062 57.238281 24.816406 58.210938 24.394531 C 58.433594 24.300781 58.59375 24.105469 58.644531 23.871094 C 58.699219 23.636719 58.636719 23.390625 58.476562 23.210938 C 58.359375 23.078125 58.335938 22.9375 58.410156 22.789062 C 58.5 22.609375 58.511719 22.40625 58.449219 22.214844 C 57.660156 19.878906 55.832031 18.503906 53.671875 18.59375 C 53.269531 18.617188 53.03125 18.460938 52.609375 18.160156 C 52.027344 17.742188 51.226562 17.171875 49.792969 17.484375 C 48.996094 17.664062 47.121094 16.957031 46.003906 16.535156 C 45.488281 16.34375 45.035156 16.175781 44.710938 16.082031 C 43.457031 15.742188 42.257812 15.910156 41.203125 16.054688 C 40.28125 16.183594 39.40625 16.304688 38.609375 16.082031 C 35.453125 15.226562 32.738281 17.25 31.242188 19.433594 C 31.160156 19.554688 31.113281 19.597656 30.898438 19.675781 C 30.351562 19.902344 30.128906 19.820312 29.871094 19.566406 C 28.835938 18.519531 25.863281 18.902344 24.558594 19.402344 C 23.644531 19.753906 23.167969 20.246094 23.136719 20.867188 C 23.105469 21.480469 23.535156 22.015625 24.414062 22.453125" fill="inherit"/><path d="M 12.046875 47.511719 C 12.367188 47.382812 12.558594 47.042969 12.503906 46.703125 C 12.433594 46.28125 12.425781 45.996094 13.046875 45.382812 C 13.394531 45.03125 13.734375 44.960938 13.917969 45.011719 C 14.078125 45.054688 14.1875 45.195312 14.246094 45.429688 C 14.351562 45.832031 14.757812 46.074219 15.15625 45.972656 C 15.558594 45.871094 15.800781 45.464844 15.703125 45.0625 C 15.539062 44.414062 15.585938 43.949219 15.84375 43.675781 C 16.332031 43.160156 17.667969 43.050781 19.417969 43.382812 C 20.042969 43.503906 20.332031 43.625 20.542969 43.714844 C 21.148438 43.96875 21.441406 43.953125 22.398438 43.632812 C 23.351562 43.316406 24.476562 43.53125 25.933594 44.304688 C 25.996094 44.488281 26.125 44.644531 26.308594 44.726562 C 26.640625 44.871094 27.003906 44.792969 27.207031 44.492188 C 27.210938 44.488281 27.265625 44.4375 27.464844 44.324219 C 27.574219 44.257812 27.882812 44.265625 28.292969 44.246094 C 28.59375 44.230469 29.042969 44.210938 29.21875 44.308594 L 29.589844 43.65625 L 29.476562 43.90625 C 29.328125 44.1875 29.277344 44.316406 29.269531 44.34375 L 29.273438 44.347656 L 29.242188 44.410156 C 29.132812 44.796875 29.34375 45.203125 29.722656 45.335938 C 30.101562 45.464844 30.515625 45.269531 30.664062 44.894531 C 30.671875 44.871094 30.726562 44.738281 30.894531 44.433594 C 31.007812 44.226562 31.28125 44.242188 31.433594 44.324219 C 31.972656 44.601562 32.316406 45.050781 32.714844 45.574219 L 32.976562 45.910156 C 33.1875 46.175781 33.550781 46.269531 33.863281 46.132812 C 34 46.070312 34.167969 46.03125 34.351562 46.015625 C 34.550781 46 34.734375 45.90625 34.863281 45.75 C 34.992188 45.597656 35.050781 45.402344 35.035156 45.203125 C 35.03125 45.171875 35.03125 45.121094 35.050781 45.074219 C 35.054688 45.066406 35.058594 45.058594 35.058594 45.050781 C 35.285156 44.390625 35.199219 43.765625 34.804688 43.242188 C 33.859375 41.984375 31.402344 41.804688 30.621094 41.84375 C 30.15625 41.832031 27.828125 41.34375 27.136719 41.066406 C 27.125 41.050781 27.109375 41.035156 27.09375 41.019531 C 26.820312 40.710938 26.351562 40.6875 26.042969 40.957031 C 25.355469 41.558594 23.757812 41.003906 22.347656 40.511719 C 21.359375 40.167969 20.429688 39.84375 19.648438 39.84375 C 19.308594 39.84375 19.03125 39.839844 18.796875 39.835938 C 17.515625 39.8125 17.265625 39.851562 15.886719 40.519531 C 15.460938 40.722656 14.921875 40.703125 14.640625 40.480469 C 13.917969 39.882812 13.210938 39.632812 12.542969 39.75 C 11.40625 39.945312 10.738281 41.066406 10.09375 42.148438 C 9.539062 43.078125 8.960938 44.042969 8.292969 44.042969 C 8.277344 44.046875 8.265625 44.042969 8.25 44.042969 C 6.429688 44.042969 5.863281 47.8125 5.855469 47.851562 C 5.804688 48.226562 5.667969 49.226562 6.480469 49.433594 C 7.328125 49.644531 8.113281 50 8.941406 50.378906 L 9.496094 50.628906 C 9.59375 50.671875 9.695312 50.695312 9.800781 50.695312 C 9.960938 50.695312 10.117188 50.644531 10.25 50.542969 C 10.46875 50.382812 10.578125 50.113281 10.542969 49.84375 C 10.402344 48.816406 10.953125 47.964844 12.046875 47.511719" fill="inherit"/><path d="M 16.105469 29.921875 C 16.109375 29.921875 16.109375 29.921875 16.113281 29.917969 C 16.109375 29.921875 16.105469 29.921875 16.105469 29.925781 C 16.105469 29.921875 16.105469 29.921875 16.105469 29.921875 Z M 15.8125 30.054688 C 16.148438 30.097656 17.160156 30.402344 17.664062 30.550781 C 18.234375 30.722656 18.542969 30.816406 18.722656 30.84375 C 18.96875 30.886719 19.234375 31.300781 19.382812 31.859375 C 19.421875 32.019531 19.363281 32.21875 19.25 32.273438 C 18.960938 32.421875 18.28125 32.761719 18.285156 33.421875 C 18.285156 33.773438 18.492188 34.082031 18.84375 34.253906 C 19.578125 34.613281 21.777344 34.496094 22.503906 33.941406 C 22.546875 33.910156 22.636719 33.84375 22.8125 34.03125 C 22.960938 34.191406 23.175781 34.28125 23.394531 34.269531 C 23.613281 34.261719 23.816406 34.15625 23.953125 33.980469 C 23.992188 33.929688 24.050781 33.859375 24.050781 33.855469 C 24.136719 33.804688 24.214844 33.75 24.347656 33.652344 C 24.484375 33.558594 24.636719 33.660156 24.734375 33.765625 C 25.007812 34.046875 25.453125 34.070312 25.753906 33.820312 C 25.851562 33.738281 26.042969 33.621094 26.386719 33.53125 C 26.589844 33.480469 26.761719 33.347656 26.863281 33.160156 C 26.960938 32.976562 26.976562 32.757812 26.910156 32.5625 C 26.816406 32.296875 26.773438 32.058594 26.773438 31.808594 C 26.773438 31.648438 26.933594 31.578125 26.984375 31.558594 C 27.070312 31.527344 27.242188 31.496094 27.375 31.648438 C 27.53125 31.839844 27.648438 32.007812 27.753906 32.183594 C 27.957031 32.535156 28.425781 32.652344 28.78125 32.453125 C 28.886719 32.394531 29.292969 32.285156 29.5625 32.214844 C 30.332031 32.011719 31.128906 31.800781 31.570312 31.363281 C 31.644531 31.285156 31.753906 31.238281 31.863281 31.234375 C 31.9375 31.230469 32.027344 31.246094 32.105469 31.324219 C 32.183594 31.402344 32.28125 31.464844 32.382812 31.5 C 32.632812 31.589844 32.882812 31.660156 33.136719 31.726562 C 33.34375 31.785156 33.554688 31.839844 33.855469 31.941406 C 33.96875 31.964844 34.109375 31.996094 34.058594 32.308594 C 33.949219 32.984375 34.113281 33.597656 34.535156 34.085938 C 35.28125 34.949219 36.792969 35.382812 39.035156 35.382812 C 39.132812 35.382812 39.234375 35.382812 39.339844 35.382812 C 39.554688 35.378906 39.757812 35.28125 39.898438 35.117188 C 40.011719 34.980469 40.074219 34.8125 40.074219 34.640625 C 40.238281 34.582031 40.613281 34.59375 40.804688 34.796875 C 41.082031 35.089844 41.542969 35.109375 41.84375 34.84375 C 42.148438 34.578125 42.1875 34.121094 41.933594 33.808594 L 41.824219 33.679688 C 41.742188 33.578125 41.625 33.441406 41.601562 33.386719 C 41.574219 33.316406 41.5625 33.257812 41.574219 33.234375 C 41.601562 33.191406 41.710938 33.121094 41.871094 33.105469 C 42.164062 33.078125 42.398438 32.910156 42.496094 32.636719 C 42.511719 32.601562 42.550781 32.511719 42.5625 32.476562 C 42.652344 32.207031 42.582031 31.914062 42.382812 31.714844 C 42.289062 31.625 42.246094 31.535156 42.234375 31.445312 C 42.050781 29.15625 39.070312 28.902344 37.09375 28.730469 C 36.566406 28.6875 36.066406 28.644531 35.765625 28.574219 C 35.542969 28.523438 35.425781 28.375 35.179688 27.988281 C 34.839844 27.464844 34.335938 26.679688 33.054688 26.71875 C 31.753906 26.777344 30.5 26.574219 29.285156 26.378906 C 27.820312 26.144531 26.304688 25.898438 24.71875 26.101562 C 24.671875 26.09375 24.546875 26.011719 24.46875 25.890625 C 24.074219 25.273438 23.191406 25.292969 21.394531 25.382812 C 20.75 25.414062 19.695312 25.464844 19.359375 25.378906 C 19.101562 25.15625 18.71875 25.128906 18.425781 25.332031 C 18.089844 25.574219 18.011719 26.039062 18.25 26.378906 C 18.25 26.378906 18.253906 26.378906 18.253906 26.378906 C 18.296875 26.441406 18.3125 26.492188 18.269531 26.578125 C 18.199219 26.734375 18 26.871094 17.820312 26.882812 C 17.472656 26.914062 17.15625 27.109375 15.589844 28.410156 C 15.417969 28.554688 15.28125 28.664062 15.222656 28.710938 C 15.21875 28.714844 15.214844 28.71875 15.207031 28.722656 C 14.878906 28.972656 14.816406 29.4375 15.0625 29.769531 C 15.242188 30.007812 15.539062 30.113281 15.8125 30.054688" fill="inherit"/><path d="M 63.777344 78.128906 C 63.183594 77.996094 62.355469 78.09375 61.820312 77.824219 C 60.675781 77.238281 59.664062 78.964844 60.8125 79.550781 C 61.433594 79.867188 62.027344 79.871094 62.707031 79.957031 C 63.429688 80.050781 64.140625 80.273438 64.796875 80.589844 C 65.953125 81.140625 66.96875 79.417969 65.808594 78.863281 C 65.15625 78.550781 64.484375 78.28125 63.777344 78.128906" fill="inherit"/><path d="M 89.726562 74.613281 C 89.777344 74.59375 89.828125 74.578125 89.882812 74.558594 C 90.757812 74.261719 91.535156 74.121094 92.3125 73.578125 C 93.226562 72.945312 94.03125 72.101562 94.855469 71.359375 C 95.8125 70.492188 94.394531 69.082031 93.441406 69.945312 C 92.179688 71.085938 91.160156 72.089844 89.480469 72.570312 C 88.371094 72.886719 87.480469 73.398438 86.433594 73.597656 C 86.136719 73.566406 85.867188 73.355469 85.757812 73.101562 C 86.109375 72.886719 86.480469 72.785156 86.882812 72.636719 C 87.964844 72.234375 88.585938 71.046875 88.152344 69.9375 C 87.6875 68.75 85.753906 69.265625 86.222656 70.46875 C 86.359375 70.816406 86.199219 70.753906 85.863281 70.855469 C 85.453125 70.980469 85.054688 71.15625 84.695312 71.394531 C 84.195312 71.722656 83.777344 72.140625 83.386719 72.585938 C 82.96875 72.835938 82.664062 73.238281 82.421875 73.566406 C 82.304688 73.71875 82.199219 73.875 82.089844 73.976562 C 81.710938 74.3125 81.390625 74.585938 81.03125 74.832031 C 80.265625 75.371094 80.269531 76.195312 80.273438 76.796875 C 80.277344 77.28125 80.269531 77.570312 80.078125 77.761719 C 79.71875 78.109375 79.253906 78.15625 78.421875 78.132812 C 78.28125 78.128906 78.195312 78.078125 78.136719 77.960938 C 78.082031 77.855469 78.007812 77.765625 77.914062 77.695312 C 76.910156 76.945312 76.253906 75.8125 75.5625 74.617188 C 75.003906 73.648438 74.425781 72.648438 73.628906 71.800781 C 73.347656 71.496094 73.207031 71.3125 73.113281 71.195312 C 72.8125 70.804688 72.675781 70.742188 72.144531 70.53125 L 71.671875 70.339844 C 70.484375 69.851562 69.632812 69.308594 68.742188 68.472656 C 67.679688 67.472656 66.027344 66.863281 64.277344 66.21875 C 62.1875 65.453125 60.027344 64.65625 59.484375 63.289062 C 59.214844 62.613281 59.335938 61.785156 59.847656 60.753906 C 59.894531 60.664062 59.917969 60.5625 59.925781 60.460938 C 59.957031 59.882812 60.015625 58.929688 60.039062 58.714844 C 60.039062 58.707031 60.042969 58.699219 60.042969 58.6875 C 60.09375 58.320312 59.867188 57.964844 59.507812 57.863281 C 59.132812 57.753906 58.773438 57.542969 58.390625 57.324219 C 58.222656 57.222656 58.050781 57.125 57.882812 57.035156 C 57.453125 56.800781 57.03125 56.34375 56.664062 55.941406 L 56.601562 55.871094 C 56.0625 55.265625 55.09375 55.355469 54.316406 55.425781 C 54.148438 55.445312 54 55.460938 53.898438 55.457031 C 53.308594 55.441406 52.960938 55.222656 52.382812 54.859375 C 52.378906 54.859375 52.296875 54.808594 52.292969 54.804688 C 51.359375 54.230469 50.539062 54.097656 49.742188 53.96875 C 49.414062 53.914062 49.074219 53.859375 48.710938 53.769531 C 48.316406 53.667969 47.925781 53.496094 47.480469 53.234375 C 47.152344 53.042969 46.730469 53.125 46.503906 53.429688 C 46.246094 53.765625 45.953125 54.015625 45.632812 54.167969 C 45.394531 54.277344 45.230469 54.507812 45.203125 54.769531 C 45.175781 55.03125 45.289062 55.285156 45.5 55.445312 L 45.925781 55.757812 C 46.523438 56.1875 47.203125 56.679688 47.382812 57.117188 C 47.867188 58.300781 49.203125 58.175781 50.179688 58.082031 C 50.800781 58.023438 51.507812 57.957031 51.816406 58.183594 C 52.234375 58.492188 52.472656 58.804688 52.597656 59.195312 C 52.671875 59.429688 52.863281 59.605469 53.09375 59.679688 L 53.4375 59.824219 C 54.570312 60.285156 55.101562 60.578125 55.101562 61.269531 L 55.097656 61.640625 C 55.082031 62.804688 55.0625 64.402344 56.523438 65.382812 C 56.574219 65.417969 56.660156 65.46875 56.761719 65.527344 C 57.25 65.8125 57.535156 66.015625 57.605469 66.121094 C 58.285156 67.464844 59.828125 67.414062 61.070312 67.378906 C 61.890625 67.351562 62.742188 67.324219 63.136719 67.664062 L 63.722656 68.175781 C 66.089844 70.261719 68.546875 72.328125 70.242188 72.714844 C 71.484375 73.003906 71.710938 73.621094 71.773438 74.0625 C 71.972656 75.464844 72.636719 76.390625 73.222656 77.207031 C 73.625 77.765625 74.007812 78.292969 74.246094 78.964844 L 74.621094 79.988281 C 75.710938 82.9375 76.945312 86.28125 76.472656 89.238281 C 76.4375 89.46875 76.507812 89.699219 76.664062 89.867188 C 76.722656 89.933594 76.753906 90.007812 76.753906 90.089844 L 76.746094 90.351562 C 76.726562 91.304688 76.707031 92.207031 76.367188 93.03125 C 76.320312 93.148438 76.25 93.296875 76.171875 93.464844 C 75.75 94.367188 75.351562 95.222656 75.988281 95.726562 C 76.160156 95.859375 76.339844 95.914062 76.523438 95.914062 C 77.035156 95.914062 77.566406 95.488281 77.921875 95.207031 C 78.117188 95.046875 78.363281 94.824219 78.636719 94.570312 C 79.261719 93.988281 80.730469 92.625 81.328125 92.820312 C 81.824219 92.984375 82.289062 93.269531 82.796875 93.710938 C 83.050781 93.933594 83.417969 93.957031 83.699219 93.773438 C 83.980469 93.59375 84.105469 93.246094 84.007812 92.925781 C 83.867188 92.476562 83.800781 92.0625 83.800781 91.675781 C 83.808594 91.296875 83.832031 91.085938 83.84375 90.957031 C 83.882812 90.570312 83.851562 90.417969 83.65625 90.066406 C 83.570312 89.902344 83.414062 89.617188 83.152344 89.019531 C 82.195312 86.851562 81.9375 83.171875 83.078125 81.15625 C 83.539062 80.339844 83.730469 79.417969 83.898438 78.605469 C 84.253906 76.851562 84.460938 76.140625 86.015625 76.230469 C 87.335938 76.296875 88.460938 75.96875 89.433594 75.230469 C 89.628906 75.082031 89.730469 74.847656 89.726562 74.613281" fill="inherit"/><path d="M 68.566406 63.765625 C 67.867188 64.34375 67.535156 65.25 67.152344 66.046875 C 66.59375 67.199219 68.320312 68.214844 68.878906 67.054688 C 69.28125 66.222656 69.390625 65.488281 70.421875 65.273438 C 70.699219 65.214844 71.023438 65.296875 71.320312 65.207031 C 72.050781 64.988281 72.738281 64.34375 72.929688 63.605469 C 73.148438 62.785156 72.765625 62.199219 72.292969 61.5625 C 71.28125 60.210938 70.554688 58.992188 70.152344 57.324219 C 69.851562 56.074219 67.921875 56.601562 68.222656 57.855469 C 68.46875 58.863281 68.808594 59.835938 69.296875 60.753906 C 69.570312 61.265625 70.816406 62.652344 70.550781 63.023438 C 70.265625 63.425781 69.082031 63.339844 68.566406 63.765625" fill="inherit"/><path d="M 72.292969 10.648438 C 72.617188 10.484375 72.949219 10.363281 73.289062 10.269531 C 73.394531 10.621094 73.472656 10.984375 73.53125 11.347656 C 73.375 11.367188 73.226562 11.433594 73.109375 11.550781 L 73.019531 11.644531 C 72.992188 11.671875 72.964844 11.703125 72.9375 11.726562 C 72.507812 12.082031 71.507812 12.910156 70.859375 13.839844 C 70.632812 14.171875 70.703125 14.621094 71.019531 14.863281 C 71.0625 14.898438 71.082031 14.921875 71.101562 15.003906 C 71.382812 16.035156 72.445312 16.339844 73.144531 16.539062 C 73.214844 16.558594 73.28125 16.570312 73.351562 16.570312 C 73.570312 16.570312 73.777344 16.472656 73.921875 16.308594 C 74.148438 16.203125 74.34375 16.003906 74.433594 15.695312 C 74.609375 15.121094 75.0625 14.695312 75.300781 14.152344 C 75.585938 13.519531 75.648438 12.835938 75.625 12.152344 C 75.597656 11.394531 75.453125 10.664062 75.257812 9.945312 C 75.59375 9.917969 75.933594 9.898438 76.269531 9.882812 C 77.550781 9.816406 77.558594 7.816406 76.269531 7.882812 C 75.710938 7.910156 75.15625 7.949219 74.609375 8.015625 C 74.535156 7.820312 74.464844 7.625 74.390625 7.433594 C 73.925781 6.246094 71.988281 6.765625 72.460938 7.964844 C 72.515625 8.105469 72.574219 8.253906 72.628906 8.398438 C 72.171875 8.53125 71.722656 8.699219 71.285156 8.921875 C 70.136719 9.5 71.148438 11.226562 72.292969 10.648438" fill="inherit"/><path d="M 41.980469 43.605469 C 41.976562 43.597656 41.96875 43.59375 41.964844 43.585938 C 41.746094 43.304688 41.5 42.984375 41.09375 42.890625 L 40.886719 42.839844 C 40.375 42.726562 39.882812 42.613281 39.355469 42.457031 C 38.820312 42.3125 38.117188 42.363281 37.828125 43.429688 C 37.796875 43.539062 37.765625 43.65625 37.730469 43.703125 C 36.929688 44.804688 37.132812 45.417969 37.746094 46.105469 C 37.894531 46.269531 38.046875 46.4375 38.1875 46.691406 C 38.261719 46.824219 38.3125 46.949219 38.351562 47.089844 C 38.394531 47.253906 38.496094 47.402344 38.636719 47.503906 C 39.113281 47.847656 39.609375 47.960938 40.097656 47.960938 C 40.601562 47.960938 41.101562 47.839844 41.566406 47.730469 C 41.804688 47.671875 42.042969 47.613281 42.304688 47.570312 C 42.320312 47.566406 42.335938 47.566406 42.347656 47.566406 C 43.167969 47.738281 43.992188 47.898438 44.816406 48.0625 C 43.523438 48.464844 42.3125 49.015625 41.113281 49.679688 C 39.082031 50.808594 40.535156 53.734375 42.5 53.359375 C 42.621094 53.445312 42.769531 53.496094 42.925781 53.496094 C 43.4375 53.496094 43.914062 53.53125 44.363281 53.605469 C 44.5 53.632812 44.625 53.644531 44.742188 53.644531 C 45.023438 53.644531 45.253906 53.578125 45.4375 53.441406 C 45.507812 53.394531 45.558594 53.347656 45.632812 53.277344 C 45.78125 53.125 45.859375 52.917969 45.851562 52.707031 C 45.839844 52.492188 45.738281 52.296875 45.574219 52.164062 C 45.550781 52.144531 45.53125 52.128906 45.507812 52.113281 C 48.09375 51.230469 50.8125 50.804688 53.039062 49.03125 C 53.394531 48.746094 53.59375 48.417969 53.675781 48.089844 C 54.054688 47.796875 54.523438 47.382812 54.601562 47.066406 C 54.734375 46.335938 55.078125 45.9375 55.707031 45.785156 C 56.019531 45.710938 56.730469 45.9375 57.207031 46.261719 C 57.359375 46.375 57.5 46.496094 57.636719 46.617188 C 58.066406 46.996094 58.550781 47.425781 59.339844 47.570312 C 59.359375 47.574219 59.382812 47.574219 59.402344 47.578125 C 59.671875 47.636719 59.960938 47.542969 60.140625 47.324219 C 60.207031 47.246094 60.34375 47.25 60.425781 47.261719 C 60.628906 47.289062 60.835938 47.234375 60.996094 47.105469 C 61.15625 46.976562 61.257812 46.789062 61.273438 46.582031 C 61.382812 45.308594 61.304688 43.914062 61.222656 42.964844 C 61.136719 42.023438 60.492188 41.453125 59.972656 40.992188 C 59.707031 40.753906 59.453125 40.53125 59.359375 40.363281 C 59.296875 40.21875 59.230469 40.089844 59.152344 39.960938 C 59.042969 39.785156 58.867188 39.664062 58.667969 39.621094 C 58.464844 39.582031 58.253906 39.621094 58.085938 39.742188 C 56.875 40.582031 54.839844 40.789062 53.738281 39.757812 C 53.59375 39.625 53.390625 39.546875 53.207031 39.558594 C 52.835938 39.566406 52.507812 39.519531 52.195312 39.410156 C 51.972656 39.335938 51.722656 39.367188 51.527344 39.503906 C 50.003906 40.324219 49.390625 41.878906 48.847656 43.25 C 48.648438 43.757812 48.445312 44.230469 48.21875 44.671875 C 47.949219 44.621094 47.683594 44.5625 47.417969 44.511719 C 47.5625 44.222656 47.6875 43.921875 47.8125 43.621094 C 47.984375 43.199219 48.152344 42.800781 48.386719 42.445312 C 48.660156 42.011719 48.859375 41.574219 49.054688 41.152344 C 49.265625 40.691406 49.464844 40.257812 49.742188 39.859375 C 49.871094 39.671875 50.046875 39.507812 50.292969 39.335938 C 50.472656 39.210938 50.589844 39.011719 50.609375 38.792969 C 50.632812 38.574219 50.554688 38.359375 50.402344 38.199219 C 50.328125 38.117188 50.246094 38.066406 50.171875 38.015625 C 49.925781 37.855469 49.609375 37.851562 49.363281 38.011719 C 49.027344 38.222656 48.601562 38.324219 48.160156 38.296875 C 47.773438 38.277344 47.421875 38.550781 47.371094 38.941406 C 47.363281 38.992188 47.359375 39.042969 47.359375 39.082031 C 47.242188 39.457031 47.050781 39.816406 46.847656 40.195312 C 46.644531 40.570312 46.4375 40.957031 46.28125 41.394531 C 46.078125 41.972656 46.074219 42.554688 46.070312 43.070312 C 46.066406 43.417969 46.066406 43.75 46.003906 44.042969 C 45.992188 44.105469 45.996094 44.164062 46 44.226562 C 44.964844 44.023438 43.925781 43.824219 42.894531 43.605469 C 42.5625 43.53125 42.257812 43.542969 41.980469 43.605469" fill="inherit"/></g></svg>