<?xml version="1.0" encoding="UTF-8"?><svg xmlns="http://www.w3.org/2000/svg" xmlns:xlink="http://www.w3.org/1999/xlink" height="166.0" overflow="hidden" preserveAspectRatio="xMidYMid meet" version="1.0" viewBox="0.0 0.0 102.0 166.0" width="102.0" zoomAndPan="magnify"><defs><clipPath id="a"><path d="M302 60H404V226H302z"/></clipPath></defs><g clip-path="url(#a)" transform="translate(-302 -60)"><g id="change1_1"><path d="M87.8121 95.0282C87.8121 95.0282 95.1695 88.5905 109.884 101.466 109.884 101.466 110.804 102.386 107.125 108.823 103.447 115.261 101.607 117.1 100.688 126.297 99.7679 135.494 100.688 137.333 100.688 137.333 100.688 137.333 123.679 151.128 126.438 161.244 129.197 171.361 125.519 180.557 107.125 180.557L39.0698 180.557C39.0698 180.557 21.5961 179.638 27.1141 162.164 32.6321 144.69 54.7041 142.851 54.7041 142.851L46.4271 131.815 53.7845 106.984Z" fill="#E47929" transform="matrix(1.00423 0 0 1 276.029 45.443)"/></g><g id="change1_2"><path d="M109.497 103.995C109.497 103.995 115.862 120.319 117.701 125.837 119.541 131.355 117.701 155.266 114.023 154.347 110.344 153.427 107.585 148.829 100.228 136.873 100.228 136.873 94.8557 119.859 109.497 103.995Z" fill="#E47929" transform="matrix(1.00423 0 0 1 276.029 45.443)"/></g><g id="change2_1"><path d="M49.6459 127.676C49.6459 127.676 86.4326 123.078 103.906 127.676L103.906 146.989 50.5983 146.989Z" fill="#994015" fill-opacity=".45" transform="matrix(1.00423 0 0 1 276.029 45.443)"/></g><g id="change2_2"><path d="M66.2 130.67C66.2 130.67 58.8427 119.634 60.682 117.794 62.5213 115.955 82.754 111.357 90.1113 116.875 90.1113 116.875 91.031 121.473 85.513 129.75 85.513 129.75 96.549 153.661 94.7096 155.501 92.8702 157.34 62.5213 162.858 61.6016 157.34 60.6818 151.822 66.2 130.67 66.2 130.67Z" fill="#994015" transform="matrix(1.00423 0 0 1 276.029 45.443)"/></g><g id="change3_1"><path d="M61.6017 94.5683C61.6017 94.5683 48.7263 100.086 43.2083 116.64 37.6904 133.194 38.61 141.471 40.4493 143.311 42.2887 145.15 67.1197 158.025 76.3164 157.106 76.3164 157.106 80.9147 157.106 81.8344 154.347 82.7541 151.588 76.3164 156.186 70.7984 151.588 70.7984 151.588 79.0754 155.266 73.5574 149.748 68.0394 144.23 65.2804 146.989 63.4411 146.07 63.4411 146.07 57.0034 136.873 50.5657 132.275L55.164 112.962C55.164 112.962 86.4326 98.2471 87.3523 94.5684Z" fill="#FCD9BB" transform="matrix(1.00423 0 0 1 276.029 45.443)"/></g><g id="change3_2"><path d="M103.317 142.682C103.317 142.682 94.4219 150.221 92.6581 150.101 90.8943 149.981 90.0723 149.039 86.3652 151.446 82.6581 153.852 80.7147 156.378 82.4785 156.497 83.9867 156.491 85.4883 156.296 86.9477 155.915 86.9477 155.915 85.004 158.441 83.2406 158.321 81.4772 158.201 75.3636 156.9 75.2438 158.664 75.124 160.428 77.7098 161.489 83.001 161.848 88.2922 162.208 96.5834 161.339 106.295 153.412Z" fill="#FCD9BB" transform="matrix(1.00423 0 0 1 276.029 45.443)"/></g><g id="change4_1"><path d="M64.3607 131.355C64.3607 131.355 76.3163 125.837 88.272 129.516 88.272 129.516 89.1916 133.194 87.3523 133.194 87.3523 133.194 90.1113 135.953 88.272 136.873 88.272 136.873 76.3163 136.873 73.5573 137.793 70.7983 138.712 68.959 137.793 66.2 137.793 63.441 137.793 63.441 135.034 65.2803 135.034 65.2803 135.034 62.5213 134.114 64.3607 131.355Z" fill="#B25417" transform="matrix(1.00423 0 0 1 276.029 45.443)"/></g><g id="change3_3"><path d="M44.3327 63.2043C44.3327 63.2043 37.284 60.4248 35.8248 67.7202 34.3656 75.0155 42.0228 79.8748 45.976 76.7156L47.9836 73.0703Z" fill="#FCD9BB" transform="matrix(1.00423 0 0 1 276.029 45.443)"/></g><g id="change3_4"><path d="M113.473 63.2043C113.473 63.2043 120.522 60.4248 121.981 67.7202 123.44 75.0155 115.783 79.8748 111.83 76.7156L109.822 73.0703Z" fill="#FCD9BB" transform="matrix(1.00423 0 0 1 276.029 45.443)"/></g><g id="change3_5"><path d="M111.38 31.2157C100.782 16.6832 78.7655 14.6098 78.7655 14.6098 78.7655 14.6098 56.7494 16.6832 46.1508 31.2157 40.1737 39.411 36.6954 53.6273 45.1095 74.3819 45.1095 74.3819 32.208 95.1365 78.7655 94.5752 125.323 95.1362 112.422 74.3819 112.422 74.3819 120.836 53.6273 117.357 39.411 111.38 31.2157Z" fill="#FCD9BB" transform="matrix(1.00423 0 0 1 276.029 45.443)"/></g><g id="change5_1"><path d="M66.9859 50.2618C66.9859 50.2618 66.9859 53.0664 65.864 53.0664 64.7422 53.0664 53.5236 51.3833 51.8406 51.3833 50.1576 51.3833 50.1581 47.4571 66.9859 50.2618Z" fill="#A5A4A4" transform="matrix(1.00423 0 0 1 276.029 45.443)"/></g><g id="change5_2"><path d="M89.8338 50.2618C89.8338 50.2618 89.8338 53.0664 90.9556 53.0664 92.0775 53.0664 103.296 51.3836 104.979 51.3836 106.662 51.3836 106.662 47.4571 89.8338 50.2618Z" fill="#A5A4A4" transform="matrix(1.00423 0 0 1 276.029 45.443)"/></g><path d="M73.1562 83.9178C73.1562 83.9178 78.2046 87.8444 83.2528 83.9178" fill="none" stroke="#544842" stroke-linecap="round" stroke-linejoin="round" stroke-width=".756" transform="matrix(1.00423 0 0 1 276.029 45.443)"/><g id="change5_3"><path d="M78.485 32.5923C66.1445 32.5923 57.1696 23.6174 49.3165 32.5923 41.4634 41.5672 46.5118 52.7856 46.5118 52.7856 41.4634 58.395 45.1095 74.3816 45.1095 74.3816 36.6954 53.6273 40.1737 35.7326 46.1508 27.537 56.7494 13.0045 78.7655 14.6098 78.7655 14.6098 78.7655 14.6098 100.781 13.0045 111.38 27.537 117.357 35.7326 120.836 53.6273 112.422 74.3819 112.422 74.3819 114.946 58.3953 110.458 52.7859 110.458 52.7859 116.353 40.1701 108.775 32.5926 98.6786 22.4955 90.8256 32.5923 78.485 32.5923Z" fill="#A5A4A4" transform="matrix(1.00423 0 0 1 276.029 45.443)"/></g><path d="M53.7924 65.8598C53.7924 65.8598 57.81 69.0741 65.0417 65.8598" fill="none" stroke="#544842" stroke-linecap="round" stroke-linejoin="round" stroke-width="1.513" transform="matrix(1.00423 0 0 1 276.029 45.443)"/><path d="M101.2 65.8598C101.2 65.8598 97.1826 69.0741 89.9509 65.8598" fill="none" stroke="#544842" stroke-linecap="round" stroke-linejoin="round" stroke-width="1.513" transform="matrix(1.00423 0 0 1 276.029 45.443)"/></g></svg>